<svg width="97" height="71" viewBox="0 0 97 71" fill="none" xmlns="http://www.w3.org/2000/svg">
<g opacity="0.2">
<mask id="path-1-outside-1_3183_4676" maskUnits="userSpaceOnUse" x="-1" y="-1" width="99" height="73" fill="black">
<rect fill="white" x="-1" y="-1" width="99" height="73"/>
<path d="M31.216 70.536C25.264 70.536 19.984 69.16 15.376 66.408C10.832 63.656 7.248 59.656 4.624 54.408C2.064 49.16 0.784 42.824 0.784 35.4C0.784 27.976 2.064 21.64 4.624 16.392C7.248 11.144 10.832 7.144 15.376 4.392C19.984 1.64 25.264 0.263998 31.216 0.263998C37.168 0.263998 42.416 1.64 46.96 4.392C51.568 7.144 55.152 11.144 57.712 16.392C60.336 21.64 61.648 27.976 61.648 35.4C61.648 42.824 60.336 49.16 57.712 54.408C55.152 59.656 51.568 63.656 46.96 66.408C42.416 69.16 37.168 70.536 31.216 70.536ZM31.216 52.392C32.688 52.392 34 51.88 35.152 50.856C36.304 49.832 37.2 48.072 37.84 45.576C38.544 43.08 38.896 39.688 38.896 35.4C38.896 31.048 38.544 27.656 37.84 25.224C37.2 22.728 36.304 20.968 35.152 19.944C34 18.92 32.688 18.408 31.216 18.408C29.744 18.408 28.432 18.92 27.28 19.944C26.128 20.968 25.2 22.728 24.496 25.224C23.856 27.656 23.536 31.048 23.536 35.4C23.536 39.688 23.856 43.08 24.496 45.576C25.2 48.072 26.128 49.832 27.28 50.856C28.432 51.88 29.744 52.392 31.216 52.392ZM74.0312 69V9.672L83.7273 18.888H62.5113V1.8H96.6873V69H74.0312Z"/>
</mask>
<path d="M15.376 66.408L14.858 67.2634L14.8633 67.2665L15.376 66.408ZM4.624 54.408L3.72519 54.8464L3.72957 54.8552L4.624 54.408ZM4.624 16.392L3.72953 15.9448L3.72523 15.9536L4.624 16.392ZM15.376 4.392L14.8633 3.53344L14.858 3.53664L15.376 4.392ZM46.96 4.392L46.442 5.24737L46.4473 5.25054L46.96 4.392ZM57.712 16.392L56.8132 16.8304L56.8176 16.8392L57.712 16.392ZM57.712 54.408L56.8175 53.9608L56.8132 53.9696L57.712 54.408ZM46.96 66.408L46.4473 65.5494L46.442 65.5526L46.96 66.408ZM37.84 45.576L36.8776 45.3045L36.8743 45.316L36.8713 45.3276L37.84 45.576ZM37.84 25.224L36.8713 25.4724L36.8752 25.4873L36.8794 25.5021L37.84 25.224ZM35.152 19.944L35.8164 19.1966L35.152 19.944ZM27.28 19.944L26.6156 19.1966L27.28 19.944ZM24.496 25.224L23.5336 24.9525L23.5312 24.961L23.5289 24.9695L24.496 25.224ZM24.496 45.576L23.5273 45.8244L23.5303 45.836L23.5336 45.8475L24.496 45.576ZM31.216 69.536C25.4243 69.536 20.3252 68.199 15.8887 65.5495L14.8633 67.2665C19.6428 70.121 25.1037 71.536 31.216 71.536V69.536ZM15.894 65.5526C11.5281 62.9085 8.06713 59.0582 5.51843 53.9608L3.72957 54.8552C6.42887 60.2538 10.1359 64.4035 14.858 67.2634L15.894 65.5526ZM5.52277 53.9696C3.04494 48.89 1.784 42.7121 1.784 35.4H-0.216C-0.216 42.9359 1.08306 49.43 3.72523 54.8464L5.52277 53.9696ZM1.784 35.4C1.784 28.0879 3.04494 21.91 5.52277 16.8304L3.72523 15.9536C1.08306 21.37 -0.216 27.8641 -0.216 35.4H1.784ZM5.51843 16.8392C8.06713 11.7418 11.5281 7.8915 15.894 5.24736L14.858 3.53664C10.1359 6.39649 6.42887 10.5462 3.72957 15.9448L5.51843 16.8392ZM15.8887 5.25054C20.3252 2.60096 25.4243 1.264 31.216 1.264V-0.736002C25.1037 -0.736002 19.6428 0.679033 14.8633 3.53345L15.8887 5.25054ZM31.216 1.264C37.0079 1.264 42.0724 2.60102 46.442 5.24736L47.478 3.53664C42.7596 0.678975 37.3281 -0.736002 31.216 -0.736002V1.264ZM46.4473 5.25054C50.8739 7.89421 54.3306 11.741 56.8132 16.8304L58.6108 15.9536C55.9734 10.547 52.2621 6.39378 47.4727 3.53345L46.4473 5.25054ZM56.8176 16.8392C59.3562 21.9165 60.648 28.0912 60.648 35.4H62.648C62.648 27.8608 61.3158 21.3635 58.6064 15.9448L56.8176 16.8392ZM60.648 35.4C60.648 42.7088 59.3562 48.8835 56.8176 53.9608L58.6064 54.8552C61.3158 49.4365 62.648 42.9392 62.648 35.4H60.648ZM56.8132 53.9696C54.3306 59.059 50.8739 62.9058 46.4473 65.5495L47.4727 67.2665C52.2621 64.4062 55.9734 60.253 58.6108 54.8464L56.8132 53.9696ZM46.442 65.5526C42.0724 68.199 37.0079 69.536 31.216 69.536V71.536C37.3281 71.536 42.7596 70.121 47.478 67.2634L46.442 65.5526ZM31.216 53.392C32.9452 53.392 34.4907 52.7817 35.8164 51.6034L34.4876 50.1086C33.5093 50.9783 32.4308 51.392 31.216 51.392V53.392ZM35.8164 51.6034C37.187 50.385 38.1491 48.3969 38.8087 45.8244L36.8713 45.3276C36.2509 47.7471 35.421 49.279 34.4876 50.1086L35.8164 51.6034ZM38.8025 45.8475C39.5423 43.2244 39.896 39.7283 39.896 35.4H37.896C37.896 39.6477 37.5457 42.9355 36.8776 45.3045L38.8025 45.8475ZM39.896 35.4C39.896 31.0111 39.5429 27.5104 38.8006 24.9459L36.8794 25.5021C37.5451 27.8016 37.896 31.0849 37.896 35.4H39.896ZM38.8087 24.9756C38.1491 22.4031 37.187 20.415 35.8164 19.1966L34.4876 20.6914C35.421 21.521 36.2509 23.0529 36.8713 25.4724L38.8087 24.9756ZM35.8164 19.1966C34.4907 18.0183 32.9452 17.408 31.216 17.408V19.408C32.4308 19.408 33.5093 19.8217 34.4876 20.6914L35.8164 19.1966ZM31.216 17.408C29.4868 17.408 27.9413 18.0183 26.6156 19.1966L27.9444 20.6914C28.9227 19.8217 30.0012 19.408 31.216 19.408V17.408ZM26.6156 19.1966C25.2536 20.4073 24.2579 22.3845 23.5336 24.9525L25.4585 25.4955C26.1421 23.0715 27.0024 21.5287 27.9444 20.6914L26.6156 19.1966ZM23.5289 24.9695C22.8568 27.5235 22.536 31.0148 22.536 35.4H24.536C24.536 31.0812 24.8552 27.7885 25.4631 25.4785L23.5289 24.9695ZM22.536 35.4C22.536 39.7243 22.8573 43.2114 23.5273 45.8244L25.4647 45.3276C24.8547 42.9486 24.536 39.6517 24.536 35.4H22.536ZM23.5336 45.8475C24.2579 48.4155 25.2536 50.3927 26.6156 51.6034L27.9444 50.1086C27.0024 49.2713 26.1421 47.7285 25.4585 45.3045L23.5336 45.8475ZM26.6156 51.6034C27.9413 52.7817 29.4868 53.392 31.216 53.392V51.392C30.0012 51.392 28.9227 50.9783 27.9444 50.1086L26.6156 51.6034ZM74.0312 69H73.0312V70H74.0312V69ZM74.0312 9.672L74.7202 8.94718L73.0312 7.34185V9.672H74.0312ZM83.7272 18.888V19.888H86.2308L84.4162 18.1632L83.7272 18.888ZM62.5113 18.888H61.5112V19.888H62.5113V18.888ZM62.5113 1.8V0.799995H61.5112V1.8H62.5113ZM96.6873 1.8H97.6873V0.799995H96.6873V1.8ZM96.6873 69V70H97.6873V69H96.6873ZM75.0312 69V9.672H73.0312V69H75.0312ZM73.3423 10.3968L83.0383 19.6128L84.4162 18.1632L74.7202 8.94718L73.3423 10.3968ZM83.7272 17.888H62.5113V19.888H83.7272V17.888ZM63.5113 18.888V1.8H61.5112V18.888H63.5113ZM62.5113 2.8H96.6873V0.799995H62.5113V2.8ZM95.6873 1.8V69H97.6873V1.8H95.6873ZM96.6873 68H74.0312V70H96.6873V68Z" fill="#60A5FA" mask="url(#path-1-outside-1_3183_4676)"/>
</g>
</svg>
