<svg width="119" height="71" viewBox="0 0 119 71" fill="none" xmlns="http://www.w3.org/2000/svg">
<g opacity="0.2">
<mask id="path-1-outside-1_3183_4729" maskUnits="userSpaceOnUse" x="-1" y="-1" width="121" height="73" fill="black">
<rect fill="white" x="-1" y="-1" width="121" height="73"/>
<path d="M31.216 70.536C25.264 70.536 19.984 69.16 15.376 66.408C10.832 63.656 7.248 59.656 4.624 54.408C2.064 49.16 0.784 42.824 0.784 35.4C0.784 27.976 2.064 21.64 4.624 16.392C7.248 11.144 10.832 7.144 15.376 4.392C19.984 1.64 25.264 0.263998 31.216 0.263998C37.168 0.263998 42.416 1.64 46.96 4.392C51.568 7.144 55.152 11.144 57.712 16.392C60.336 21.64 61.648 27.976 61.648 35.4C61.648 42.824 60.336 49.16 57.712 54.408C55.152 59.656 51.568 63.656 46.96 66.408C42.416 69.16 37.168 70.536 31.216 70.536ZM31.216 52.392C32.688 52.392 34 51.88 35.152 50.856C36.304 49.832 37.2 48.072 37.84 45.576C38.544 43.08 38.896 39.688 38.896 35.4C38.896 31.048 38.544 27.656 37.84 25.224C37.2 22.728 36.304 20.968 35.152 19.944C34 18.92 32.688 18.408 31.216 18.408C29.744 18.408 28.432 18.92 27.28 19.944C26.128 20.968 25.2 22.728 24.496 25.224C23.856 27.656 23.536 31.048 23.536 35.4C23.536 39.688 23.856 43.08 24.496 45.576C25.2 48.072 26.128 49.832 27.28 50.856C28.432 51.88 29.744 52.392 31.216 52.392ZM64.7193 69V55.08L89.0073 32.616C90.5433 31.144 91.6633 29.864 92.3673 28.776C93.1353 27.688 93.6473 26.728 93.9033 25.896C94.1593 25 94.2873 24.168 94.2873 23.4C94.2873 21.736 93.7433 20.456 92.6553 19.56C91.5673 18.6 89.9353 18.12 87.7593 18.12C85.7753 18.12 83.8873 18.664 82.0953 19.752C80.3033 20.776 78.8953 22.312 77.8713 24.36L60.7832 15.816C63.2153 11.208 66.8633 7.464 71.7273 4.584C76.5913 1.704 82.6393 0.263998 89.8713 0.263998C95.1833 0.263998 99.8873 1.128 103.983 2.856C108.079 4.584 111.279 7.016 113.583 10.152C115.887 13.288 117.039 17 117.039 21.288C117.039 23.464 116.751 25.64 116.175 27.816C115.663 29.992 114.575 32.296 112.911 34.728C111.247 37.096 108.783 39.752 105.519 42.696L87.2793 59.304L83.7273 51.432H118.575V69H64.7193Z"/>
</mask>
<path d="M15.376 66.408L14.858 67.2634L14.8633 67.2665L15.376 66.408ZM4.624 54.408L3.72519 54.8464L3.72957 54.8552L4.624 54.408ZM4.624 16.392L3.72953 15.9448L3.72523 15.9536L4.624 16.392ZM15.376 4.392L14.8633 3.53344L14.858 3.53664L15.376 4.392ZM46.96 4.392L46.442 5.24737L46.4473 5.25054L46.96 4.392ZM57.712 16.392L56.8132 16.8304L56.8176 16.8392L57.712 16.392ZM57.712 54.408L56.8175 53.9608L56.8132 53.9696L57.712 54.408ZM46.96 66.408L46.4473 65.5494L46.442 65.5526L46.96 66.408ZM37.84 45.576L36.8776 45.3045L36.8743 45.316L36.8713 45.3276L37.84 45.576ZM37.84 25.224L36.8713 25.4724L36.8752 25.4873L36.8794 25.5021L37.84 25.224ZM35.152 19.944L35.8164 19.1966L35.152 19.944ZM27.28 19.944L26.6156 19.1966L27.28 19.944ZM24.496 25.224L23.5336 24.9525L23.5312 24.961L23.5289 24.9695L24.496 25.224ZM24.496 45.576L23.5273 45.8244L23.5303 45.836L23.5336 45.8475L24.496 45.576ZM31.216 69.536C25.4243 69.536 20.3252 68.199 15.8887 65.5495L14.8633 67.2665C19.6428 70.121 25.1037 71.536 31.216 71.536V69.536ZM15.894 65.5526C11.5281 62.9085 8.06713 59.0582 5.51843 53.9608L3.72957 54.8552C6.42887 60.2538 10.1359 64.4035 14.858 67.2634L15.894 65.5526ZM5.52277 53.9696C3.04494 48.89 1.784 42.7121 1.784 35.4H-0.216C-0.216 42.9359 1.08306 49.43 3.72523 54.8464L5.52277 53.9696ZM1.784 35.4C1.784 28.0879 3.04494 21.91 5.52277 16.8304L3.72523 15.9536C1.08306 21.37 -0.216 27.8641 -0.216 35.4H1.784ZM5.51843 16.8392C8.06713 11.7418 11.5281 7.8915 15.894 5.24736L14.858 3.53664C10.1359 6.39649 6.42887 10.5462 3.72957 15.9448L5.51843 16.8392ZM15.8887 5.25054C20.3252 2.60096 25.4243 1.264 31.216 1.264V-0.736002C25.1037 -0.736002 19.6428 0.679033 14.8633 3.53345L15.8887 5.25054ZM31.216 1.264C37.0079 1.264 42.0724 2.60102 46.442 5.24736L47.478 3.53664C42.7596 0.678975 37.3281 -0.736002 31.216 -0.736002V1.264ZM46.4473 5.25054C50.8739 7.89421 54.3306 11.741 56.8132 16.8304L58.6108 15.9536C55.9734 10.547 52.2621 6.39378 47.4727 3.53345L46.4473 5.25054ZM56.8176 16.8392C59.3562 21.9165 60.648 28.0912 60.648 35.4H62.648C62.648 27.8608 61.3158 21.3635 58.6064 15.9448L56.8176 16.8392ZM60.648 35.4C60.648 42.7088 59.3562 48.8835 56.8176 53.9608L58.6064 54.8552C61.3158 49.4365 62.648 42.9392 62.648 35.4H60.648ZM56.8132 53.9696C54.3306 59.059 50.8739 62.9058 46.4473 65.5495L47.4727 67.2665C52.2621 64.4062 55.9734 60.253 58.6108 54.8464L56.8132 53.9696ZM46.442 65.5526C42.0724 68.199 37.0079 69.536 31.216 69.536V71.536C37.3281 71.536 42.7596 70.121 47.478 67.2634L46.442 65.5526ZM31.216 53.392C32.9452 53.392 34.4907 52.7817 35.8164 51.6034L34.4876 50.1086C33.5093 50.9783 32.4308 51.392 31.216 51.392V53.392ZM35.8164 51.6034C37.187 50.385 38.1491 48.3969 38.8087 45.8244L36.8713 45.3276C36.2509 47.7471 35.421 49.279 34.4876 50.1086L35.8164 51.6034ZM38.8025 45.8475C39.5423 43.2244 39.896 39.7283 39.896 35.4H37.896C37.896 39.6477 37.5457 42.9355 36.8776 45.3045L38.8025 45.8475ZM39.896 35.4C39.896 31.0111 39.5429 27.5104 38.8006 24.9459L36.8794 25.5021C37.5451 27.8016 37.896 31.0849 37.896 35.4H39.896ZM38.8087 24.9756C38.1491 22.4031 37.187 20.415 35.8164 19.1966L34.4876 20.6914C35.421 21.521 36.2509 23.0529 36.8713 25.4724L38.8087 24.9756ZM35.8164 19.1966C34.4907 18.0183 32.9452 17.408 31.216 17.408V19.408C32.4308 19.408 33.5093 19.8217 34.4876 20.6914L35.8164 19.1966ZM31.216 17.408C29.4868 17.408 27.9413 18.0183 26.6156 19.1966L27.9444 20.6914C28.9227 19.8217 30.0012 19.408 31.216 19.408V17.408ZM26.6156 19.1966C25.2536 20.4073 24.2579 22.3845 23.5336 24.9525L25.4585 25.4955C26.1421 23.0715 27.0024 21.5287 27.9444 20.6914L26.6156 19.1966ZM23.5289 24.9695C22.8568 27.5235 22.536 31.0148 22.536 35.4H24.536C24.536 31.0812 24.8552 27.7885 25.4631 25.4785L23.5289 24.9695ZM22.536 35.4C22.536 39.7243 22.8573 43.2114 23.5273 45.8244L25.4647 45.3276C24.8547 42.9486 24.536 39.6517 24.536 35.4H22.536ZM23.5336 45.8475C24.2579 48.4155 25.2536 50.3927 26.6156 51.6034L27.9444 50.1086C27.0024 49.2713 26.1421 47.7285 25.4585 45.3045L23.5336 45.8475ZM26.6156 51.6034C27.9413 52.7817 29.4868 53.392 31.216 53.392V51.392C30.0012 51.392 28.9227 50.9783 27.9444 50.1086L26.6156 51.6034ZM64.7193 69H63.7193V70H64.7193V69ZM64.7193 55.08L64.0402 54.3459L63.7193 54.6428V55.08H64.7193ZM89.0072 32.616L89.6863 33.3501L89.6928 33.3441L89.6992 33.338L89.0072 32.616ZM92.3672 28.776L91.5503 28.1993L91.5386 28.2158L91.5277 28.2327L92.3672 28.776ZM93.9033 25.896L94.859 26.1901L94.862 26.1804L94.8648 26.1707L93.9033 25.896ZM92.6553 19.56L91.9936 20.3098L92.0064 20.3211L92.0195 20.3319L92.6553 19.56ZM82.0953 19.752L82.5914 20.6202L82.6029 20.6137L82.6142 20.6068L82.0953 19.752ZM77.8713 24.36L77.424 25.2544L78.3185 25.7016L78.7657 24.8072L77.8713 24.36ZM60.7832 15.816L59.8989 15.3492L59.4217 16.2533L60.336 16.7104L60.7832 15.816ZM71.7272 4.584L72.2367 5.44448V5.44447L71.7272 4.584ZM103.983 2.856L103.595 3.77736V3.77736L103.983 2.856ZM113.583 10.152L112.777 10.7441V10.7441L113.583 10.152ZM116.175 27.816L115.209 27.5601L115.205 27.5735L115.202 27.587L116.175 27.816ZM112.911 34.728L113.73 35.303L113.737 35.2927L112.911 34.728ZM105.519 42.696L104.849 41.9534L104.846 41.9566L105.519 42.696ZM87.2793 59.304L86.3677 59.7153L86.9342 60.9706L87.9525 60.0434L87.2793 59.304ZM83.7272 51.432V50.432H82.1789L82.8157 51.8433L83.7272 51.432ZM118.575 51.432H119.575V50.432H118.575V51.432ZM118.575 69V70H119.575V69H118.575ZM65.7193 69V55.08H63.7193V69H65.7193ZM65.3983 55.8141L89.6863 33.3501L88.3282 31.8819L64.0402 54.3459L65.3983 55.8141ZM89.6992 33.338C91.2603 31.8419 92.4425 30.5004 93.2068 29.3192L91.5277 28.2327C90.884 29.2276 89.8262 30.4461 88.3153 31.894L89.6992 33.338ZM93.1842 29.3527C93.9844 28.2191 94.5601 27.1616 94.859 26.1901L92.9475 25.6019C92.7344 26.2944 92.2861 27.1569 91.5503 28.1993L93.1842 29.3527ZM94.8648 26.1707C95.1411 25.2037 95.2873 24.2782 95.2873 23.4H93.2873C93.2873 24.0578 93.1774 24.7963 92.9417 25.6213L94.8648 26.1707ZM95.2873 23.4C95.2873 21.4971 94.6522 19.9091 93.291 18.7881L92.0195 20.3319C92.8343 21.0029 93.2873 21.9748 93.2873 23.4H95.2873ZM93.3169 18.8102C91.9737 17.625 90.0607 17.12 87.7592 17.12V19.12C89.8098 19.12 91.1608 19.575 91.9936 20.3098L93.3169 18.8102ZM87.7592 17.12C85.5817 17.12 83.5155 17.7198 81.5763 18.8972L82.6142 20.6068C84.259 19.6082 85.9688 19.12 87.7592 19.12V17.12ZM81.5991 18.8838C79.6172 20.0163 78.0791 21.7083 76.9768 23.9128L78.7657 24.8072C79.7114 22.9157 80.9893 21.5357 82.5914 20.6202L81.5991 18.8838ZM78.3185 23.4656L61.2305 14.9216L60.336 16.7104L77.424 25.2544L78.3185 23.4656ZM61.6676 16.2828C64.0061 11.8519 67.5177 8.23866 72.2367 5.44448L71.2178 3.72352C66.2088 6.68934 62.4244 10.5641 59.8989 15.3492L61.6676 16.2828ZM72.2367 5.44447C76.909 2.67799 82.7693 1.264 89.8713 1.264V-0.736002C82.5092 -0.736002 76.2735 0.730007 71.2178 3.72352L72.2367 5.44447ZM89.8713 1.264C95.0752 1.264 99.6431 2.11034 103.595 3.77736L104.372 1.93463C100.131 0.145661 95.2913 -0.736002 89.8713 -0.736002V1.264ZM103.595 3.77736C107.548 5.44541 110.595 7.7732 112.777 10.7441L114.389 9.55992C111.964 6.25879 108.61 3.72258 104.372 1.93463L103.595 3.77736ZM112.777 10.7441C114.942 13.6909 116.039 17.1902 116.039 21.288H118.039C118.039 16.8098 116.832 12.8851 114.389 9.55992L112.777 10.7441ZM116.039 21.288C116.039 23.3747 115.763 25.4647 115.209 27.5601L117.142 28.0719C117.739 25.8153 118.039 23.5533 118.039 21.288H116.039ZM115.202 27.587C114.725 29.6114 113.701 31.8025 112.086 34.1633L113.737 35.2927C115.449 32.7895 116.601 30.3726 117.149 28.045L115.202 27.587ZM112.093 34.1531C110.488 36.437 108.083 39.0366 104.849 41.9534L106.189 43.4386C109.483 40.4674 112.006 37.755 113.729 35.3029L112.093 34.1531ZM104.846 41.9566L86.606 58.5646L87.9525 60.0434L106.193 43.4354L104.846 41.9566ZM88.1908 58.8927L84.6388 51.0207L82.8157 51.8433L86.3677 59.7153L88.1908 58.8927ZM83.7272 52.432H118.575V50.432H83.7272V52.432ZM117.575 51.432V69H119.575V51.432H117.575ZM118.575 68H64.7193V70H118.575V68Z" fill="#1D4ED8" mask="url(#path-1-outside-1_3183_4729)"/>
</g>
</svg>
