<svg width="119" height="71" viewBox="0 0 119 71" fill="none" xmlns="http://www.w3.org/2000/svg">
<g opacity="0.2">
<mask id="path-1-outside-1_3183_4699" maskUnits="userSpaceOnUse" x="-1" y="-1" width="121" height="73" fill="black">
<rect fill="white" x="-1" y="-1" width="121" height="73"/>
<path d="M31.216 70.536C25.264 70.536 19.984 69.16 15.376 66.408C10.832 63.656 7.248 59.656 4.624 54.408C2.064 49.16 0.784 42.824 0.784 35.4C0.784 27.976 2.064 21.64 4.624 16.392C7.248 11.144 10.832 7.144 15.376 4.392C19.984 1.64 25.264 0.263998 31.216 0.263998C37.168 0.263998 42.416 1.64 46.96 4.392C51.568 7.144 55.152 11.144 57.712 16.392C60.336 21.64 61.648 27.976 61.648 35.4C61.648 42.824 60.336 49.16 57.712 54.408C55.152 59.656 51.568 63.656 46.96 66.408C42.416 69.16 37.168 70.536 31.216 70.536ZM31.216 52.392C32.688 52.392 34 51.88 35.152 50.856C36.304 49.832 37.2 48.072 37.84 45.576C38.544 43.08 38.896 39.688 38.896 35.4C38.896 31.048 38.544 27.656 37.84 25.224C37.2 22.728 36.304 20.968 35.152 19.944C34 18.92 32.688 18.408 31.216 18.408C29.744 18.408 28.432 18.92 27.28 19.944C26.128 20.968 25.2 22.728 24.496 25.224C23.856 27.656 23.536 31.048 23.536 35.4C23.536 39.688 23.856 43.08 24.496 45.576C25.2 48.072 26.128 49.832 27.28 50.856C28.432 51.88 29.744 52.392 31.216 52.392ZM87.9513 70.536C83.3433 70.536 78.6713 70.024 73.9353 69C69.1993 67.976 65.0393 66.472 61.4552 64.488L69.1353 47.784C72.0153 49.448 75.0233 50.696 78.1593 51.528C81.3593 52.296 84.3673 52.68 87.1833 52.68C89.7433 52.68 91.8233 52.264 93.4233 51.432C95.0873 50.536 95.9193 49.224 95.9193 47.496C95.9193 46.024 95.3113 44.904 94.0953 44.136C92.8793 43.304 90.8313 42.888 87.9513 42.888H79.0233V28.968L96.3993 11.304L98.4153 18.888H64.9113V1.8H115.023V15.72L97.6473 33.384L86.7993 27.24H92.7513C101.199 27.24 107.631 29.128 112.047 32.904C116.463 36.68 118.671 41.544 118.671 47.496C118.671 51.336 117.583 55.016 115.407 58.536C113.295 62.056 109.967 64.936 105.423 67.176C100.943 69.416 95.1193 70.536 87.9513 70.536Z"/>
</mask>
<path d="M15.376 66.408L14.858 67.2634L14.8633 67.2665L15.376 66.408ZM4.624 54.408L3.72519 54.8464L3.72957 54.8552L4.624 54.408ZM4.624 16.392L3.72953 15.9448L3.72523 15.9536L4.624 16.392ZM15.376 4.392L14.8633 3.53344L14.858 3.53664L15.376 4.392ZM46.96 4.392L46.442 5.24737L46.4473 5.25054L46.96 4.392ZM57.712 16.392L56.8132 16.8304L56.8176 16.8392L57.712 16.392ZM57.712 54.408L56.8175 53.9608L56.8132 53.9696L57.712 54.408ZM46.96 66.408L46.4473 65.5494L46.442 65.5526L46.96 66.408ZM37.84 45.576L36.8776 45.3045L36.8743 45.316L36.8713 45.3276L37.84 45.576ZM37.84 25.224L36.8713 25.4724L36.8752 25.4873L36.8794 25.5021L37.84 25.224ZM35.152 19.944L35.8164 19.1966L35.152 19.944ZM27.28 19.944L26.6156 19.1966L27.28 19.944ZM24.496 25.224L23.5336 24.9525L23.5312 24.961L23.5289 24.9695L24.496 25.224ZM24.496 45.576L23.5273 45.8244L23.5303 45.836L23.5336 45.8475L24.496 45.576ZM31.216 69.536C25.4243 69.536 20.3252 68.199 15.8887 65.5495L14.8633 67.2665C19.6428 70.121 25.1037 71.536 31.216 71.536V69.536ZM15.894 65.5526C11.5281 62.9085 8.06713 59.0582 5.51843 53.9608L3.72957 54.8552C6.42887 60.2538 10.1359 64.4035 14.858 67.2634L15.894 65.5526ZM5.52277 53.9696C3.04494 48.89 1.784 42.7121 1.784 35.4H-0.216C-0.216 42.9359 1.08306 49.43 3.72523 54.8464L5.52277 53.9696ZM1.784 35.4C1.784 28.0879 3.04494 21.91 5.52277 16.8304L3.72523 15.9536C1.08306 21.37 -0.216 27.8641 -0.216 35.4H1.784ZM5.51843 16.8392C8.06713 11.7418 11.5281 7.8915 15.894 5.24736L14.858 3.53664C10.1359 6.39649 6.42887 10.5462 3.72957 15.9448L5.51843 16.8392ZM15.8887 5.25054C20.3252 2.60096 25.4243 1.264 31.216 1.264V-0.736002C25.1037 -0.736002 19.6428 0.679033 14.8633 3.53345L15.8887 5.25054ZM31.216 1.264C37.0079 1.264 42.0724 2.60102 46.442 5.24736L47.478 3.53664C42.7596 0.678975 37.3281 -0.736002 31.216 -0.736002V1.264ZM46.4473 5.25054C50.8739 7.89421 54.3306 11.741 56.8132 16.8304L58.6108 15.9536C55.9734 10.547 52.2621 6.39378 47.4727 3.53345L46.4473 5.25054ZM56.8176 16.8392C59.3562 21.9165 60.648 28.0912 60.648 35.4H62.648C62.648 27.8608 61.3158 21.3635 58.6064 15.9448L56.8176 16.8392ZM60.648 35.4C60.648 42.7088 59.3562 48.8835 56.8176 53.9608L58.6064 54.8552C61.3158 49.4365 62.648 42.9392 62.648 35.4H60.648ZM56.8132 53.9696C54.3306 59.059 50.8739 62.9058 46.4473 65.5495L47.4727 67.2665C52.2621 64.4062 55.9734 60.253 58.6108 54.8464L56.8132 53.9696ZM46.442 65.5526C42.0724 68.199 37.0079 69.536 31.216 69.536V71.536C37.3281 71.536 42.7596 70.121 47.478 67.2634L46.442 65.5526ZM31.216 53.392C32.9452 53.392 34.4907 52.7817 35.8164 51.6034L34.4876 50.1086C33.5093 50.9783 32.4308 51.392 31.216 51.392V53.392ZM35.8164 51.6034C37.187 50.385 38.1491 48.3969 38.8087 45.8244L36.8713 45.3276C36.2509 47.7471 35.421 49.279 34.4876 50.1086L35.8164 51.6034ZM38.8025 45.8475C39.5423 43.2244 39.896 39.7283 39.896 35.4H37.896C37.896 39.6477 37.5457 42.9355 36.8776 45.3045L38.8025 45.8475ZM39.896 35.4C39.896 31.0111 39.5429 27.5104 38.8006 24.9459L36.8794 25.5021C37.5451 27.8016 37.896 31.0849 37.896 35.4H39.896ZM38.8087 24.9756C38.1491 22.4031 37.187 20.415 35.8164 19.1966L34.4876 20.6914C35.421 21.521 36.2509 23.0529 36.8713 25.4724L38.8087 24.9756ZM35.8164 19.1966C34.4907 18.0183 32.9452 17.408 31.216 17.408V19.408C32.4308 19.408 33.5093 19.8217 34.4876 20.6914L35.8164 19.1966ZM31.216 17.408C29.4868 17.408 27.9413 18.0183 26.6156 19.1966L27.9444 20.6914C28.9227 19.8217 30.0012 19.408 31.216 19.408V17.408ZM26.6156 19.1966C25.2536 20.4073 24.2579 22.3845 23.5336 24.9525L25.4585 25.4955C26.1421 23.0715 27.0024 21.5287 27.9444 20.6914L26.6156 19.1966ZM23.5289 24.9695C22.8568 27.5235 22.536 31.0148 22.536 35.4H24.536C24.536 31.0812 24.8552 27.7885 25.4631 25.4785L23.5289 24.9695ZM22.536 35.4C22.536 39.7243 22.8573 43.2114 23.5273 45.8244L25.4647 45.3276C24.8547 42.9486 24.536 39.6517 24.536 35.4H22.536ZM23.5336 45.8475C24.2579 48.4155 25.2536 50.3927 26.6156 51.6034L27.9444 50.1086C27.0024 49.2713 26.1421 47.7285 25.4585 45.3045L23.5336 45.8475ZM26.6156 51.6034C27.9413 52.7817 29.4868 53.392 31.216 53.392V51.392C30.0012 51.392 28.9227 50.9783 27.9444 50.1086L26.6156 51.6034ZM73.9352 69L73.7239 69.9774L73.9352 69ZM61.4552 64.488L60.5467 64.0703L60.159 64.9134L60.9709 65.3629L61.4552 64.488ZM69.1353 47.784L69.6355 46.9181L68.6852 46.369L68.2267 47.3663L69.1353 47.784ZM78.1592 51.528L77.9028 52.4946L77.9143 52.4976L77.9259 52.5004L78.1592 51.528ZM93.4232 51.432L93.8846 52.3192L93.891 52.3159L93.8974 52.3125L93.4232 51.432ZM94.0953 44.136L93.5306 44.9613L93.5457 44.9717L93.5613 44.9815L94.0953 44.136ZM79.0232 42.888H78.0232V43.888H79.0232V42.888ZM79.0232 28.968L78.3104 28.2667L78.0232 28.5586V28.968H79.0232ZM96.3993 11.304L97.3657 11.0471L96.9154 9.35328L95.6864 10.6027L96.3993 11.304ZM98.4153 18.888V19.888H99.7158L99.3817 18.6311L98.4153 18.888ZM64.9112 18.888H63.9112V19.888H64.9112V18.888ZM64.9112 1.8V0.799995H63.9112V1.8H64.9112ZM115.023 1.8H116.023V0.799995H115.023V1.8ZM115.023 15.72L115.736 16.4213L116.023 16.1294V15.72H115.023ZM97.6473 33.384L97.1544 34.2541L97.8221 34.6323L98.3601 34.0853L97.6473 33.384ZM86.7993 27.24V26.24H83.0045L86.3064 28.1101L86.7993 27.24ZM115.407 58.536L114.557 58.0101L114.55 58.0215L115.407 58.536ZM105.423 67.176L104.981 66.279L104.976 66.2816L105.423 67.176ZM87.9512 69.536C83.4179 69.536 78.8167 69.0323 74.1466 68.0226L73.7239 69.9774C78.5258 71.0157 83.2687 71.536 87.9512 71.536V69.536ZM74.1466 68.0226C69.4892 67.0156 65.4241 65.5421 61.9396 63.6131L60.9709 65.3629C64.6544 67.4019 68.9093 68.9364 73.7239 69.9774L74.1466 68.0226ZM62.3638 64.9057L70.0438 48.2017L68.2267 47.3663L60.5467 64.0703L62.3638 64.9057ZM68.635 48.6499C71.5895 50.3569 74.6793 51.6393 77.9028 52.4946L78.4157 50.5614C75.3672 49.7527 72.441 48.5391 69.6355 46.9181L68.635 48.6499ZM77.9259 52.5004C81.1898 53.2837 84.2768 53.68 87.1833 53.68V51.68C84.4577 51.68 81.5287 51.3083 78.3926 50.5556L77.9259 52.5004ZM87.1833 53.68C89.8407 53.68 92.095 53.2498 93.8846 52.3192L92.9619 50.5448C91.5515 51.2782 89.6458 51.68 87.1833 51.68V53.68ZM93.8974 52.3125C94.8478 51.8007 95.614 51.1407 96.1398 50.3115C96.6685 49.4778 96.9193 48.5277 96.9193 47.496H94.9193C94.9193 48.1923 94.754 48.7622 94.4507 49.2405C94.1445 49.7233 93.6627 50.1673 92.9492 50.5515L93.8974 52.3125ZM96.9193 47.496C96.9193 45.6907 96.1435 44.2469 94.6292 43.2905L93.5613 44.9815C94.479 45.5611 94.9193 46.3573 94.9193 47.496H96.9193ZM94.6599 43.3107C93.1815 42.2991 90.8716 41.888 87.9512 41.888V43.888C90.7909 43.888 92.577 44.3089 93.5306 44.9613L94.6599 43.3107ZM87.9512 41.888H79.0232V43.888H87.9512V41.888ZM80.0232 42.888V28.968H78.0232V42.888H80.0232ZM79.7361 29.6693L97.1121 12.0053L95.6864 10.6027L78.3104 28.2667L79.7361 29.6693ZM95.4328 11.5609L97.4488 19.1449L99.3817 18.6311L97.3657 11.0471L95.4328 11.5609ZM98.4153 17.888H64.9112V19.888H98.4153V17.888ZM65.9112 18.888V1.8H63.9112V18.888H65.9112ZM64.9112 2.8H115.023V0.799995H64.9112V2.8ZM114.023 1.8V15.72H116.023V1.8H114.023ZM114.31 15.0187L96.9344 32.6827L98.3601 34.0853L115.736 16.4213L114.31 15.0187ZM98.1401 32.5139L87.2921 26.3699L86.3064 28.1101L97.1544 34.2541L98.1401 32.5139ZM86.7993 28.24H92.7513V26.24H86.7993V28.24ZM92.7513 28.24C101.067 28.24 107.229 30.1 111.397 33.664L112.697 32.144C108.033 28.156 101.332 26.24 92.7513 26.24V28.24ZM111.397 33.664C115.585 37.2448 117.671 41.8281 117.671 47.496H119.671C119.671 41.2599 117.341 36.1152 112.697 32.144L111.397 33.664ZM117.671 47.496C117.671 51.1358 116.643 54.6354 114.557 58.0102L116.258 59.0618C118.524 55.3966 119.671 51.5362 119.671 47.496H117.671ZM114.55 58.0215C112.557 61.342 109.393 64.1041 104.981 66.2791L105.865 68.0729C110.541 65.7679 114.033 62.77 116.265 59.0505L114.55 58.0215ZM104.976 66.2816C100.682 68.4288 95.0264 69.536 87.9512 69.536V71.536C95.2121 71.536 101.205 70.4032 105.87 68.0704L104.976 66.2816Z" fill="#1D4ED8" mask="url(#path-1-outside-1_3183_4699)"/>
</g>
</svg>
