<svg width="60" height="68" viewBox="0 0 60 68" fill="none" xmlns="http://www.w3.org/2000/svg">
<path fill-rule="evenodd" clip-rule="evenodd" d="M5.36724 59.8187V24.8769H2.88113V24.8734H2.86341C1.9374 24.8776 1.25031 25.2426 0.798478 25.7875C0.323161 26.3954 0.0719996 27.1487 0.0873365 27.9202H0.0838212V27.942C0.0837964 28.0148 0.0752062 28.0873 0.0582275 28.1581V60.7293C0.868915 60.1147 1.86414 59.7935 2.88113 59.818L5.36724 59.8187Z" fill="#134A8E"/>
<path fill-rule="evenodd" clip-rule="evenodd" d="M28.2448 36.7628V37.1881C28.2459 37.3712 28.3192 37.5466 28.4487 37.6761C28.5783 37.8056 28.7536 37.8789 28.9368 37.8801H36.5165C36.6996 37.8789 36.875 37.8056 37.0045 37.6761C37.1341 37.5466 37.2074 37.3713 37.2086 37.1881V36.7628C37.1404 36.7668 37.0718 36.7688 37.0029 36.7689H28.4503C28.3813 36.7689 28.3128 36.7668 28.2448 36.7628Z" fill="#134A8E"/>
<path fill-rule="evenodd" clip-rule="evenodd" d="M30.0476 39.7258V40.0726C30.0488 40.2558 30.1221 40.4311 30.2515 40.5606C30.381 40.6901 30.5563 40.7634 30.7395 40.7646H34.7148C34.898 40.7634 35.0733 40.6901 35.2027 40.5606C35.3322 40.4311 35.4055 40.2558 35.4067 40.0726V39.7258H30.0476Z" fill="#134A8E"/>
<path fill-rule="evenodd" clip-rule="evenodd" d="M37.2523 39.617V40.0727C37.251 40.7454 36.9833 41.3901 36.5077 41.8657C36.032 42.3414 35.3873 42.6092 34.7147 42.6105H30.7394C30.0667 42.6091 29.422 42.3413 28.9464 41.8657C28.4708 41.3901 28.203 40.7454 28.2017 40.0727V39.617C27.6811 39.4579 27.2252 39.1362 26.9008 38.6991C26.5764 38.262 26.4006 37.7324 26.3991 37.1881V36.1064C26.2448 35.9951 26.0996 35.8716 25.965 35.7371C25.6379 35.4112 25.3783 35.0238 25.2013 34.5973C25.0243 34.1707 24.9332 33.7134 24.9334 33.2516C24.9334 30.7371 24.4508 29.317 23.8295 28.2418H7.21295V60.7411C7.21295 60.9859 7.11572 61.2206 6.94264 61.3937C6.76956 61.5668 6.53481 61.664 6.29003 61.664H2.88114C1.54352 61.664 0.689361 62.4296 0.317408 63.4093C0.0106523 64.2473 0.0106523 65.1669 0.317408 66.0048C0.689361 66.9846 1.54352 67.7501 2.88114 67.7501H59.9417V28.2418H41.6246C41.0033 29.317 40.5207 30.7371 40.5207 33.2516C40.5209 33.7134 40.4298 34.1707 40.2528 34.5973C40.0757 35.0238 39.8161 35.4112 39.4889 35.7371C39.3544 35.8717 39.2093 35.9952 39.055 36.1064V37.1881C39.0535 37.7325 38.8777 38.262 38.5533 38.6992C38.2289 39.1363 37.7729 39.458 37.2523 39.617ZM17.4911 56.2978C18.1755 56.5234 18.7567 56.9862 19.1299 57.6026C19.5032 58.219 19.6439 58.9485 19.5267 59.6595C19.4095 60.3705 19.0421 61.0162 18.4908 61.4802C17.9395 61.9442 17.2405 62.196 16.5199 62.19C15.7993 62.1841 15.1046 61.9209 14.561 61.4479C14.0173 60.9749 13.6606 60.3232 13.5551 59.6103C13.4497 58.8975 13.6024 58.1704 13.9857 57.5602C14.3691 56.9501 14.9578 56.4969 15.6458 56.2826L15.6482 56.2453C15.8833 52.4922 17.7716 49.8723 20.4868 48.1875C23.1098 46.5605 26.5056 45.8378 29.8882 45.8284C30.4403 45.8269 30.9736 45.8424 31.4882 45.8748C31.9093 45.9012 32.3512 45.9145 32.8139 45.9146C35.9124 45.9146 39.0035 45.2347 41.3528 43.7658C43.2433 42.5837 44.6524 40.8735 45.1741 38.5748L44.0069 39.4845C43.9118 39.5588 43.8029 39.6137 43.6866 39.646C43.5702 39.6782 43.4486 39.6872 43.3288 39.6725C43.209 39.6578 43.0932 39.6196 42.9881 39.5602C42.883 39.5007 42.7907 39.4211 42.7163 39.326C42.642 39.2308 42.5872 39.1219 42.5549 39.0056C42.5226 38.8892 42.5136 38.7677 42.5283 38.6478C42.543 38.528 42.5812 38.4122 42.6407 38.3071C42.7002 38.202 42.7797 38.1097 42.8749 38.0354L45.6891 35.8416C45.8596 35.6835 46.0837 35.5956 46.3163 35.5956C46.5489 35.5956 46.7729 35.6835 46.9435 35.8416L49.7578 38.0361C49.856 38.1093 49.9386 38.2014 50.0007 38.307C50.0629 38.4126 50.1033 38.5295 50.1196 38.6509C50.1359 38.7723 50.1277 38.8958 50.0956 39.014C50.0636 39.1322 50.0082 39.2429 49.9327 39.3394C49.8573 39.4359 49.7633 39.5164 49.6563 39.5761C49.5494 39.6358 49.4315 39.6735 49.3098 39.687C49.188 39.7005 49.0648 39.6896 48.9473 39.6548C48.8299 39.62 48.7205 39.5621 48.6258 39.4845L47.1032 38.2979C46.611 41.4645 44.811 43.7767 42.326 45.3303C39.6692 46.9914 36.2304 47.7603 32.8139 47.7603C32.3521 47.7603 31.8708 47.7445 31.3729 47.7133C30.8624 47.6813 30.3663 47.6656 29.8882 47.6669C26.8225 47.6754 23.771 48.3138 21.4529 49.752C19.2426 51.1231 17.701 53.2518 17.4911 56.2972V56.2978ZM19.6136 38.8919C19.7855 39.0652 19.8818 39.2996 19.8813 39.5437C19.8808 39.7878 19.7836 40.0218 19.611 40.1944C19.4384 40.367 19.2044 40.4642 18.9603 40.4647C18.7162 40.4651 18.4818 40.3689 18.3085 40.1969L16.545 38.4331L14.7811 40.1968C14.6074 40.3667 14.3737 40.4612 14.1307 40.4598C13.8878 40.4585 13.6552 40.3613 13.4834 40.1895C13.3116 40.0177 13.2145 39.7851 13.2131 39.5421C13.2118 39.2991 13.3064 39.0655 13.4763 38.8918L15.24 37.1282L13.4765 35.3642C13.3066 35.1905 13.2121 34.9568 13.2134 34.7139C13.2148 34.4709 13.3119 34.2383 13.4837 34.0665C13.6554 33.8946 13.8881 33.7975 14.131 33.7962C14.374 33.7948 14.6077 33.8893 14.7814 34.0592L16.5453 35.8229L18.3088 34.0592C18.4821 33.8872 18.7165 33.791 18.9606 33.7914C19.2047 33.7919 19.4387 33.8891 19.6113 34.0617C19.7839 34.2343 19.8811 34.4683 19.8816 34.7124C19.8821 34.9566 19.7858 35.1909 19.6138 35.3642L17.85 37.1282L19.6136 38.8919ZM49.385 60.2513C49.4722 60.3366 49.5417 60.4384 49.5893 60.5508C49.637 60.6631 49.6619 60.7838 49.6626 60.9059C49.6632 61.0279 49.6397 61.1489 49.5933 61.2618C49.5469 61.3746 49.4786 61.4772 49.3923 61.5635C49.306 61.6498 49.2035 61.7181 49.0906 61.7645C48.9777 61.8109 48.8568 61.8345 48.7347 61.8338C48.6127 61.8331 48.492 61.8083 48.3796 61.7606C48.2673 61.713 48.1655 61.6435 48.0801 61.5563L46.3164 59.7926L44.5527 61.5563C44.3794 61.7283 44.145 61.8245 43.9009 61.8241C43.6568 61.8236 43.4228 61.7264 43.2502 61.5538C43.0776 61.3812 42.9804 61.1472 42.9799 60.9031C42.9795 60.659 43.0757 60.4246 43.2477 60.2513L45.0114 58.4876L43.2477 56.7239C43.0757 56.5506 42.9795 56.3162 42.9799 56.0721C42.9804 55.828 43.0776 55.594 43.2502 55.4214C43.4228 55.2488 43.6568 55.1516 43.9009 55.1511C44.145 55.1506 44.3794 55.2469 44.5527 55.4189L46.3164 57.1826L48.0801 55.4189C48.2538 55.249 48.4875 55.1545 48.7305 55.1558C48.9735 55.1572 49.2061 55.2543 49.3779 55.4261C49.5497 55.5979 49.6468 55.8306 49.6481 56.0735C49.6494 56.3165 49.5549 56.5502 49.385 56.7239L47.6213 58.4876L49.385 60.2513Z" fill="#134A8E"/>
<path fill-rule="evenodd" clip-rule="evenodd" d="M33.6494 4.20269C33.6494 4.32389 33.6255 4.4439 33.5791 4.55587C33.5327 4.66785 33.4648 4.76959 33.3791 4.85529C33.2934 4.94099 33.1916 5.00898 33.0796 5.05536C32.9677 5.10174 32.8476 5.12561 32.7264 5.12561C32.6052 5.12561 32.4852 5.10174 32.3733 5.05536C32.2613 5.00898 32.1595 4.94099 32.0738 4.85529C31.9881 4.76959 31.9202 4.66785 31.8738 4.55587C31.8274 4.4439 31.8035 4.32389 31.8035 4.20269V1.17292C31.8035 1.05172 31.8274 0.931709 31.8738 0.819735C31.9202 0.707761 31.9881 0.606019 32.0738 0.520318C32.1595 0.434616 32.2613 0.366635 32.3733 0.320253C32.4852 0.273872 32.6052 0.25 32.7264 0.25C32.8476 0.25 32.9677 0.273872 33.0796 0.320253C33.1916 0.366635 33.2934 0.434616 33.3791 0.520318C33.4648 0.606019 33.5327 0.707761 33.5791 0.819735C33.6255 0.931709 33.6494 1.05172 33.6494 1.17292V4.20269Z" fill="#134A8E"/>
<path fill-rule="evenodd" clip-rule="evenodd" d="M25.6537 5.93371C25.7726 6.1448 25.8036 6.39426 25.7398 6.628C25.676 6.86174 25.5227 7.06093 25.313 7.18235C25.1033 7.30378 24.8543 7.33767 24.6198 7.27667C24.3853 7.21567 24.1843 7.0647 24.0604 6.85649L22.5455 4.23257C22.4832 4.12788 22.4423 4.01187 22.4251 3.89126C22.408 3.77065 22.4149 3.64784 22.4456 3.52994C22.4763 3.41204 22.53 3.3014 22.6038 3.20443C22.6775 3.10746 22.7698 3.0261 22.8752 2.96504C22.9806 2.90398 23.0971 2.86446 23.2179 2.84875C23.3387 2.83304 23.4614 2.84147 23.579 2.87353C23.6965 2.9056 23.8065 2.96067 23.9026 3.03556C23.9987 3.11044 24.0789 3.20365 24.1387 3.30979L25.6537 5.93371Z" fill="#134A8E"/>
<path fill-rule="evenodd" clip-rule="evenodd" d="M19.5951 11.4323C19.7008 11.4919 19.7935 11.5718 19.8681 11.6674C19.9427 11.763 19.9976 11.8725 20.0297 11.9894C20.0618 12.1064 20.0704 12.2285 20.0551 12.3488C20.0397 12.4691 20.0007 12.5852 19.9403 12.6904C19.8799 12.7955 19.7992 12.8876 19.703 12.9615C19.6068 13.0353 19.4969 13.0894 19.3797 13.1205C19.2625 13.1517 19.1403 13.1593 19.0201 13.143C18.9 13.1267 18.7842 13.0868 18.6795 13.0256L16.0556 11.5108C15.8443 11.3893 15.6899 11.189 15.6263 10.9537C15.5628 10.7184 15.5953 10.4675 15.7167 10.2562C15.8381 10.0449 16.0385 9.89053 16.2738 9.82697C16.509 9.76341 16.7599 9.79592 16.9712 9.91733L19.5951 11.4323Z" fill="#134A8E"/>
<path fill-rule="evenodd" clip-rule="evenodd" d="M17.1011 19.2182C17.3439 19.2212 17.5757 19.3198 17.7463 19.4925C17.917 19.6652 18.0127 19.8983 18.0127 20.1411C18.0127 20.3839 17.917 20.6169 17.7463 20.7896C17.5757 20.9624 17.3439 21.0609 17.1011 21.0639H14.0712C13.9491 21.0654 13.8278 21.0427 13.7145 20.997C13.6013 20.9513 13.4982 20.8835 13.4113 20.7977C13.3243 20.7118 13.2553 20.6096 13.2082 20.4969C13.1612 20.3842 13.1369 20.2632 13.1369 20.1411C13.1369 20.0189 13.1612 19.898 13.2082 19.7852C13.2553 19.6725 13.3243 19.5703 13.4113 19.4844C13.4982 19.3986 13.6013 19.3309 13.7145 19.2852C13.8278 19.2395 13.9491 19.2167 14.0712 19.2182H17.1011Z" fill="#134A8E"/>
<path fill-rule="evenodd" clip-rule="evenodd" d="M48.6651 20.7517C48.4203 20.7517 48.1856 20.6545 48.0125 20.4814C47.8394 20.3083 47.7422 20.0736 47.7422 19.8288C47.7422 19.584 47.8394 19.3493 48.0125 19.1762C48.1856 19.0031 48.4203 18.9059 48.6651 18.9059H51.6949C51.9396 18.9059 52.1744 19.0031 52.3475 19.1762C52.5206 19.3493 52.6178 19.584 52.6178 19.8288C52.6178 20.0736 52.5206 20.3083 52.3475 20.4814C52.1744 20.6545 51.9396 20.7517 51.6949 20.7517H48.6651Z" fill="#134A8E"/>
<path fill-rule="evenodd" clip-rule="evenodd" d="M46.934 12.7554C46.7229 12.8743 46.4735 12.9052 46.2397 12.8415C46.006 12.7777 45.8068 12.6243 45.6854 12.4147C45.5639 12.205 45.5301 11.9559 45.5911 11.7215C45.6521 11.487 45.803 11.286 46.0112 11.1621L48.6352 9.64713C48.8462 9.52819 49.0957 9.49726 49.3295 9.56103C49.5632 9.62481 49.7624 9.77815 49.8838 9.98782C50.0052 10.1975 50.0391 10.4466 49.9781 10.681C49.9171 10.9155 49.7661 11.1165 49.5579 11.2404L46.934 12.7554Z" fill="#134A8E"/>
<path fill-rule="evenodd" clip-rule="evenodd" d="M41.4358 6.69691C41.3762 6.80253 41.2963 6.89531 41.2006 6.9699C41.105 7.04448 40.9956 7.0994 40.8786 7.13149C40.7617 7.16357 40.6395 7.17219 40.5192 7.15684C40.3989 7.14149 40.2828 7.10247 40.1777 7.04205C40.0726 6.98162 39.9804 6.90098 39.9066 6.80477C39.8327 6.70856 39.7787 6.59869 39.7475 6.48149C39.7164 6.36429 39.7087 6.24208 39.725 6.1219C39.7413 6.00173 39.7812 5.88597 39.8425 5.7813L41.3574 3.15738C41.417 3.05176 41.4969 2.95898 41.5926 2.88439C41.6882 2.80981 41.7976 2.75489 41.9146 2.7228C42.0315 2.69072 42.1537 2.6821 42.274 2.69745C42.3943 2.7128 42.5104 2.75182 42.6155 2.81224C42.7207 2.87267 42.8128 2.95331 42.8866 3.04952C42.9605 3.14573 43.0145 3.2556 43.0457 3.3728C43.0768 3.49 43.0845 3.61222 43.0682 3.73239C43.0519 3.85256 43.012 3.96832 42.9507 4.07299L41.4358 6.69691Z" fill="#134A8E"/>
<path fill-rule="evenodd" clip-rule="evenodd" d="M29.6031 23.7715H30.2905V23.0841C30.2905 22.9482 30.2502 22.8152 30.1747 22.7021C30.0992 22.589 29.9918 22.5009 29.8661 22.4488C29.7405 22.3968 29.6023 22.3832 29.4689 22.4097C29.3355 22.4362 29.213 22.5017 29.1168 22.5979C29.0207 22.694 28.9552 22.8165 28.9287 22.9499C28.9021 23.0833 28.9158 23.2215 28.9678 23.3472C29.0199 23.4728 29.108 23.5802 29.2211 23.6557C29.3342 23.7312 29.4671 23.7715 29.6031 23.7715Z" fill="#134A8E"/>
<path fill-rule="evenodd" clip-rule="evenodd" d="M35.4754 23.0841V23.7715H36.1628C36.2988 23.7715 36.4317 23.7312 36.5448 23.6557C36.6579 23.5802 36.746 23.4728 36.7981 23.3472C36.8501 23.2215 36.8638 23.0833 36.8372 22.9499C36.8107 22.8165 36.7452 22.694 36.6491 22.5979C36.5529 22.5017 36.4304 22.4362 36.297 22.4097C36.1636 22.3832 36.0254 22.3968 35.8998 22.4488C35.7741 22.5009 35.6667 22.589 35.5912 22.7021C35.5157 22.8152 35.4754 22.9482 35.4754 23.0841Z" fill="#134A8E"/>
<path fill-rule="evenodd" clip-rule="evenodd" d="M30.2902 34.9232V25.6173H29.6028C29.1019 25.6172 28.6122 25.4686 28.1957 25.1903C27.7792 24.912 27.4546 24.5163 27.2629 24.0535C27.0713 23.5907 27.0211 23.0814 27.1189 22.5901C27.2166 22.0988 27.4579 21.6475 27.8121 21.2933C28.1664 20.939 28.6177 20.6978 29.109 20.6001C29.6003 20.5024 30.1096 20.5525 30.5724 20.7442C31.0352 20.9359 31.4308 21.2606 31.7091 21.6771C31.9875 22.0936 32.136 22.5833 32.1361 23.0842V23.7716H33.6296V23.0842C33.6296 22.5832 33.7782 22.0934 34.0565 21.6768C34.3348 21.2602 34.7305 20.9355 35.1933 20.7437C35.6562 20.552 36.1656 20.5018 36.657 20.5995C37.1484 20.6973 37.5998 20.9385 37.9541 21.2928C38.3084 21.6471 38.5496 22.0984 38.6474 22.5898C38.7451 23.0812 38.695 23.5906 38.5033 24.0535C38.3115 24.5164 37.9868 24.912 37.5703 25.1904C37.1537 25.4687 36.6639 25.6173 36.1629 25.6173H35.4755V34.9232H37.0029C37.4459 34.9219 37.8703 34.7453 38.1835 34.4321C38.4967 34.1189 38.6732 33.6945 38.6744 33.2516C38.6744 29.9144 39.4197 28.2146 40.3044 26.8732C40.3295 26.8277 40.3584 26.7843 40.3909 26.7437C40.5947 26.4428 40.8045 26.1583 41.0134 25.8751C41.933 24.6289 42.8305 23.4127 42.8305 20.3366C42.8375 19.0052 42.5813 17.6856 42.0767 16.4536C41.5721 15.2215 40.8289 14.1014 39.89 13.1575C38.9511 12.2136 37.8349 11.4645 36.6055 10.9534C35.3762 10.4423 34.0579 10.1792 32.7265 10.1792C31.3952 10.1792 30.0769 10.4423 28.8476 10.9534C27.6182 11.4645 26.502 12.2136 25.5631 13.1575C24.6242 14.1014 23.881 15.2215 23.3764 16.4536C22.8718 17.6856 22.6156 19.0052 22.6226 20.3366C22.6226 23.4127 23.5201 24.6289 24.4397 25.8751C24.6486 26.1583 24.8584 26.4428 25.0622 26.7437C25.0946 26.7844 25.1235 26.8277 25.1487 26.8732C26.0334 28.2146 26.7787 29.9144 26.7787 33.2516C26.7799 33.6945 26.9564 34.1189 27.2696 34.4321C27.5828 34.7453 28.0072 34.9219 28.4501 34.9232H30.2902Z" fill="#134A8E"/>
</svg>
