<svg width="52" height="52" viewBox="0 0 52 52" fill="none" xmlns="http://www.w3.org/2000/svg">
<path d="M50.305 8.39962V46.952C50.305 47.8411 49.9518 48.6938 49.3231 49.3225C48.6944 49.9512 47.8417 50.3044 46.9526 50.3044H5.04782C4.15871 50.3044 3.30602 49.9512 2.67732 49.3225C2.04863 48.6938 1.69543 47.8411 1.69543 46.952V8.39962L2.53353 7.56152H49.4669L50.305 8.39962Z" fill="#E3F0FF"/>
<path d="M50.305 5.04721V8.39959H1.69543V5.04721C1.69543 4.1581 2.04863 3.30541 2.67732 2.67671C3.30602 2.04802 4.15871 1.69482 5.04782 1.69482H46.9526C47.8417 1.69482 48.6944 2.04802 49.3231 2.67671C49.9518 3.30541 50.305 4.1581 50.305 5.04721Z" fill="#11117F"/>
<path d="M43.5326 27.844C43.5124 27.6575 43.4416 27.4801 43.3279 27.3309C43.2142 27.1817 43.0618 27.0664 42.8873 26.9975L40.834 26.1762C40.4526 24.373 39.7392 22.6565 38.7303 21.1141L39.602 19.0775C39.6795 18.9058 39.7073 18.7158 39.6821 18.5291C39.6569 18.3424 39.5798 18.1665 39.4595 18.0215C38.8098 17.2545 38.0978 16.5425 37.3307 15.8928C37.1857 15.7725 37.0099 15.6954 36.8232 15.6702C36.6364 15.645 36.4464 15.6728 36.2747 15.7503L34.2382 16.6219C32.6958 15.613 30.9792 14.8997 29.1761 14.5183L28.3547 12.465C28.2859 12.2905 28.1706 12.1381 28.0214 12.0244C27.8722 11.9106 27.6948 11.8398 27.5083 11.8196C26.5047 11.7274 25.4947 11.7274 24.4911 11.8196C24.3046 11.8398 24.1272 11.9106 23.978 12.0244C23.8288 12.1381 23.7135 12.2905 23.6446 12.465L22.8233 14.5183C21.0201 14.8997 19.3036 15.613 17.7612 16.6219L15.7246 15.7503C15.5529 15.6728 15.3629 15.645 15.1762 15.6702C14.9895 15.6954 14.8136 15.7725 14.6686 15.8928C13.8996 16.5403 13.1874 17.2525 12.5399 18.0215C12.4196 18.1665 12.3425 18.3424 12.3173 18.5291C12.2921 18.7158 12.3199 18.9058 12.3974 19.0775L13.269 21.1141C12.2601 22.6565 11.5468 24.373 11.1654 26.1762L9.11207 26.9975C8.93757 27.0664 8.78521 27.1817 8.67147 27.3309C8.55773 27.4801 8.48693 27.6575 8.46673 27.844C8.37453 28.8476 8.37453 29.8576 8.46673 30.8612C8.48693 31.0477 8.55773 31.2251 8.67147 31.3743C8.78521 31.5235 8.93757 31.6388 9.11207 31.7076L11.1654 32.529C11.5468 34.3321 12.2601 36.0487 13.269 37.5911L12.3974 39.6276C12.3199 39.7993 12.2921 39.9894 12.3173 40.1761C12.3425 40.3628 12.4196 40.5386 12.5399 40.6836C13.1896 41.4507 13.9016 42.1627 14.6686 42.8124C14.8136 42.9327 14.9895 43.0098 15.1762 43.035C15.3629 43.0602 15.5529 43.0324 15.7246 42.9549L17.7612 42.0833C19.3036 43.0921 21.0201 43.8055 22.8233 44.1869L23.6446 46.2402C23.7135 46.4147 23.8288 46.5671 23.978 46.6808C24.1272 46.7945 24.3046 46.8653 24.4911 46.8855C25.4947 46.9777 26.5047 46.9777 27.5083 46.8855C27.6948 46.8653 27.8722 46.7945 28.0214 46.6808C28.1706 46.5671 28.2859 46.4147 28.3547 46.2402L29.1761 44.1869C30.9792 43.8055 32.6958 43.0921 34.2382 42.0833L36.2747 42.9549C36.4464 43.0324 36.6364 43.0602 36.8232 43.035C37.0099 43.0098 37.1857 42.9327 37.3307 42.8124C38.0978 42.1627 38.8098 41.4507 39.4595 40.6836C39.5798 40.5386 39.6569 40.3628 39.6821 40.1761C39.7073 39.9894 39.6795 39.7993 39.602 39.6276L38.7303 37.5911C39.7392 36.0487 40.4526 34.3321 40.834 32.529L42.8873 31.7076C43.0618 31.6388 43.2142 31.5235 43.3279 31.3743C43.4416 31.2251 43.5124 31.0477 43.5326 30.8612C43.6248 29.8576 43.6248 28.8476 43.5326 27.844ZM25.9997 41.0859C23.679 41.0859 21.4105 40.3978 19.481 39.1085C17.5515 37.8192 16.0476 35.9867 15.1595 33.8427C14.2714 31.6988 14.0391 29.3396 14.4918 27.0635C14.9445 24.7875 16.062 22.6968 17.703 21.0559C19.3439 19.4149 21.4346 18.2974 23.7106 17.8447C25.9867 17.392 28.3458 17.6243 30.4898 18.5124C32.6338 19.4005 34.4663 20.9044 35.7556 22.8339C37.0449 24.7634 37.733 27.032 37.733 29.3526C37.733 32.4645 36.4968 35.4489 34.2964 37.6493C32.096 39.8497 29.1116 41.0859 25.9997 41.0859Z" fill="#11117F"/>
<path d="M6.72355 5.88566H5.88546C5.66318 5.88566 5.45001 5.79736 5.29284 5.64019C5.13566 5.48302 5.04736 5.26984 5.04736 5.04757C5.04736 4.82529 5.13566 4.61212 5.29284 4.45495C5.45001 4.29777 5.66318 4.20947 5.88546 4.20947H6.72355C6.94583 4.20947 7.159 4.29777 7.31618 4.45495C7.47335 4.61212 7.56165 4.82529 7.56165 5.04757C7.56165 5.26984 7.47335 5.48302 7.31618 5.64019C7.159 5.79736 6.94583 5.88566 6.72355 5.88566Z" fill="white"/>
<path d="M10.9136 5.88566H10.0755C9.85325 5.88566 9.64007 5.79736 9.4829 5.64019C9.32573 5.48302 9.23743 5.26984 9.23743 5.04757C9.23743 4.82529 9.32573 4.61212 9.4829 4.45495C9.64007 4.29777 9.85325 4.20947 10.0755 4.20947H10.9136C11.1359 4.20947 11.3491 4.29777 11.5062 4.45495C11.6634 4.61212 11.7517 4.82529 11.7517 5.04757C11.7517 5.26984 11.6634 5.48302 11.5062 5.64019C11.3491 5.79736 11.1359 5.88566 10.9136 5.88566Z" fill="white"/>
<path d="M15.1045 5.88566H14.2664C14.0442 5.88566 13.831 5.79736 13.6738 5.64019C13.5166 5.48302 13.4283 5.26984 13.4283 5.04757C13.4283 4.82529 13.5166 4.61212 13.6738 4.45495C13.831 4.29777 14.0442 4.20947 14.2664 4.20947H15.1045C15.3268 4.20947 15.54 4.29777 15.6972 4.45495C15.8543 4.61212 15.9426 4.82529 15.9426 5.04757C15.9426 5.26984 15.8543 5.48302 15.6972 5.64019C15.54 5.79736 15.3268 5.88566 15.1045 5.88566Z" fill="white"/>
<path d="M19.2952 26.8373C19.5174 26.8373 19.7306 26.9256 19.8878 27.0828C20.045 27.24 20.1333 27.4531 20.1333 27.6754C20.1333 27.8977 20.2216 28.1109 20.3787 28.268C20.5359 28.4252 20.7491 28.5135 20.9714 28.5135C21.1936 28.5135 21.4068 28.4252 21.564 28.268C21.7212 28.1109 21.8095 27.8977 21.8095 27.6754C21.8095 27.0086 21.5446 26.3691 21.073 25.8975C20.6015 25.426 19.962 25.1611 19.2952 25.1611C18.6283 25.1611 17.9888 25.426 17.5173 25.8975C17.0458 26.3691 16.7809 27.0086 16.7809 27.6754V31.0278C16.7809 31.6946 17.0458 32.3341 17.5173 32.8057C17.9888 33.2772 18.6283 33.5421 19.2952 33.5421C19.962 33.5421 20.6015 33.2772 21.073 32.8057C21.5446 32.3341 21.8095 31.6946 21.8095 31.0278C21.8095 30.8055 21.7212 30.5924 21.564 30.4352C21.4068 30.278 21.1936 30.1897 20.9714 30.1897C20.7491 30.1897 20.5359 30.278 20.3787 30.4352C20.2216 30.5924 20.1333 30.8055 20.1333 31.0278C20.1333 31.2501 20.045 31.4633 19.8878 31.6204C19.7306 31.7776 19.5174 31.8659 19.2952 31.8659C19.0729 31.8659 18.8597 31.7776 18.7025 31.6204C18.5454 31.4633 18.4571 31.2501 18.4571 31.0278V27.6754C18.4571 27.4531 18.5454 27.24 18.7025 27.0828C18.8597 26.9256 19.0729 26.8373 19.2952 26.8373Z" fill="#D64C45"/>
<path d="M27.8342 25.177C27.6429 25.1411 27.4451 25.1725 27.2743 25.2658C27.1036 25.3591 26.9703 25.5087 26.8972 25.6891L25.9996 27.9343L25.102 25.6891C25.0299 25.508 24.8969 25.3577 24.7259 25.2641C24.5549 25.1705 24.3566 25.1394 24.1652 25.1762C23.9737 25.213 23.8011 25.3154 23.677 25.4658C23.553 25.6162 23.4852 25.8051 23.4854 26V32.7048C23.4854 32.927 23.5737 33.1402 23.7308 33.2974C23.888 33.4546 24.1012 33.5429 24.3234 33.5429C24.5457 33.5429 24.7589 33.4546 24.9161 33.2974C25.0732 33.1402 25.1615 32.927 25.1615 32.7048V30.3514L25.221 30.5014C25.2831 30.6572 25.3905 30.7908 25.5293 30.8849C25.6681 30.979 25.8319 31.0293 25.9996 31.0293C26.1673 31.0293 26.3312 30.979 26.47 30.8849C26.6088 30.7908 26.7162 30.6572 26.7782 30.5014L26.8377 30.3514V32.7048C26.8377 32.927 26.926 33.1402 27.0832 33.2974C27.2404 33.4546 27.4536 33.5429 27.6758 33.5429C27.8981 33.5429 28.1113 33.4546 28.2685 33.2974C28.4256 33.1402 28.5139 32.927 28.5139 32.7048V26C28.5139 25.8052 28.4461 25.6165 28.322 25.4663C28.198 25.3161 28.0255 25.2138 27.8342 25.177Z" fill="#D64C45"/>
<path d="M32.7049 28.5135C32.5578 28.5134 32.4134 28.4745 32.2861 28.4009C32.1587 28.3272 32.053 28.2214 31.9796 28.0939C31.9062 27.9665 31.8675 27.822 31.8676 27.6749C31.8677 27.5278 31.9065 27.3834 31.9801 27.256C32.0537 27.1287 32.1595 27.0229 32.2869 26.9495C32.4143 26.876 32.5588 26.8373 32.7059 26.8373C32.853 26.8374 32.9975 26.8761 33.1249 26.9497C33.2522 27.0232 33.358 27.129 33.4315 27.2564C33.5462 27.4417 33.7285 27.575 33.9398 27.6282C34.1511 27.6814 34.3748 27.6501 34.5635 27.5411C34.7522 27.4321 34.891 27.2539 34.9505 27.0443C35.01 26.8347 34.9855 26.6102 34.8823 26.4183C34.6616 26.0361 34.3442 25.7187 33.962 25.498C33.5798 25.2773 33.1462 25.1611 32.7048 25.1611C32.2635 25.1611 31.8299 25.2773 31.4477 25.498C31.0655 25.7187 30.7481 26.0361 30.5274 26.4183C30.3067 26.8005 30.1905 27.2341 30.1906 27.6755C30.1906 28.1168 30.3067 28.5504 30.5274 28.9326C30.7481 29.3148 31.0655 29.6322 31.4477 29.8529C31.83 30.0736 32.2635 30.1897 32.7049 30.1897C32.852 30.1898 32.9964 30.2287 33.1238 30.3023C33.2511 30.376 33.3568 30.4819 33.4302 30.6093C33.5037 30.7367 33.5423 30.8812 33.5422 31.0283C33.5421 31.1754 33.5033 31.3199 33.4297 31.4472C33.3561 31.5745 33.2503 31.6803 33.1229 31.7538C32.9955 31.8273 32.851 31.8659 32.7039 31.8659C32.5568 31.8659 32.4123 31.8271 32.2849 31.7536C32.1576 31.68 32.0518 31.5742 31.9783 31.4468C31.8636 31.2615 31.6813 31.1282 31.47 31.075C31.2587 31.0219 31.035 31.0531 30.8463 31.1621C30.6576 31.2711 30.5188 31.4493 30.4593 31.6589C30.3998 31.8685 30.4243 32.0931 30.5275 32.2849C30.7482 32.6672 31.0656 32.9846 31.4478 33.2052C31.8301 33.4259 32.2636 33.5421 32.705 33.5421C33.1463 33.5421 33.5799 33.4259 33.9621 33.2052C34.3443 32.9845 34.6617 32.6671 34.8824 32.2849C35.1031 31.9027 35.2193 31.4691 35.2193 31.0278C35.2192 30.5864 35.1031 30.1528 34.8824 29.7706C34.6617 29.3884 34.3443 29.071 33.9621 28.8503C33.5798 28.6297 33.1463 28.5135 32.7049 28.5135Z" fill="#D64C45"/>
<path d="M25.9999 41.9231C23.5135 41.9231 21.083 41.1858 19.0156 39.8045C16.9482 38.4231 15.3369 36.4597 14.3854 34.1626C13.4339 31.8655 13.185 29.3378 13.67 26.8991C14.1551 24.4605 15.3524 22.2205 17.1106 20.4624C18.8687 18.7042 21.1087 17.5069 23.5473 17.0218C25.986 16.5368 28.5137 16.7857 30.8108 17.7372C33.1079 18.6887 35.0713 20.3 36.4527 22.3674C37.834 24.4348 38.5713 26.8653 38.5713 29.3517C38.5676 32.6847 37.2419 35.8801 34.8851 38.2369C32.5283 40.5937 29.3329 41.9194 25.9999 41.9231ZM25.9999 18.4565C23.845 18.4565 21.7385 19.0955 19.9468 20.2926C18.1551 21.4898 16.7586 23.1914 15.934 25.1823C15.1094 27.1731 14.8936 29.3638 15.314 31.4773C15.7344 33.5907 16.7721 35.5321 18.2958 37.0558C19.8195 38.5795 21.7609 39.6172 23.8743 40.0376C25.9878 40.458 28.1785 40.2422 30.1693 39.4176C32.1602 38.593 33.8618 37.1965 35.059 35.4048C36.2561 33.6131 36.8951 31.5066 36.8951 29.3517C36.8918 26.4631 35.7429 23.6938 33.7003 21.6513C31.6578 19.6088 28.8885 18.4598 25.9999 18.4565Z" fill="#0A0760"/>
</svg>
