<svg width="68" height="46" viewBox="0 0 68 46" fill="none" xmlns="http://www.w3.org/2000/svg">
<path d="M3.6272 0.502686C1.77691 0.502686 0.245605 2.02304 0.245605 3.87333V35.3733C0.245605 37.2236 1.77691 38.7439 3.6272 38.7439H29.4956V27.4983H2.49781V3.87333C2.49781 3.2306 2.98447 2.75272 3.6272 2.75272H46.3794C47.0221 2.75272 47.5 3.2306 47.5 3.87333V4.99393H49.75V3.87333C49.75 2.02304 48.2297 0.502686 46.3794 0.502686H3.6272ZM35.125 7.24397C33.2747 7.24397 31.7456 8.77526 31.7456 10.6255V42.1255C31.7456 43.9757 33.2747 45.4961 35.125 45.4961H50.9123C50.1942 44.5521 49.75 43.392 49.75 42.1255V36.4983H33.9956V11.7483H56.5022V18.4983H58.7522V10.6255C58.7522 8.77522 57.2231 7.24397 55.3728 7.24397H35.125ZM5.85963 9.47856C5.71114 9.48029 5.56446 9.51135 5.42806 9.57004C5.29165 9.62873 5.16821 9.71385 5.06485 9.82048C4.96149 9.9271 4.88027 10.0532 4.82585 10.1913C4.77144 10.3295 4.74492 10.477 4.74781 10.6255V12.8755C4.74444 13.0254 4.77106 13.1744 4.82608 13.3139C4.8811 13.4533 4.96343 13.5803 5.06823 13.6874C5.17303 13.7946 5.29819 13.8799 5.43635 13.938C5.57452 13.9962 5.72291 14.026 5.87281 14.026C6.02271 14.026 6.1711 13.9962 6.30927 13.938C6.44743 13.8799 6.57259 13.7946 6.67739 13.6874C6.78219 13.5803 6.86452 13.4533 6.91954 13.3139C6.97456 13.1744 7.00118 13.0254 6.99781 12.8755V10.6255C7.00075 10.4748 6.97338 10.3251 6.91733 10.1852C6.86129 10.0453 6.7777 9.91811 6.67154 9.81113C6.56538 9.70415 6.4388 9.6195 6.29933 9.56238C6.15986 9.50526 6.01033 9.47678 5.85963 9.47856ZM5.85963 16.2307C5.71114 16.2325 5.56446 16.2635 5.42806 16.3222C5.29165 16.3809 5.16821 16.466 5.06485 16.5727C4.96149 16.6793 4.88027 16.8053 4.82585 16.9435C4.77144 17.0817 4.74492 17.2292 4.74781 17.3777V24.119C4.74444 24.2688 4.77106 24.4179 4.82608 24.5573C4.8811 24.6967 4.96343 24.8237 5.06823 24.9309C5.17303 25.0381 5.29819 25.1233 5.43635 25.1814C5.57452 25.2396 5.72291 25.2695 5.87281 25.2695C6.02271 25.2695 6.1711 25.2396 6.30927 25.1814C6.44743 25.1233 6.57259 25.0381 6.67739 24.9309C6.78219 24.8237 6.86452 24.6967 6.91954 24.5573C6.97456 24.4179 7.00118 24.2688 6.99781 24.119V17.3777C7.00075 17.227 6.97338 17.0773 6.91733 16.9374C6.86129 16.7975 6.7777 16.6703 6.67154 16.5633C6.56538 16.4563 6.4388 16.3717 6.29933 16.3146C6.15986 16.2574 6.01033 16.229 5.85963 16.2307ZM37.3596 16.2307C37.2111 16.2325 37.0645 16.2635 36.9281 16.3222C36.7916 16.3809 36.6682 16.466 36.5648 16.5727C36.4615 16.6793 36.3803 16.8053 36.3259 16.9435C36.2714 17.0817 36.2449 17.2292 36.2478 17.3777V19.6277C36.2446 19.7775 36.2713 19.9265 36.3263 20.0658C36.3814 20.2051 36.4638 20.332 36.5686 20.4391C36.6733 20.5462 36.7985 20.6312 36.9366 20.6893C37.0747 20.7474 37.223 20.7774 37.3728 20.7774C37.5226 20.7774 37.6709 20.7474 37.809 20.6893C37.9472 20.6312 38.0723 20.5462 38.1771 20.4391C38.2818 20.332 38.3642 20.2051 38.4193 20.0658C38.4743 19.9265 38.501 19.7775 38.4978 19.6277V17.3777C38.5007 17.227 38.4734 17.0773 38.4173 16.9374C38.3613 16.7975 38.2777 16.6703 38.1715 16.5633C38.0654 16.4563 37.9388 16.3717 37.7993 16.3146C37.6599 16.2574 37.5103 16.229 37.3596 16.2307ZM55.3728 20.7483C53.5225 20.7483 52 22.2687 52 24.119V42.1255C52 43.9758 53.5225 45.4961 55.3728 45.4961H64.375C66.2253 45.4961 67.7456 43.9758 67.7456 42.1255V24.119C67.7456 22.2687 66.2253 20.7483 64.375 20.7483H55.3728ZM37.3596 22.9829C37.0616 22.9864 36.7772 23.1081 36.5688 23.3211C36.3603 23.534 36.2449 23.821 36.2478 24.119V30.8711C36.2446 31.0209 36.2713 31.1699 36.3263 31.3092C36.3814 31.4485 36.4638 31.5755 36.5686 31.6825C36.6733 31.7896 36.7985 31.8746 36.9366 31.9327C37.0747 31.9908 37.223 32.0207 37.3728 32.0207C37.5226 32.0207 37.6709 31.9908 37.809 31.9327C37.9472 31.8746 38.0723 31.7896 38.1771 31.6825C38.2818 31.5755 38.3642 31.4485 38.4193 31.3092C38.4743 31.1699 38.501 31.0209 38.4978 30.8711V24.119C38.4993 23.9692 38.4708 23.8206 38.4141 23.6819C38.3574 23.5433 38.2736 23.4174 38.1676 23.3116C38.0615 23.2058 37.9355 23.1223 37.7967 23.0658C37.658 23.0094 37.5094 22.9812 37.3596 22.9829ZM54.2522 25.2505H65.4956V40.994H54.2522V25.2505ZM23.8201 32.0006H26.125C27.6253 32.0006 27.6253 34.2527 26.125 34.2527H23.8728C22.3725 34.3245 22.2657 32.0726 23.8201 32.0006ZM44.1294 38.7439H46.3794C46.6735 38.7504 46.9534 38.8717 47.1591 39.082C47.3648 39.2922 47.48 39.5748 47.48 39.8689C47.48 40.1631 47.3648 40.4455 47.1591 40.6558C46.9534 40.8661 46.6735 40.9875 46.3794 40.994H44.1294C43.8353 40.9875 43.5554 40.8661 43.3497 40.6558C43.144 40.4455 43.0288 40.1631 43.0288 39.8689C43.0288 39.5748 43.144 39.2922 43.3497 39.082C43.5554 38.8717 43.8353 38.7504 44.1294 38.7439ZM18.6103 40.994C18.2146 41.697 17.6214 42.4608 16.7075 43.2461H14.8706C14.7208 43.2428 14.5719 43.2695 14.4325 43.3246C14.2931 43.3796 14.1662 43.4621 14.0591 43.5668C13.952 43.6716 13.8669 43.7967 13.8088 43.9348C13.7507 44.073 13.7208 44.2213 13.7208 44.3711C13.7208 44.5209 13.7507 44.6694 13.8088 44.8075C13.8669 44.9456 13.952 45.0707 14.0591 45.1755C14.1662 45.2803 14.2931 45.3625 14.4325 45.4176C14.5719 45.4727 14.7208 45.4994 14.8706 45.4961H30.6602C29.9415 44.5527 29.4956 43.3934 29.4956 42.1255V40.994H18.6103Z" fill="#134A8E"/>
</svg>
