<svg width="62" height="64" viewBox="0 0 62 64" fill="none" xmlns="http://www.w3.org/2000/svg">
<path d="M53.3698 63.3963L45.3684 58.7765C45.2591 58.7136 45.2606 58.5566 45.3678 58.4942L53.3239 53.8709C53.3749 53.8415 53.4367 53.8415 53.4877 53.8709L61.4891 58.4903C61.5983 58.5533 61.5969 58.7103 61.4897 58.7726L53.5336 63.3963C53.484 63.4248 53.4222 63.4264 53.3698 63.3963ZM45.7756 58.635L53.4514 63.0665L61.0819 58.6318L53.4061 54.2006L45.7756 58.635Z" fill="#BBCFEF"/>
<path d="M18.6591 59.5586L0.962511 49.3418C0.853266 49.2788 0.85472 49.1218 0.961873 49.0595L11.0688 43.1862C11.1198 43.1569 11.1816 43.1569 11.2326 43.1862L28.9285 53.4033C29.0378 53.4662 29.0363 53.6232 28.9292 53.6856L18.8229 59.5586C18.7733 59.5871 18.7116 59.5887 18.6591 59.5586ZM1.36972 49.2003L18.7407 59.2288L28.5213 53.5448L11.151 43.5159L1.36972 49.2003Z" fill="#BBCFEF"/>
<path d="M18.5995 59.4991C18.5542 59.4214 18.5803 59.3213 18.6581 59.2761L28.7643 53.4031C28.8421 53.3582 28.9421 53.384 28.9874 53.4624C29.0326 53.5401 29.0065 53.6402 28.9288 53.6854L18.8225 59.5584C18.7435 59.6037 18.6439 59.5767 18.5995 59.4991Z" fill="#BBCFEF"/>
<path d="M34.5228 50.3397L16.8268 40.1229C16.7175 40.06 16.719 39.903 16.8261 39.8406L26.9324 33.9673C26.9834 33.938 27.0452 33.938 27.0962 33.9673L44.7928 44.1844C44.9021 44.2474 44.9006 44.4044 44.7934 44.4668L34.6865 50.3397C34.637 50.3682 34.5752 50.3699 34.5228 50.3397ZM17.234 39.9814L34.6043 50.0099L44.3856 44.3259L27.0146 34.2971L17.234 39.9814Z" fill="#BBCFEF"/>
<path d="M34.9612 17.6313L46.167 11.1191L46.1043 40.8631L34.8984 47.3752L34.9612 17.6313Z" fill="#DBE6FA"/>
<path d="M16.7108 7.09442L27.9167 0.582275L46.1672 11.1192L34.9613 17.6314L16.7108 7.09442Z" fill="#EBF2FF"/>
<path d="M18.9095 7.09088L27.9184 1.85547L43.9684 11.1221L34.9595 16.3572L18.9095 7.09088Z" fill="#DBE6FA"/>
<path d="M34.9612 17.6312L34.8985 47.3751L16.6479 36.8382L16.7107 7.09424L34.9612 17.6312Z" fill="#CBDBF4"/>
<path d="M17.7516 36.2026L17.8076 8.99951L33.8577 18.2659L33.8022 45.4692L17.7516 36.2026Z" fill="#BBCFEF"/>
<path d="M43.7498 19.5868L43.7658 30.1018L36.5272 34.281L36.5112 23.766L43.7498 19.5868Z" fill="#4F575F"/>
<path d="M36.5272 34.2811L36.5289 35.1646L41.4053 37.9984L41.4036 37.1149L36.5272 34.2811Z" fill="#BBCFEF"/>
<path d="M41.4033 37.1149L41.405 37.9983L48.6436 33.8191L48.6419 32.9357L41.4033 37.1149Z" fill="#CBDBF4"/>
<path d="M36.5273 34.2811L41.4036 37.1149L48.6422 32.9357L43.7659 30.1019L36.5273 34.2811Z" fill="#EBF2FF"/>
<path d="M37.3139 34.3822L39.8195 35.8368L46.4435 32.0124L43.9379 30.5579L37.3139 34.3822Z" fill="white"/>
<path d="M43.4443 20.1176L43.4583 29.9262L36.8343 33.7505L36.8203 23.9419L43.4443 20.1176Z" fill="white"/>
<path d="M43.6854 31.755L43.6857 31.8768L44.2693 32.2159L44.269 32.0942L43.6854 31.755Z" fill="#3D4449"/>
<path d="M43.9833 32.0493L44.2698 32.2158L44.2694 32.094L43.9833 31.9277V32.0493Z" fill="#181E1E"/>
<path d="M44.2693 32.0939L44.2696 32.2156L45.2919 31.6254L45.2915 31.5037L44.2693 32.0939Z" fill="#2A3134"/>
<path d="M44.7656 31.9292L45.2918 31.6254L45.2914 31.5037L44.7656 31.8073V31.9292Z" fill="#181E1E"/>
<path d="M43.6855 31.755L44.2691 32.0942L45.2914 31.504L44.7077 31.1648L43.6855 31.755Z" fill="#4F575F"/>
<path d="M41.598 32.9602L41.5983 33.082L42.1819 33.4211L42.1816 33.2994L41.598 32.9602Z" fill="#3D4449"/>
<path d="M41.8652 33.2371L42.182 33.4212L42.1817 33.2994L41.8652 33.1155V33.2371Z" fill="#181E1E"/>
<path d="M42.1816 33.2994L42.1819 33.4212L43.0198 32.9374L43.0195 32.8157L42.1816 33.2994Z" fill="#2A3134"/>
<path d="M42.5999 33.1797L43.0195 32.9374L43.0192 32.8157L42.5999 33.0577V33.1797Z" fill="#181E1E"/>
<path d="M41.5981 32.9603L42.1817 33.2995L43.0196 32.8157L42.436 32.4766L41.5981 32.9603Z" fill="#4F575F"/>
<path d="M40.5539 33.5632L40.5542 33.685L41.1379 34.0242L41.1375 33.9024L40.5539 33.5632Z" fill="#3D4449"/>
<path d="M40.8209 33.8402L41.1377 34.0243L41.1374 33.9026L40.8209 33.7186V33.8402Z" fill="#181E1E"/>
<path d="M41.1373 33.9025L41.1376 34.0242L41.9755 33.5405L41.9752 33.4187L41.1373 33.9025Z" fill="#2A3134"/>
<path d="M41.5564 33.7827L41.976 33.5405L41.9756 33.4187L41.5564 33.6608V33.7827Z" fill="#181E1E"/>
<path d="M40.5538 33.5632L41.1374 33.9024L41.9753 33.4186L41.3917 33.0795L40.5538 33.5632Z" fill="#4F575F"/>
<path d="M39.5103 34.1656L39.5107 34.2874L40.0943 34.6266L40.0939 34.5048L39.5103 34.1656Z" fill="#3D4449"/>
<path d="M39.7768 34.4429L40.0936 34.627L40.0933 34.5052L39.7768 34.3213V34.4429Z" fill="#181E1E"/>
<path d="M40.0932 34.5051L40.0935 34.6269L40.9314 34.1431L40.9311 34.0214L40.0932 34.5051Z" fill="#2A3134"/>
<path d="M40.5123 34.3854L40.9319 34.1431L40.9316 34.0214L40.5123 34.2634V34.3854Z" fill="#181E1E"/>
<path d="M39.5103 34.1661L40.0939 34.5053L40.9318 34.0215L40.3482 33.6824L39.5103 34.1661Z" fill="#4F575F"/>
<path d="M38.4647 34.7686L38.465 34.8903L39.0486 35.2295L39.0483 35.1077L38.4647 34.7686Z" fill="#3D4449"/>
<path d="M38.7322 35.0455L39.049 35.2296L39.0487 35.1079L38.7322 34.924V35.0455Z" fill="#181E1E"/>
<path d="M39.0486 35.1075L39.0489 35.2293L39.8868 34.7456L39.8865 34.6238L39.0486 35.1075Z" fill="#2A3134"/>
<path d="M39.4672 34.9878L39.8868 34.7456L39.8864 34.6238L39.4672 34.8658V34.9878Z" fill="#181E1E"/>
<path d="M38.4648 34.7687L39.0484 35.1078L39.8863 34.6241L39.3027 34.2849L38.4648 34.7687Z" fill="#4F575F"/>
<path d="M40.8492 34.2853L40.8495 34.4071L41.4331 34.7462L41.4328 34.6244L40.8492 34.2853Z" fill="#3D4449"/>
<path d="M41.4336 34.6246L41.4339 34.7463L44.4505 33.0047L44.4502 32.8829L41.4336 34.6246Z" fill="#2A3134"/>
<path d="M42.4564 34.1556L44.4504 33.0043L44.45 32.8826L42.4564 34.0336V34.1556Z" fill="#181E1E"/>
<path d="M43.3038 33.6662L44.45 33.0045L44.4497 32.8827L43.3038 33.5443V33.6662Z" fill="#21201F"/>
<path d="M40.8492 34.2855L41.4328 34.6246L44.4494 32.883L43.8658 32.5438L40.8492 34.2855Z" fill="#4F575F"/>
<path d="M39.2379 35.2161L39.2382 35.3378L39.8218 35.677L39.8215 35.5552L39.2379 35.2161Z" fill="#3D4449"/>
<path d="M39.5543 35.5222L39.8213 35.6774L39.8209 35.5556L39.5543 35.4006V35.5222Z" fill="#181E1E"/>
<path d="M39.8207 35.5556L39.8211 35.6774L40.4221 35.3304L40.4217 35.2086L39.8207 35.5556Z" fill="#2A3134"/>
<path d="M40.1465 35.4892L40.4216 35.3304L40.4212 35.2086L40.1465 35.3672V35.4892Z" fill="#181E1E"/>
<path d="M39.2379 35.2162L39.8215 35.5554L40.4224 35.2084L39.8388 34.8693L39.2379 35.2162Z" fill="#4F575F"/>
<path d="M43.0732 31.2157L43.0735 31.3375L43.657 31.6766L43.6567 31.5548L43.0732 31.2157Z" fill="#2A3134"/>
<path d="M43.3319 31.4875L43.6571 31.6765L43.6568 31.5548L43.3319 31.366V31.4875Z" fill="#181E1E"/>
<path d="M43.6566 31.5548L43.6569 31.6766L44.5202 31.1782L44.5198 31.0564L43.6566 31.5548Z" fill="#2A3134"/>
<path d="M44.1443 31.3952L44.5203 31.1782L44.52 31.0564L44.1443 31.2733V31.3952Z" fill="#181E1E"/>
<path d="M43.073 31.2156L43.6565 31.5547L44.5198 31.0563L43.9363 30.7172L43.073 31.2156Z" fill="#4F575F"/>
<path d="M42.6081 32.3971L42.6084 32.5189L43.192 32.858L43.1916 32.7362L42.6081 32.3971Z" fill="#2A3134"/>
<path d="M42.8671 32.6692L43.1923 32.8582L43.1919 32.7364L42.8671 32.5476V32.6692Z" fill="#181E1E"/>
<path d="M43.1915 32.7364L43.1918 32.8582L44.0551 32.3598L44.0547 32.238L43.1915 32.7364Z" fill="#2A3134"/>
<path d="M43.6793 32.5769L44.0552 32.3598L44.0549 32.238L43.6793 32.4549V32.5769Z" fill="#181E1E"/>
<path d="M42.6083 32.3971L43.1918 32.7362L44.0551 32.2378L43.4715 31.8987L42.6083 32.3971Z" fill="#4F575F"/>
<path d="M41.9976 31.8367L41.998 31.9584L42.5815 32.2975L42.5811 32.1758L41.9976 31.8367Z" fill="#2A3134"/>
<path d="M42.2559 32.1086L42.5811 32.2976L42.5807 32.1759L42.2559 31.9871V32.1086Z" fill="#181E1E"/>
<path d="M42.5805 32.176L42.5808 32.2978L43.4441 31.7994L43.4438 31.6776L42.5805 32.176Z" fill="#2A3134"/>
<path d="M43.0683 32.0165L43.4443 31.7994L43.4439 31.6776L43.0683 31.8945V32.0165Z" fill="#181E1E"/>
<path d="M41.9976 31.8367L42.5811 32.1758L43.4444 31.6774L42.8609 31.3383L41.9976 31.8367Z" fill="#4F575F"/>
<path d="M40.9206 32.458L40.9209 32.5798L41.5045 32.9189L41.5041 32.7971L40.9206 32.458Z" fill="#2A3134"/>
<path d="M41.1796 32.7297L41.5048 32.9187L41.5044 32.797L41.1796 32.6082V32.7297Z" fill="#181E1E"/>
<path d="M41.504 32.7972L41.5043 32.919L42.3676 32.4206L42.3672 32.2988L41.504 32.7972Z" fill="#2A3134"/>
<path d="M41.9918 32.6377L42.3677 32.4206L42.3674 32.2988L41.9918 32.5157V32.6377Z" fill="#181E1E"/>
<path d="M40.9208 32.4579L41.5043 32.797L42.3676 32.2986L41.784 31.9595L40.9208 32.4579Z" fill="#4F575F"/>
<path d="M39.8452 33.079L39.8455 33.2008L40.429 33.5399L40.4287 33.4181L39.8452 33.079Z" fill="#2A3134"/>
<path d="M40.1039 33.3508L40.4291 33.5398L40.4288 33.418L40.1039 33.2292V33.3508Z" fill="#181E1E"/>
<path d="M40.4285 33.4183L40.4289 33.5401L41.2921 33.0417L41.2918 32.9199L40.4285 33.4183Z" fill="#2A3134"/>
<path d="M40.9163 33.2585L41.2923 33.0415L41.292 32.9197L40.9163 33.1365V33.2585Z" fill="#181E1E"/>
<path d="M39.8452 33.0791L40.4287 33.4182L41.292 32.9198L40.7085 32.5807L39.8452 33.0791Z" fill="#4F575F"/>
<path d="M38.7691 33.6998L38.7694 33.8216L39.353 34.1607L39.3526 34.0389L38.7691 33.6998Z" fill="#2A3134"/>
<path d="M39.0278 33.9717L39.3531 34.1607L39.3527 34.0389L39.0278 33.8501V33.9717Z" fill="#181E1E"/>
<path d="M39.3525 34.0389L39.3528 34.1607L40.2161 33.6623L40.2157 33.5405L39.3525 34.0389Z" fill="#2A3134"/>
<path d="M39.8403 33.8794L40.2163 33.6623L40.2159 33.5405L39.8403 33.7574V33.8794Z" fill="#181E1E"/>
<path d="M38.7691 33.7001L39.3526 34.0392L40.2159 33.5408L39.6324 33.2017L38.7691 33.7001Z" fill="#4F575F"/>
<path d="M37.6931 34.3214L37.6934 34.4432L38.2769 34.7823L38.2766 34.6605L37.6931 34.3214Z" fill="#2A3134"/>
<path d="M37.9518 34.5929L38.277 34.7819L38.2767 34.6601L37.9518 34.4713V34.5929Z" fill="#181E1E"/>
<path d="M38.277 34.6603L38.2773 34.782L39.1406 34.2836L39.1402 34.1619L38.277 34.6603Z" fill="#2A3134"/>
<path d="M38.7642 34.5007L39.1402 34.2836L39.1399 34.1619L38.7642 34.3787V34.5007Z" fill="#181E1E"/>
<path d="M37.693 34.3214L38.2765 34.6605L39.1398 34.1621L38.5563 33.823L37.693 34.3214Z" fill="#4F575F"/>
<path d="M40.0234 34.7627L40.0237 34.8845L40.6073 35.2236L40.607 35.1019L40.0234 34.7627Z" fill="#3D4449"/>
<path d="M40.3401 35.0686L40.6071 35.2237L40.6067 35.102L40.3401 34.947V35.0686Z" fill="#181E1E"/>
<path d="M40.6068 35.1017L40.6071 35.2235L41.2081 34.8765L41.2077 34.7548L40.6068 35.1017Z" fill="#2A3134"/>
<path d="M40.933 35.0353L41.2081 34.8765L41.2077 34.7548L40.933 34.9133V35.0353Z" fill="#181E1E"/>
<path d="M40.0232 34.7627L40.6068 35.1019L41.2078 34.7549L40.6242 34.4158L40.0232 34.7627Z" fill="#4F575F"/>
<path d="M44.0921 32.4156L44.0924 32.5374L44.6761 32.8766L44.6757 32.7548L44.0921 32.4156Z" fill="#3D4449"/>
<path d="M44.4091 32.7215L44.676 32.8767L44.6757 32.7549L44.4091 32.6V32.7215Z" fill="#181E1E"/>
<path d="M44.6755 32.7552L44.6758 32.8769L45.2768 32.53L45.2764 32.4082L44.6755 32.7552Z" fill="#2A3134"/>
<path d="M45.0018 32.6888L45.2768 32.53L45.2764 32.4082L45.0018 32.5668V32.6888Z" fill="#181E1E"/>
<path d="M44.092 32.4157L44.6756 32.7549L45.2766 32.4079L44.693 32.0687L44.092 32.4157Z" fill="#4F575F"/>
<path d="M44.8787 31.9594L44.8791 32.0811L45.4627 32.4203L45.4623 32.2985L44.8787 31.9594Z" fill="#3D4449"/>
<path d="M45.1957 32.2651L45.4626 32.4203L45.4623 32.2985L45.1957 32.1436V32.2651Z" fill="#181E1E"/>
<path d="M45.4621 32.2989L45.4624 32.4207L46.0634 32.0737L46.0631 31.9519L45.4621 32.2989Z" fill="#2A3134"/>
<path d="M45.7884 32.2325L46.0634 32.0737L46.0631 31.9519L45.7884 32.1105V32.2325Z" fill="#181E1E"/>
<path d="M44.8786 31.9595L45.4622 32.2987L46.0632 31.9517L45.4796 31.6125L44.8786 31.9595Z" fill="#4F575F"/>
<path d="M42.0059 34.8408L43.3916 35.6462L45.7299 34.2962L44.3441 33.4908L42.0059 34.8408Z" fill="#4F575F"/>
<path d="M42.9731 35.3488L42.9735 35.4146L43.4042 35.6649L43.4038 35.599L42.9731 35.3488Z" fill="#181E1E"/>
<path d="M44.145 34.6715L44.1454 34.7373L44.576 34.9876L44.5757 34.9218L44.145 34.6715Z" fill="#181E1E"/>
<path d="M44.5757 34.9217L44.576 34.9876L45.735 34.3185L45.7347 34.2527L44.5757 34.9217Z" fill="#21201F"/>
<path d="M44.1449 34.6715L44.5756 34.9218L45.7346 34.2527L45.3039 34.0024L44.1449 34.6715Z" fill="#2A3134"/>
<path d="M43.4038 35.5988L43.4042 35.6646L44.5459 35.0055L44.5456 34.9397L43.4038 35.5988Z" fill="#21201F"/>
<path d="M42.9731 35.3487L43.4038 35.599L44.5456 34.9399L44.1149 34.6896L42.9731 35.3487Z" fill="#2A3134"/>
<path d="M33.9765 6.63438L27.8159 10.2145L27.2943 9.9134L33.4549 6.33325L33.9765 6.63438Z" fill="#4F575F"/>
<path d="M30.5585 4.66092L24.398 8.24107L23.8803 7.94221L30.0409 4.36206L30.5585 4.66092Z" fill="#4F575F"/>
<path d="M32.2675 5.64774L26.1069 9.22789L25.5892 8.92903L31.7498 5.34888L32.2675 5.64774Z" fill="#4F575F"/>
<path d="M28.8496 3.67423L22.689 7.25437L22.1713 6.95551L28.3319 3.37537L28.8496 3.67423Z" fill="#4F575F"/>
<path d="M42.2964 22.8955L42.2975 23.2783L40.9507 24.0558L40.9496 23.6731L42.2964 22.8955Z" fill="#DBE6FA"/>
<path d="M41.2871 22.3274L41.2882 22.7102L40.9472 22.907L40.9462 22.5242L41.2871 22.3274Z" fill="#FF6161"/>
<path d="M42.3014 25.1908L42.3024 25.5736L40.9557 26.3511L40.9546 25.9684L42.3014 25.1908Z" fill="#DBE6FA"/>
<path d="M42.0305 24.197L42.0316 24.5798L40.531 25.4461L40.53 25.0634L42.0305 24.197Z" fill="#4F91FF"/>
<path d="M39.6795 30.1527L39.6806 30.5355L37.584 31.7459L37.5829 31.3632L39.6795 30.1527Z" fill="#DBE6FA"/>
<path d="M41.3031 29.2151L41.3041 29.5978L39.9587 30.3747L39.9576 29.9919L41.3031 29.2151Z" fill="#B785FF"/>
<path d="M40.6826 28.4238L40.6837 28.8066L37.5812 30.5978L37.5801 30.215L40.6826 28.4238Z" fill="#DBE6FA"/>
<path d="M38.67 28.4373L38.6711 28.82L37.579 29.4505L37.5779 29.0678L38.67 28.4373Z" fill="#DBE6FA"/>
<path d="M39.2891 28.0798L39.2902 28.4626L38.9479 28.6602L38.9468 28.2774L39.2891 28.0798Z" fill="#49E4A3"/>
<path d="M41.9369 26.5511L41.938 26.9339L39.5318 28.3231L39.5308 27.9403L41.9369 26.5511Z" fill="#DBE6FA"/>
<path d="M40.6776 26.1282L40.6787 26.5109L37.5763 28.3021L37.5752 27.9194L40.6776 26.1282Z" fill="#DBE6FA"/>
<path d="M38.6645 26.14L38.6656 26.5228L37.5735 27.1533L37.5724 26.7705L38.6645 26.14Z" fill="#DBE6FA"/>
<path d="M40.2889 25.2035L40.29 25.5863L38.9432 26.3638L38.9421 25.9811L40.2889 25.2035Z" fill="#DBE6FA"/>
<path d="M40.6729 23.8333L40.674 24.216L37.5716 26.0072L37.5705 25.6244L40.6729 23.8333Z" fill="#DBE6FA"/>
<path d="M40.6707 22.6847L40.6718 23.0675L37.5693 24.8586L37.5682 24.4759L40.6707 22.6847Z" fill="#4F91FF"/>
<path d="M41.9854 21.9248L41.9865 22.3076L41.5319 22.57L41.5308 22.1873L41.9854 21.9248Z" fill="#FF6161"/>
<path d="M41.3005 28.067L41.3015 28.4498L40.9606 28.6466L40.9595 28.2638L41.3005 28.067Z" fill="#DBE6FA"/>
<path d="M41.998 27.6643L41.9991 28.0471L41.5445 28.3095L41.5435 27.9268L41.998 27.6643Z" fill="#FFCA6C"/>
<path d="M42.0008 28.8127L42.0018 29.1955L41.5473 29.458L41.5462 29.0752L42.0008 28.8127Z" fill="#B785FF"/>
<path d="M18.7414 27.0555L29.9473 20.5433L29.8846 50.2873L18.6787 56.7994L18.7414 27.0555Z" fill="#DBE6FA"/>
<path d="M0.490356 16.5185L11.6962 10.0063L29.9468 20.5433L18.7409 27.0554L0.490356 16.5185Z" fill="#EBF2FF"/>
<path d="M2.68915 16.5154L11.698 11.28L27.7481 20.5466L18.7392 25.7818L2.68915 16.5154Z" fill="#DBE6FA"/>
<path d="M45.8427 63.3957L35.5809 57.4721L30.6518 60.3349C30.6008 60.3642 30.539 60.3642 30.488 60.3349L23.9102 56.5372C23.8325 56.4923 23.8057 56.3925 23.8503 56.3145C23.8956 56.2361 23.9969 56.2093 24.0734 56.2549L30.5696 60.0052L35.4987 57.1423C35.5497 57.113 35.6115 57.113 35.6625 57.1423L45.9243 63.0659L49.5286 60.9728C49.607 60.9276 49.7064 60.9534 49.7516 61.0321C49.7969 61.1098 49.7708 61.2099 49.693 61.2551L46.0065 63.3957C45.9569 63.4242 45.8951 63.4258 45.8427 63.3957Z" fill="#BBCFEF"/>
<path d="M18.7405 27.0555L18.6778 56.7994L0.427246 46.2625L0.489977 16.5186L18.7405 27.0555Z" fill="#CBDBF4"/>
<path d="M1.53107 45.6272L1.58703 18.4241L17.6371 27.6904L17.5817 54.8938L1.53107 45.6272Z" fill="#BBCFEF"/>
<path d="M27.5277 29.0106L27.5436 39.5256L20.3051 43.7048L20.2891 33.1898L27.5277 29.0106Z" fill="#4F575F"/>
<path d="M20.306 43.7054L20.3078 44.5889L25.1841 47.4227L25.1824 46.5393L20.306 43.7054Z" fill="#BBCFEF"/>
<path d="M25.1823 46.5391L25.184 47.4225L32.4226 43.2433L32.4209 42.3599L25.1823 46.5391Z" fill="#CBDBF4"/>
<path d="M20.306 43.7051L25.1823 46.5389L32.4209 42.3597L27.5446 39.5259L20.306 43.7051Z" fill="#EBF2FF"/>
<path d="M21.0926 43.8062L23.5982 45.2607L30.2222 41.4364L27.7166 39.9818L21.0926 43.8062Z" fill="white"/>
<path d="M27.2227 29.541L27.2367 39.3496L20.6127 43.174L20.5988 33.3654L27.2227 29.541Z" fill="white"/>
<path d="M27.4643 41.1791L27.4646 41.3009L28.0483 41.64L28.0479 41.5182L27.4643 41.1791Z" fill="#3D4449"/>
<path d="M27.762 41.4734L28.0485 41.6398L28.0481 41.5181L27.762 41.3518V41.4734Z" fill="#181E1E"/>
<path d="M28.0482 41.5183L28.0486 41.6401L29.0708 41.0499L29.0705 40.9281L28.0482 41.5183Z" fill="#2A3134"/>
<path d="M28.5443 41.3537L29.0705 41.0499L29.0701 40.9281L28.5443 41.2317V41.3537Z" fill="#181E1E"/>
<path d="M27.4643 41.1791L28.0479 41.5182L29.0702 40.928L28.4866 40.5889L27.4643 41.1791Z" fill="#4F575F"/>
<path d="M25.3769 42.3843L25.3772 42.5061L25.9609 42.8452L25.9605 42.7234L25.3769 42.3843Z" fill="#3D4449"/>
<path d="M25.6444 42.6614L25.9612 42.8455L25.9609 42.7237L25.6444 42.5398V42.6614Z" fill="#181E1E"/>
<path d="M25.9608 42.7236L25.9612 42.8454L26.7991 42.3616L26.7987 42.2399L25.9608 42.7236Z" fill="#2A3134"/>
<path d="M26.3794 42.6039L26.799 42.3616L26.7986 42.2399L26.3794 42.4819V42.6039Z" fill="#181E1E"/>
<path d="M25.3769 42.3844L25.9605 42.7236L26.7984 42.2398L26.2148 41.9006L25.3769 42.3844Z" fill="#4F575F"/>
<path d="M24.3328 42.9873L24.3332 43.1091L24.9168 43.4482L24.9164 43.3265L24.3328 42.9873Z" fill="#3D4449"/>
<path d="M24.5998 43.2644L24.9166 43.4485L24.9163 43.3267L24.5998 43.1428V43.2644Z" fill="#181E1E"/>
<path d="M24.9162 43.3265L24.9165 43.4483L25.7544 42.9645L25.7541 42.8428L24.9162 43.3265Z" fill="#2A3134"/>
<path d="M25.3351 43.2067L25.7547 42.9644L25.7543 42.8427L25.3351 43.0847V43.2067Z" fill="#181E1E"/>
<path d="M24.3326 42.9873L24.9163 43.3265L25.7541 42.8427L25.1705 42.5035L24.3326 42.9873Z" fill="#4F575F"/>
<path d="M23.2883 43.5896L23.2886 43.7114L23.8722 44.0505L23.8719 43.9288L23.2883 43.5896Z" fill="#3D4449"/>
<path d="M23.5555 43.8663L23.8723 44.0504L23.872 43.9287L23.5555 43.7448V43.8663Z" fill="#181E1E"/>
<path d="M23.8719 43.9287L23.8722 44.0505L24.7101 43.5667L24.7098 43.4449L23.8719 43.9287Z" fill="#2A3134"/>
<path d="M24.2908 43.8086L24.7104 43.5664L24.71 43.4446L24.2908 43.6866V43.8086Z" fill="#181E1E"/>
<path d="M23.2884 43.5898L23.872 43.929L24.7099 43.4452L24.1263 43.1061L23.2884 43.5898Z" fill="#4F575F"/>
<path d="M22.2436 44.1924L22.2439 44.3142L22.8275 44.6533L22.8272 44.5315L22.2436 44.1924Z" fill="#3D4449"/>
<path d="M22.5111 44.4697L22.8279 44.6538L22.8276 44.5321L22.5111 44.3481V44.4697Z" fill="#181E1E"/>
<path d="M22.8275 44.5316L22.8279 44.6534L23.6658 44.1696L23.6654 44.0479L22.8275 44.5316Z" fill="#2A3134"/>
<path d="M23.2461 44.4119L23.6657 44.1696L23.6653 44.0479L23.2461 44.2899V44.4119Z" fill="#181E1E"/>
<path d="M22.2436 44.1927L22.8272 44.5319L23.6651 44.0481L23.0815 43.709L22.2436 44.1927Z" fill="#4F575F"/>
<path d="M24.6286 43.7094L24.6289 43.8311L25.2126 44.1703L25.2122 44.0485L24.6286 43.7094Z" fill="#3D4449"/>
<path d="M25.2125 44.0483L25.2129 44.1701L28.2295 42.4284L28.2291 42.3066L25.2125 44.0483Z" fill="#2A3134"/>
<path d="M26.2354 43.5796L28.2293 42.4284L28.229 42.3066L26.2354 43.4577V43.5796Z" fill="#181E1E"/>
<path d="M27.0829 43.0902L28.2292 42.4284L28.2288 42.3066L27.0829 42.9682V43.0902Z" fill="#21201F"/>
<path d="M24.6287 43.7093L25.2123 44.0485L28.2289 42.3068L27.6453 41.9677L24.6287 43.7093Z" fill="#4F575F"/>
<path d="M23.0158 44.6404L23.0162 44.7622L23.5998 45.1013L23.5994 44.9795L23.0158 44.6404Z" fill="#3D4449"/>
<path d="M23.3328 44.9463L23.5997 45.1014L23.5994 44.9797L23.3328 44.8247V44.9463Z" fill="#181E1E"/>
<path d="M23.5994 44.9798L23.5998 45.1016L24.2007 44.7546L24.2004 44.6328L23.5994 44.9798Z" fill="#2A3134"/>
<path d="M23.9255 44.9132L24.2005 44.7545L24.2002 44.6327L23.9255 44.7913V44.9132Z" fill="#181E1E"/>
<path d="M23.0159 44.6404L23.5995 44.9796L24.2005 44.6326L23.6169 44.2935L23.0159 44.6404Z" fill="#4F575F"/>
<path d="M26.8516 40.6396L26.852 40.7614L27.4355 41.1005L27.4351 40.9788L26.8516 40.6396Z" fill="#2A3134"/>
<path d="M27.1101 40.9114L27.4353 41.1004L27.435 40.9786L27.1101 40.7898V40.9114Z" fill="#181E1E"/>
<path d="M27.435 40.9785L27.4353 41.1003L28.2986 40.6019L28.2983 40.4801L27.435 40.9785Z" fill="#2A3134"/>
<path d="M27.9228 40.8187L28.2988 40.6016L28.2984 40.4799L27.9228 40.6967V40.8187Z" fill="#181E1E"/>
<path d="M26.8518 40.6395L27.4353 40.9786L28.2986 40.4802L27.7151 40.1411L26.8518 40.6395Z" fill="#4F575F"/>
<path d="M26.387 41.8213L26.3874 41.9431L26.9709 42.2822L26.9705 42.1604L26.387 41.8213Z" fill="#2A3134"/>
<path d="M26.6458 42.093L26.971 42.282L26.9706 42.1602L26.6458 41.9714V42.093Z" fill="#181E1E"/>
<path d="M26.9704 42.1604L26.9707 42.2822L27.834 41.7838L27.8337 41.662L26.9704 42.1604Z" fill="#2A3134"/>
<path d="M27.4582 42.0005L27.8342 41.7834L27.8338 41.6616L27.4582 41.8785V42.0005Z" fill="#181E1E"/>
<path d="M26.3871 41.8212L26.9706 42.1603L27.8339 41.6619L27.2503 41.3228L26.3871 41.8212Z" fill="#4F575F"/>
<path d="M25.7756 41.2607L25.7759 41.3825L26.3594 41.7216L26.3591 41.5998L25.7756 41.2607Z" fill="#2A3134"/>
<path d="M26.0343 41.5325L26.3595 41.7215L26.3592 41.5997L26.0343 41.4109V41.5325Z" fill="#181E1E"/>
<path d="M26.3592 41.6L26.3595 41.7217L27.2228 41.2233L27.2225 41.1016L26.3592 41.6Z" fill="#2A3134"/>
<path d="M26.8465 41.4404L27.2225 41.2233L27.2221 41.1016L26.8465 41.3184V41.4404Z" fill="#181E1E"/>
<path d="M25.7757 41.2609L26.3592 41.6L27.2225 41.1016L26.639 40.7625L25.7757 41.2609Z" fill="#4F575F"/>
<path d="M24.6995 41.8813L24.6999 42.0031L25.2834 42.3422L25.283 42.2205L24.6995 41.8813Z" fill="#2A3134"/>
<path d="M24.9583 42.1533L25.2835 42.3423L25.2831 42.2205L24.9583 42.0317V42.1533Z" fill="#181E1E"/>
<path d="M25.2829 42.2203L25.2832 42.3421L26.1465 41.8437L26.1462 41.7219L25.2829 42.2203Z" fill="#2A3134"/>
<path d="M25.7707 42.0611L26.1467 41.8441L26.1463 41.7223L25.7707 41.9392V42.0611Z" fill="#181E1E"/>
<path d="M24.6996 41.8818L25.2831 42.2209L26.1464 41.7225L25.5628 41.3834L24.6996 41.8818Z" fill="#4F575F"/>
<path d="M23.6241 42.5034L23.6244 42.6252L24.2079 42.9643L24.2076 42.8425L23.6241 42.5034Z" fill="#2A3134"/>
<path d="M23.8828 42.7749L24.208 42.9639L24.2077 42.8421L23.8828 42.6533V42.7749Z" fill="#181E1E"/>
<path d="M24.2075 42.8422L24.2078 42.9639L25.0711 42.4655L25.0707 42.3438L24.2075 42.8422Z" fill="#2A3134"/>
<path d="M24.6953 42.6826L25.0712 42.4655L25.0709 42.3438L24.6953 42.5606V42.6826Z" fill="#181E1E"/>
<path d="M23.624 42.5032L24.2075 42.8423L25.0708 42.3439L24.4873 42.0048L23.624 42.5032Z" fill="#4F575F"/>
<path d="M22.548 43.1243L22.5484 43.246L23.1319 43.5851L23.1316 43.4634L22.548 43.1243Z" fill="#2A3134"/>
<path d="M22.8068 43.3957L23.132 43.5847L23.1316 43.463L22.8068 43.2742V43.3957Z" fill="#181E1E"/>
<path d="M23.1314 43.4628L23.1318 43.5845L23.995 43.0861L23.9947 42.9644L23.1314 43.4628Z" fill="#2A3134"/>
<path d="M23.6192 43.3032L23.9952 43.0861L23.9948 42.9644L23.6192 43.1812V43.3032Z" fill="#181E1E"/>
<path d="M22.5479 43.1241L23.1314 43.4632L23.9947 42.9648L23.4112 42.6257L22.5479 43.1241Z" fill="#4F575F"/>
<path d="M21.472 43.7455L21.4723 43.8673L22.0558 44.2064L22.0555 44.0846L21.472 43.7455Z" fill="#2A3134"/>
<path d="M21.7307 44.0171L22.0559 44.2061L22.0556 44.0843L21.7307 43.8955V44.0171Z" fill="#181E1E"/>
<path d="M22.0554 44.0843L22.0557 44.2061L22.919 43.7077L22.9186 43.5859L22.0554 44.0843Z" fill="#2A3134"/>
<path d="M22.5432 43.9248L22.9191 43.7077L22.9188 43.5859L22.5432 43.8028V43.9248Z" fill="#181E1E"/>
<path d="M21.4718 43.7455L22.0553 44.0846L22.9186 43.5862L22.3351 43.2471L21.4718 43.7455Z" fill="#4F575F"/>
<path d="M23.8018 44.1868L23.8022 44.3085L24.3858 44.6477L24.3854 44.5259L23.8018 44.1868Z" fill="#3D4449"/>
<path d="M24.1188 44.4923L24.3857 44.6474L24.3854 44.5257L24.1188 44.3707V44.4923Z" fill="#181E1E"/>
<path d="M24.3852 44.5257L24.3855 44.6475L24.9865 44.3005L24.9862 44.1787L24.3852 44.5257Z" fill="#2A3134"/>
<path d="M24.7115 44.4593L24.9865 44.3005L24.9862 44.1787L24.7115 44.3373V44.4593Z" fill="#181E1E"/>
<path d="M23.802 44.1867L24.3856 44.5259L24.9866 44.1789L24.403 43.8397L23.802 44.1867Z" fill="#4F575F"/>
<path d="M27.8715 41.8398L27.8719 41.9616L28.4555 42.3008L28.4551 42.179L27.8715 41.8398Z" fill="#3D4449"/>
<path d="M28.188 42.1456L28.455 42.3008L28.4546 42.179L28.188 42.024V42.1456Z" fill="#181E1E"/>
<path d="M28.455 42.179L28.4553 42.3008L29.0563 41.9538L29.0559 41.832L28.455 42.179Z" fill="#2A3134"/>
<path d="M28.7812 42.1126L29.0563 41.9538L29.0559 41.832L28.7812 41.9906V42.1126Z" fill="#181E1E"/>
<path d="M27.8715 41.84L28.4551 42.1792L29.0561 41.8322L28.4725 41.493L27.8715 41.84Z" fill="#4F575F"/>
<path d="M28.6567 41.3832L28.657 41.505L29.2406 41.8441L29.2403 41.7223L28.6567 41.3832Z" fill="#3D4449"/>
<path d="M28.9741 41.6892L29.2411 41.8443L29.2407 41.7226L28.9741 41.5676V41.6892Z" fill="#181E1E"/>
<path d="M29.2405 41.7227L29.2409 41.8445L29.8419 41.4975L29.8415 41.3757L29.2405 41.7227Z" fill="#2A3134"/>
<path d="M29.5673 41.6563L29.8423 41.4975L29.842 41.3757L29.5673 41.5343V41.6563Z" fill="#181E1E"/>
<path d="M28.6567 41.3834L29.2403 41.7225L29.8413 41.3755L29.2577 41.0364L28.6567 41.3834Z" fill="#4F575F"/>
<path d="M25.7843 44.2643L27.1701 45.0696L29.5083 43.7196L28.1226 42.9143L25.7843 44.2643Z" fill="#4F575F"/>
<path d="M26.751 44.7727L26.7513 44.8385L27.182 45.0888L27.1816 45.023L26.751 44.7727Z" fill="#181E1E"/>
<path d="M27.924 44.0951L27.9243 44.1609L28.355 44.4112L28.3546 44.3454L27.924 44.0951Z" fill="#181E1E"/>
<path d="M28.3547 44.3457L28.355 44.4115L29.514 43.7425L29.5137 43.6766L28.3547 44.3457Z" fill="#21201F"/>
<path d="M27.924 44.0957L28.3546 44.346L29.5136 43.6769L29.0829 43.4266L27.924 44.0957Z" fill="#2A3134"/>
<path d="M27.1816 45.0229L27.182 45.0887L28.3238 44.4296L28.3234 44.3638L27.1816 45.0229Z" fill="#21201F"/>
<path d="M26.751 44.7726L27.1816 45.0229L28.3234 44.3638L27.8927 44.1135L26.751 44.7726Z" fill="#2A3134"/>
<path d="M6.66541 47.1286L7.01837 46.9235L6.95144 42.6481L6.67766 42.8072L6.66541 47.1286Z" fill="#CBDBF4"/>
<path d="M6.67768 42.807L6.95147 42.6479L3.19065 40.4766L2.91687 40.6357L6.67768 42.807Z" fill="#DBE6FA"/>
<path d="M2.91704 40.6356L2.90479 44.9571L6.6656 47.1284L6.67785 42.8069L2.91704 40.6356Z" fill="#EBF2FF"/>
<path d="M4.55445 45.4245C5.26492 45.8347 5.8449 45.5042 5.84721 44.6871C5.84953 43.8707 5.27331 42.8734 4.56284 42.4632C3.85238 42.053 3.2724 42.3828 3.27009 43.1992C3.26777 44.0163 3.84398 45.0143 4.55445 45.4245Z" fill="#181E1E"/>
<path d="M3.85792 42.251C3.62665 42.3854 3.48307 42.6708 3.48192 43.0762C3.47827 44.3658 4.85903 45.8691 5.68258 45.3905L5.4708 45.5136C5.23636 45.6498 4.91195 45.631 4.55451 45.4246C3.84404 45.0144 3.26783 44.0164 3.27015 43.1992C3.27236 42.4197 3.76385 42.338 3.85792 42.251Z" fill="#4F575F"/>
<path d="M5.95404 44.7488C5.95798 43.3565 4.46388 41.7253 3.57117 42.2441C3.70206 42.204 4.03984 41.7931 4.775 42.2175C5.5443 42.6617 6.16832 43.7418 6.16581 44.6258C6.16457 45.0649 6.00893 45.3742 5.75829 45.5199L5.54652 45.643C5.79716 45.4973 5.95279 45.188 5.95404 44.7488Z" fill="#4F575F"/>
<path d="M5.95414 44.7488C5.95164 45.6328 5.32354 45.9907 4.55424 45.5465C3.78494 45.1024 3.16156 44.0219 3.16407 43.1379C3.16658 42.2539 3.79403 41.8964 4.56333 42.3405C5.33263 42.7847 5.95665 43.8648 5.95414 44.7488ZM4.55459 45.4246C5.26505 45.8347 5.84503 45.5042 5.84735 44.6871C5.84966 43.8707 5.27345 42.8734 4.56298 42.4632C3.85251 42.0531 3.27254 42.3828 3.27022 43.1992C3.26791 44.0163 3.84412 45.0144 4.55459 45.4246Z" fill="#2A3134"/>
<path d="M4.02153 42.6318C4.52782 43.0606 4.45768 43.3621 4.59426 43.3626C4.53641 43.0496 4.39879 42.7532 4.20243 42.4614L4.23602 42.4519C4.56859 42.5105 4.95323 42.7563 5.03553 43.1015C5.09771 43.3688 5.09287 43.5974 4.99591 43.7584L5.01657 43.8716C5.20143 43.7807 5.29429 43.5836 5.33699 43.3238L5.37462 43.3696C5.5174 43.6069 5.85551 44.2455 5.62762 44.4027C5.4847 44.4986 5.30844 44.5126 5.09479 44.3989C5.0529 44.3747 5.03191 44.3818 5.02755 44.4372C5.23423 44.6234 5.46501 44.7531 5.73979 44.7953L5.73961 44.8579C5.70134 45.0383 5.62541 45.1825 5.50347 45.276C5.25808 45.472 4.82691 44.8605 4.70412 44.5686L4.61624 44.489C4.67409 44.802 4.81589 45.1008 5.00388 45.3877L4.96609 45.3996C4.64741 45.3349 4.25419 45.1021 4.17497 44.7452C4.11278 44.4827 4.11763 44.2541 4.21038 44.0955C4.23146 44.0595 4.23155 44.0258 4.17721 43.9559C4.11404 44.0399 4.03415 44.0999 3.98355 44.1912C3.93293 44.2873 3.90322 44.4051 3.86095 44.5157L3.84006 44.4844C3.69276 44.2493 3.35346 43.6071 3.58286 43.4488C3.7258 43.353 3.90205 43.339 4.11991 43.4503C4.16181 43.4697 4.1786 43.4649 4.18717 43.4024C3.79547 43.1311 3.82803 43.1588 3.47912 43.0466L3.47498 43.0298L3.47507 42.9961C3.50917 42.8084 3.58506 42.6739 3.69863 42.5755C3.80108 42.4937 3.92258 42.5443 4.02153 42.6318ZM4.60054 44.3498C4.6031 44.3513 4.60566 44.3527 4.60823 44.3542C4.81348 44.4727 4.98157 44.3769 4.98225 44.1362C4.97455 43.8955 4.80754 43.6063 4.60648 43.4902C4.39702 43.3789 4.23311 43.4771 4.23243 43.7178C4.23591 43.9484 4.3948 44.231 4.60054 44.3498Z" fill="white"/>
<path d="M4.61804 43.7128C4.37279 43.5712 4.36552 43.9942 4.61683 44.1393C4.71835 44.1979 4.8011 44.1544 4.80461 44.0359C4.80495 43.9156 4.72273 43.7732 4.61804 43.7128Z" fill="white"/>
<path d="M11.2759 49.7905L11.6288 49.5854L11.5619 45.3099L11.2881 45.469L11.2759 49.7905Z" fill="#CBDBF4"/>
<path d="M11.2882 45.4688L11.5619 45.3097L7.80113 43.1384L7.52734 43.2975L11.2882 45.4688Z" fill="#DBE6FA"/>
<path d="M7.52751 43.2977L7.51526 47.6192L11.2761 49.7905L11.2883 45.469L7.52751 43.2977Z" fill="#EBF2FF"/>
<path d="M9.16492 48.0864C9.87539 48.4966 10.4554 48.1661 10.4577 47.349C10.46 46.5326 9.88379 45.5353 9.17332 45.1251C8.46285 44.7149 7.88288 45.0447 7.88056 45.8611C7.87824 46.6782 8.45446 47.6762 9.16492 48.0864Z" fill="#181E1E"/>
<path d="M8.25648 45.0359L8.46825 44.9128C8.23699 45.0472 8.09341 45.3326 8.09226 45.738C8.0886 47.0276 9.46936 48.5309 10.2929 48.0524C10.1728 48.0899 9.85195 48.4831 9.16484 48.0864C8.06137 47.4494 7.43072 45.5158 8.25648 45.0359Z" fill="#4F575F"/>
<path d="M10.5644 47.4103C10.5684 46.018 9.07429 44.3868 8.18158 44.9056C8.31247 44.8655 8.65026 44.4546 9.38541 44.879C10.1547 45.3232 10.7787 46.4033 10.7762 47.2873C10.7738 48.1358 10.253 48.2146 10.1569 48.3045C10.4076 48.1588 10.5632 47.8495 10.5644 47.4103Z" fill="#4F575F"/>
<path d="M10.5647 47.4106C10.5622 48.2946 9.93408 48.6526 9.16477 48.2084C8.39547 47.7642 7.7721 46.6838 7.7746 45.7998C7.77711 44.9158 8.40456 44.5582 9.17386 45.0024C9.94316 45.4465 10.5672 46.5266 10.5647 47.4106ZM9.16512 48.0864C9.87559 48.4966 10.4556 48.1661 10.4579 47.349C10.4602 46.5326 9.88398 45.5353 9.17352 45.1251C8.46305 44.7149 7.88307 45.0447 7.88076 45.8611C7.87844 46.6782 8.45465 47.6762 9.16512 48.0864Z" fill="#2A3134"/>
<path d="M8.63201 45.2939C9.04274 45.6418 9.11056 45.9833 9.16667 46.0157C9.17742 46.0219 9.18974 46.0247 9.20473 46.0247C9.14688 45.7117 9.00926 45.4153 8.8129 45.1235L8.84649 45.114C9.17906 45.1726 9.56371 45.4184 9.64601 45.7636C9.70818 46.0309 9.70334 46.2595 9.60639 46.4205L9.62704 46.5337C9.81191 46.4428 9.90477 46.2457 9.94746 45.9859L9.98509 46.0317C10.1229 46.2607 10.2355 46.4945 10.2977 46.7426C10.3351 46.8895 10.318 47.0097 10.2381 47.0649C10.0952 47.1607 9.91892 47.1747 9.70526 47.061C9.66338 47.0368 9.64238 47.044 9.63803 47.0993C9.84471 47.2855 10.0755 47.4152 10.3503 47.4574L10.3501 47.52C10.3118 47.7004 10.2359 47.8446 10.1139 47.9381C10.012 48.0196 9.88456 47.9611 9.78687 47.8746C9.59435 47.7056 9.42712 47.4982 9.31459 47.2307L9.22671 47.1511C9.28456 47.4641 9.42637 47.7629 9.61435 48.0498L9.57656 48.0618C9.45798 48.0377 9.33764 47.9938 9.21557 47.9233C9.15202 47.8866 9.08801 47.8428 9.02351 47.7907C8.90631 47.6941 8.81859 47.5566 8.78545 47.4073C8.72326 47.1448 8.7281 46.9162 8.82085 46.7577C8.84193 46.7216 8.84203 46.6879 8.78768 46.618C8.72451 46.702 8.64463 46.762 8.59402 46.8533C8.5434 46.9494 8.5137 47.0672 8.47143 47.1778L8.45054 47.1465C8.30323 46.9114 7.96394 46.2693 8.19333 46.1109C8.33627 46.0151 8.51252 46.0011 8.73038 46.1124C8.77228 46.1318 8.78908 46.127 8.79764 46.0645C8.40594 45.7932 8.4385 45.821 8.0896 45.7087L8.08545 45.6919L8.08555 45.6582C8.11964 45.4706 8.19553 45.336 8.3091 45.2376C8.41156 45.1559 8.53306 45.2064 8.63201 45.2939ZM9.21101 47.0119C9.21357 47.0134 9.21613 47.0149 9.2187 47.0163C9.42395 47.1348 9.59205 47.039 9.59273 46.7983C9.58502 46.5576 9.41801 46.2684 9.21696 46.1523C9.00749 46.041 8.84358 46.1392 8.8429 46.3799C8.84639 46.6105 9.00527 46.8931 9.21101 47.0119Z" fill="white"/>
<path d="M9.04065 46.4818C9.03986 46.7593 9.40672 46.9774 9.41501 46.6979C9.41583 46.4113 9.04146 46.1978 9.04065 46.4818Z" fill="white"/>
<path d="M6.67664 41.5805L7.0296 41.3754L6.96267 37.1L6.68889 37.2591L6.67664 41.5805Z" fill="#CBDBF4"/>
<path d="M6.69038 37.2588L6.96416 37.0997L3.20335 34.9283L2.92957 35.0874L6.69038 37.2588Z" fill="#DBE6FA"/>
<path d="M2.929 35.0875L2.91675 39.409L6.67756 41.5803L6.68981 37.2588L2.929 35.0875Z" fill="#EBF2FF"/>
<path d="M4.56641 39.8764C5.27688 40.2866 5.85686 39.9561 5.85918 39.139C5.86149 38.3226 5.28528 37.3253 4.57481 36.9151C3.86434 36.5049 3.28437 36.8347 3.28205 37.6511C3.27973 38.4682 3.85594 39.4663 4.56641 39.8764Z" fill="#181E1E"/>
<path d="M3.86964 36.7032C3.63837 36.8377 3.49479 37.1231 3.49364 37.5284C3.48999 38.818 4.87075 40.3213 5.6943 39.8428C5.57414 39.8803 5.25333 40.2735 4.56623 39.8768C3.85576 39.4667 3.27955 38.4686 3.28187 37.6515C3.28408 36.872 3.77557 36.7903 3.86964 36.7032Z" fill="#4F575F"/>
<path d="M5.96575 39.2009C5.9697 37.8086 4.4756 36.1774 3.58289 36.6961L3.79466 36.5731C4.04839 36.4256 4.39959 36.4461 4.78672 36.6696C5.97919 37.3581 6.66596 39.4513 5.77001 39.972L5.55824 40.0951C5.80888 39.9494 5.96451 39.6401 5.96575 39.2009Z" fill="#4F575F"/>
<path d="M5.96598 39.2009C5.96348 40.0849 5.33538 40.4428 4.56608 39.9987C3.79678 39.5545 3.17341 38.4741 3.17591 37.5901C3.17842 36.7061 3.80587 36.3485 4.57517 36.7927C5.34447 37.2368 5.96849 38.3169 5.96598 39.2009ZM4.56643 39.8767C5.27689 40.2869 5.85687 39.9564 5.85919 39.1393C5.8615 38.3229 5.28529 37.3256 4.57482 36.9154C3.86436 36.5052 3.28438 36.835 3.28207 37.6514C3.27975 38.4685 3.85596 39.4665 4.56643 39.8767Z" fill="#2A3134"/>
<path d="M4.03081 37.0831C4.44154 37.431 4.50936 37.7724 4.56547 37.8048C4.57622 37.811 4.58855 37.8139 4.60353 37.8139C4.54568 37.5009 4.40807 37.2045 4.2117 36.9127L4.24529 36.9032C4.55599 36.958 4.95965 37.1956 5.04481 37.5528C5.10699 37.8201 5.10214 38.0487 5.00519 38.2097L5.02585 38.3229C5.21071 38.232 5.30357 38.0349 5.34626 37.7751L5.3839 37.8209C5.52667 38.0582 5.86479 38.6968 5.6369 38.854C5.49398 38.9499 5.31772 38.9639 5.10407 38.8502C5.06218 38.826 5.04118 38.8331 5.03683 38.8885C5.24351 39.0746 5.47428 39.2044 5.74907 39.2466L5.74889 39.3092C5.71062 39.4896 5.63469 39.6338 5.51275 39.7273C5.41077 39.8087 5.28336 39.7502 5.18567 39.6638C4.99315 39.4948 4.82592 39.2874 4.7134 39.0199L4.62551 38.9403C4.68336 39.2533 4.82517 39.5521 5.01316 39.839L4.97536 39.8509C4.63248 39.7813 4.26099 39.5422 4.18425 39.1965C4.12206 38.934 4.1269 38.7054 4.21966 38.5468C4.24074 38.5108 4.24083 38.4771 4.18649 38.4072C4.12332 38.4912 4.04343 38.5512 3.99282 38.6425C3.9422 38.7386 3.9125 38.8564 3.87023 38.967L3.84934 38.9357C3.70204 38.7006 3.36274 38.0584 3.59214 37.9001C3.73507 37.8043 3.91133 37.7903 4.12918 37.9016C4.17108 37.921 4.18788 37.9162 4.19645 37.8537C3.80474 37.5824 3.8373 37.6101 3.4884 37.4979L3.48425 37.4811L3.48435 37.4473C3.51844 37.2597 3.59434 37.1252 3.70791 37.0268C3.81036 36.945 3.93186 36.9956 4.03081 37.0831ZM4.60981 38.8011C4.61237 38.8026 4.61493 38.804 4.61751 38.8055C4.82275 38.924 4.99085 38.8282 4.99153 38.5875C4.98382 38.3468 4.81682 38.0576 4.61576 37.9415C4.40629 37.8302 4.24239 37.9284 4.24171 38.1691C4.24519 38.3996 4.40408 38.6823 4.60981 38.8011Z" fill="white"/>
<path d="M4.44025 38.2711C4.43946 38.5486 4.80632 38.7667 4.81461 38.4872C4.81495 38.3669 4.44105 37.9871 4.44025 38.2711Z" fill="white"/>
<path d="M11.2878 44.2426L11.6408 44.0375L11.5739 39.7621L11.3001 39.9212L11.2878 44.2426Z" fill="#CBDBF4"/>
<path d="M11.3001 39.921L11.5739 39.7619L7.81309 37.5906L7.53931 37.7497L11.3001 39.921Z" fill="#DBE6FA"/>
<path d="M7.53947 37.75L7.52722 42.0715L11.288 44.2428L11.3003 39.9213L7.53947 37.75Z" fill="#EBF2FF"/>
<path d="M9.17689 42.5385C9.88735 42.9487 10.4673 42.6182 10.4696 41.8011C10.472 40.9847 9.89575 39.9874 9.18528 39.5772C8.47481 39.167 7.89484 39.4968 7.89252 40.3132C7.89021 41.1303 8.46642 42.1284 9.17689 42.5385Z" fill="#181E1E"/>
<path d="M8.48024 39.365C8.24897 39.4994 8.10539 39.7848 8.10424 40.1902C8.10058 41.4798 9.48135 42.9831 10.3049 42.5045C10.1847 42.542 9.86393 42.9353 9.17682 42.5386C8.46636 42.1284 7.89015 41.1304 7.89246 40.3132C7.89467 39.5337 8.38617 39.452 8.48024 39.365Z" fill="#4F575F"/>
<path d="M10.5766 41.8627C10.5805 40.4704 9.08644 38.8392 8.19373 39.3579C8.32462 39.3179 8.6624 38.907 9.39756 39.3314C10.1669 39.7756 10.7909 40.8557 10.7884 41.7397C10.786 42.5882 10.2652 42.667 10.1691 42.7569C10.4197 42.6112 10.5754 42.3019 10.5766 41.8627Z" fill="#4F575F"/>
<path d="M10.5765 41.8627C10.574 42.7466 9.94592 43.1046 9.17662 42.6604C8.40732 42.2163 7.78394 41.1358 7.78645 40.2518C7.78895 39.3678 8.41641 39.0103 9.1857 39.4544C9.95501 39.8986 10.579 40.9787 10.5765 41.8627ZM9.17696 42.5384C9.88743 42.9486 10.4674 42.6181 10.4697 41.801C10.472 40.9846 9.89583 39.9873 9.18536 39.5771C8.47489 39.1669 7.89491 39.4967 7.8926 40.3131C7.89028 41.1302 8.46649 42.1283 9.17696 42.5384Z" fill="#2A3134"/>
<path d="M8.64397 39.7462C9.0547 40.094 9.12252 40.4355 9.17863 40.4679C9.18938 40.4741 9.20171 40.4769 9.21669 40.477C9.15884 40.164 9.02123 39.8676 8.82486 39.5758L8.85845 39.5663C9.19102 39.6249 9.57567 39.8707 9.65797 40.2159C9.72015 40.4832 9.7153 40.7118 9.61835 40.8728L9.639 40.986C9.82387 40.895 9.91673 40.698 9.95942 40.4382L9.99705 40.484C10.1349 40.713 10.2475 40.9468 10.3097 41.1948C10.3471 41.3417 10.3299 41.462 10.2501 41.5171C10.1071 41.613 9.93088 41.6269 9.71723 41.5132C9.67534 41.4891 9.65434 41.4962 9.64999 41.5515C9.85667 41.7377 10.0874 41.8675 10.3622 41.9097L10.362 41.9723C10.3238 42.1527 10.2478 42.2969 10.1259 42.3904C9.87942 42.5872 9.44939 41.975 9.32656 41.683L9.23867 41.6033C9.29652 41.9164 9.43833 42.2152 9.62632 42.5021L9.58852 42.514C9.27303 42.45 8.87672 42.2169 8.79741 41.8596C8.73522 41.5971 8.74006 41.3685 8.83282 41.2099C8.8539 41.1739 8.85399 41.1402 8.79965 41.0702C8.73647 41.1543 8.65659 41.2142 8.60598 41.3056C8.55536 41.4017 8.52566 41.5195 8.48339 41.6301L8.4625 41.5988C8.31519 41.3637 7.9759 40.7215 8.2053 40.5632C8.34823 40.4673 8.52449 40.4534 8.74234 40.5647C8.78424 40.5841 8.80104 40.5793 8.80961 40.5168C8.4179 40.2455 8.45046 40.2732 8.10156 40.161L8.09741 40.1441L8.09751 40.1104C8.1316 39.9228 8.20749 39.7882 8.32107 39.6899C8.42352 39.6081 8.54502 39.6587 8.64397 39.7462ZM9.22297 41.4642C9.22553 41.4657 9.22809 41.4671 9.23066 41.4686C9.43591 41.5871 9.60401 41.4913 9.60469 41.2506C9.59698 41.0099 9.42998 40.7207 9.22892 40.6046C9.01945 40.4933 8.85555 40.5915 8.85486 40.8321C8.85835 41.0627 9.01724 41.3454 9.22297 41.4642Z" fill="white"/>
<path d="M9.05249 40.9343C9.0517 41.2118 9.41856 41.4299 9.42685 41.1504C9.42767 40.8638 9.0533 40.6503 9.05249 40.9343Z" fill="white"/>
<path d="M17.7571 16.0588L11.5965 19.639L11.075 19.3378L17.2355 15.7577L17.7571 16.0588Z" fill="#4F575F"/>
<path d="M14.3392 14.0852L8.17859 17.6654L7.66095 17.3665L13.8215 13.7864L14.3392 14.0852Z" fill="#4F575F"/>
<path d="M16.0481 15.0722L9.88751 18.6523L9.36987 18.3535L15.5305 14.7733L16.0481 15.0722Z" fill="#4F575F"/>
<path d="M12.6301 13.0988L6.46948 16.6789L5.95184 16.3801L12.1124 12.7999L12.6301 13.0988Z" fill="#4F575F"/>
<path d="M26.0763 32.3201L26.0774 32.7028L24.7306 33.4804L24.7296 33.0976L26.0763 32.3201Z" fill="#DBE6FA"/>
<path d="M25.0677 31.7521L25.0688 32.1348L24.7279 32.3317L24.7268 31.9489L25.0677 31.7521Z" fill="#FF6161"/>
<path d="M26.082 34.6156L26.0831 34.9984L24.7363 35.7759L24.7352 35.3932L26.082 34.6156Z" fill="#DBE6FA"/>
<path d="M25.8105 33.6217L25.8115 34.0045L24.311 34.8708L24.3099 34.4881L25.8105 33.6217Z" fill="#4F91FF"/>
<path d="M23.4594 39.5774L23.4605 39.9602L21.3639 41.1706L21.3628 40.7879L23.4594 39.5774Z" fill="#DBE6FA"/>
<path d="M25.083 38.64L25.0841 39.0228L23.7386 39.7996L23.7375 39.4168L25.083 38.64Z" fill="#B785FF"/>
<path d="M24.4625 37.8484L24.4636 38.2311L21.3611 40.0223L21.36 39.6396L24.4625 37.8484Z" fill="#DBE6FA"/>
<path d="M22.4499 37.8622L22.451 38.2449L21.3589 38.8754L21.3578 38.4927L22.4499 37.8622Z" fill="#DBE6FA"/>
<path d="M23.069 37.5045L23.0701 37.8873L22.7278 38.0849L22.7267 37.7021L23.069 37.5045Z" fill="#49E4A3"/>
<path d="M24.812 36.4989L24.8131 36.8817L23.3125 37.748L23.3114 37.3653L24.812 36.4989Z" fill="#4F91FF"/>
<path d="M24.4568 35.5529L24.4579 35.9356L21.3554 37.7268L21.3544 37.344L24.4568 35.5529Z" fill="#DBE6FA"/>
<path d="M22.4444 35.5652L22.4455 35.948L21.3534 36.5785L21.3524 36.1957L22.4444 35.5652Z" fill="#DBE6FA"/>
<path d="M24.0692 34.6279L24.0703 35.0107L22.7235 35.7883L22.7224 35.4055L24.0692 34.6279Z" fill="#DBE6FA"/>
<path d="M24.4525 33.2577L24.4536 33.6405L21.3511 35.4317L21.35 35.0489L24.4525 33.2577Z" fill="#DBE6FA"/>
<path d="M24.4499 32.1091L24.4509 32.4919L21.3485 34.2831L21.3474 33.9003L24.4499 32.1091Z" fill="#4F91FF"/>
<path d="M25.7653 31.3495L25.7664 31.7322L25.3118 31.9947L25.3107 31.6119L25.7653 31.3495Z" fill="#FF6161"/>
<path d="M25.0804 37.4917L25.0814 37.8745L24.7405 38.0713L24.7394 37.6885L25.0804 37.4917Z" fill="#DBE6FA"/>
<path d="M25.7787 37.089L25.7797 37.4718L25.3252 37.7342L25.3241 37.3514L25.7787 37.089Z" fill="#FFCA6C"/>
<path d="M25.7807 38.2373L25.7818 38.6201L25.3272 38.8825L25.3261 38.4997L25.7807 38.2373Z" fill="#B785FF"/>
<path d="M61.4083 55.2527L61.4033 56.9915L53.4473 61.6151L53.4522 59.8763L61.4083 55.2527Z" fill="#71D8F8"/>
<path d="M53.4521 59.8764L53.4472 61.6152L45.4459 56.9957L45.4509 55.2568L53.4521 59.8764Z" fill="#4DCDF3"/>
<path d="M61.4082 55.2527L53.4522 59.8763L45.4509 55.2568L53.407 50.6332L61.4082 55.2527Z" fill="#4F575F"/>
<path d="M60.3899 53.436L60.3856 54.9531L53.4443 58.987L53.4486 57.4699L60.3899 53.436Z" fill="#3D4449"/>
<path d="M53.4487 57.4699L53.4444 58.987L46.4636 54.9566L46.4679 53.4396L53.4487 57.4699Z" fill="#2A3134"/>
<path d="M60.3896 53.436L53.4482 57.4699L46.4674 53.4395L53.4088 49.4056L60.3896 53.436Z" fill="#4F575F"/>
<path d="M51.1356 56.5778C51.2636 56.6517 51.3616 56.8216 51.3612 56.9686C51.3608 57.1155 51.2621 57.1831 51.1341 57.1092C51.0062 57.0354 50.9082 56.8543 50.9086 56.7073C50.909 56.5603 51.0077 56.504 51.1356 56.5778Z" fill="#F04343"/>
<path d="M51.9132 57.0265C52.041 57.1003 52.149 57.2759 52.1485 57.4229C52.1481 57.5699 52.0395 57.6318 51.9117 57.5579C51.7936 57.4898 51.6857 57.3029 51.6861 57.1559C51.6865 57.0089 51.7951 56.9583 51.9132 57.0265Z" fill="#FFCA6C"/>
<path d="M52.7004 57.4811C52.8283 57.555 52.9264 57.7249 52.926 57.8719C52.9256 58.0189 52.8268 58.0865 52.6988 58.0126C52.571 57.9388 52.4729 57.7575 52.4733 57.6105C52.4737 57.4635 52.5725 57.4073 52.7004 57.4811Z" fill="#49E4A3"/>
<path d="M60.1467 53.8164L60.147 53.9443L57.5255 55.4579L57.5251 55.3299L60.1467 53.8164Z" fill="#DEDFFB"/>
<path d="M60.1495 54.7472L60.1499 54.8809L57.5284 56.3945L57.528 56.2607L60.1495 54.7472Z" fill="#DEDFFB"/>
<path d="M60.1497 54.4387L60.1501 54.5667L57.5286 56.0802L57.5282 55.9523L60.1497 54.4387Z" fill="#DEDFFB"/>
<path d="M60.1478 54.1248L60.1481 54.2527L57.5266 55.7662L57.5262 55.6383L60.1478 54.1248Z" fill="#DEDFFB"/>
<path d="M60.3899 51.3683L60.3856 52.8854L53.4443 56.9192L53.4486 55.4022L60.3899 51.3683Z" fill="#3D4449"/>
<path d="M53.4487 55.4022L53.4444 56.9193L46.4636 52.8889L46.4679 51.3718L53.4487 55.4022Z" fill="#2A3134"/>
<path d="M60.3896 51.3684L53.4482 55.4022L46.4674 51.3719L53.4088 47.338L60.3896 51.3684Z" fill="#4F575F"/>
<path d="M51.1356 54.5101C51.2636 54.584 51.3616 54.7539 51.3612 54.9009C51.3608 55.0479 51.2621 55.1155 51.1341 55.0416C51.0062 54.9678 50.9082 54.7866 50.9086 54.6396C50.909 54.4926 51.0077 54.4363 51.1356 54.5101Z" fill="#F04343"/>
<path d="M51.9132 54.9589C52.041 55.0327 52.149 55.2083 52.1485 55.3553C52.1481 55.5023 52.0395 55.5641 51.9117 55.4903C51.7936 55.4221 51.6857 55.2353 51.6861 55.0883C51.6865 54.9413 51.7951 54.8907 51.9132 54.9589Z" fill="#FFCA6C"/>
<path d="M52.7004 55.4135C52.8283 55.4874 52.9264 55.6573 52.926 55.8043C52.9256 55.9513 52.8268 56.0188 52.6988 55.9449C52.571 55.8711 52.4729 55.6899 52.4733 55.5429C52.4737 55.3959 52.5725 55.3397 52.7004 55.4135Z" fill="#49E4A3"/>
<path d="M60.1467 51.7488L60.147 51.8767L57.5255 53.3902L57.5251 53.2623L60.1467 51.7488Z" fill="#DEDFFB"/>
<path d="M60.1495 52.6796L60.1499 52.8133L57.5284 54.3268L57.528 54.1931L60.1495 52.6796Z" fill="#DEDFFB"/>
<path d="M60.1497 52.3711L60.1501 52.499L57.5286 54.0126L57.5282 53.8846L60.1497 52.3711Z" fill="#DEDFFB"/>
<path d="M60.1478 52.0571L60.1481 52.1851L57.5266 53.6986L57.5262 53.5707L60.1478 52.0571Z" fill="#DEDFFB"/>
<path d="M60.3899 49.3L60.3856 50.8171L53.4443 54.851L53.4486 53.3339L60.3899 49.3Z" fill="#3D4449"/>
<path d="M53.4487 53.3339L53.4444 54.851L46.4636 50.8207L46.4679 49.3036L53.4487 53.3339Z" fill="#2A3134"/>
<path d="M60.3896 49.3L53.4482 53.3339L46.4674 49.3035L53.4088 45.2697L60.3896 49.3Z" fill="#4F575F"/>
<path d="M51.1356 52.4418C51.2636 52.5157 51.3616 52.6856 51.3612 52.8326C51.3608 52.9796 51.2621 53.0471 51.1341 52.9732C51.0062 52.8994 50.9082 52.7183 50.9086 52.5713C50.909 52.4243 51.0077 52.368 51.1356 52.4418Z" fill="#F04343"/>
<path d="M51.9132 52.8907C52.041 52.9646 52.149 53.1402 52.1485 53.2871C52.1481 53.4341 52.0395 53.496 51.9117 53.4222C51.7936 53.354 51.6857 53.1672 51.6861 53.0202C51.6865 52.8732 51.7951 52.8226 51.9132 52.8907Z" fill="#FFCA6C"/>
<path d="M52.7004 53.3453C52.8283 53.4191 52.9264 53.589 52.926 53.736C52.9256 53.883 52.8268 53.9506 52.6988 53.8767C52.571 53.8029 52.4729 53.6217 52.4733 53.4747C52.4737 53.3277 52.5725 53.2714 52.7004 53.3453Z" fill="#49E4A3"/>
<path d="M60.1467 49.6804L60.147 49.8084L57.5255 51.3219L57.5251 51.194L60.1467 49.6804Z" fill="#DEDFFB"/>
<path d="M60.1495 50.6111L60.1499 50.7448L57.5284 52.2583L57.528 52.1246L60.1495 50.6111Z" fill="#DEDFFB"/>
<path d="M60.1497 50.3027L60.1501 50.4307L57.5286 51.9442L57.5282 51.8163L60.1497 50.3027Z" fill="#DEDFFB"/>
<path d="M60.1478 49.989L60.1481 50.1169L57.5266 51.6305L57.5262 51.5025L60.1478 49.989Z" fill="#DEDFFB"/>
<path d="M60.39 47.2318L60.3857 48.7489L53.4443 52.7828L53.4486 51.2657L60.39 47.2318Z" fill="#3D4449"/>
<path d="M53.4487 51.2657L53.4444 52.7828L46.4636 48.7524L46.4679 47.2354L53.4487 51.2657Z" fill="#2A3134"/>
<path d="M60.3896 47.2319L53.4483 51.2658L46.4675 47.2354L53.4088 43.2015L60.3896 47.2319Z" fill="#4F575F"/>
<path d="M51.1356 50.3737C51.2636 50.4476 51.3617 50.6175 51.3613 50.7645C51.3608 50.9114 51.2621 50.979 51.1341 50.9051C51.0063 50.8313 50.9083 50.6502 50.9087 50.5032C50.9091 50.3562 51.0078 50.2999 51.1356 50.3737Z" fill="#F04343"/>
<path d="M51.9132 50.8225C52.0411 50.8963 52.149 51.0719 52.1486 51.2189C52.1482 51.3659 52.0396 51.4278 51.9117 51.354C51.7936 51.2858 51.6857 51.0989 51.6862 50.9519C51.6866 50.8049 51.7951 50.7543 51.9132 50.8225Z" fill="#FFCA6C"/>
<path d="M52.7004 51.2771C52.8284 51.351 52.9264 51.5209 52.926 51.6679C52.9256 51.8149 52.8269 51.8825 52.6989 51.8086C52.5711 51.7348 52.4729 51.5535 52.4733 51.4065C52.4737 51.2596 52.5726 51.2033 52.7004 51.2771Z" fill="#49E4A3"/>
<path d="M60.1467 47.6123L60.1471 47.7402L57.5256 49.2538L57.5252 49.1258L60.1467 47.6123Z" fill="#DEDFFB"/>
<path d="M60.1496 48.5427L60.15 48.6765L57.5285 50.19L57.5281 50.0563L60.1496 48.5427Z" fill="#DEDFFB"/>
<path d="M60.1498 48.2345L60.1501 48.3624L57.5286 49.876L57.5283 49.748L60.1498 48.2345Z" fill="#DEDFFB"/>
<path d="M60.1478 47.9205L60.1482 48.0485L57.5267 49.562L57.5263 49.4341L60.1478 47.9205Z" fill="#DEDFFB"/>
<g opacity="0.3">
<path d="M61.4083 44.5862L61.4033 55.283L53.4473 59.9065L53.4522 49.2098L61.4083 44.5862Z" fill="#6BB4F9"/>
<path d="M53.4521 49.2099L53.4472 59.9067L45.4459 55.2871L45.4509 44.5903L53.4521 49.2099Z" fill="#5094FF"/>
<path d="M61.4082 44.5863L53.4522 49.2099L45.4509 44.5904L53.407 39.9668L61.4082 44.5863Z" fill="#6BB4F9"/>
</g>
<path d="M61.4082 43.0803L61.4032 44.8192L53.4471 49.4427L53.4521 47.7039L61.4082 43.0803Z" fill="#71D8F8"/>
<path d="M53.452 47.704L53.4471 49.4429L45.4458 44.8233L45.4507 43.0845L53.452 47.704Z" fill="#4DCDF3"/>
<path d="M61.4081 43.0805L53.452 47.7041L45.4507 43.0845L53.4068 38.4609L61.4081 43.0805Z" fill="#95E2FE"/>
<path d="M58.8362 43.0811L53.4448 46.2143L48.0226 43.0839L53.4141 39.9507L58.8362 43.0811Z" fill="#4DCDF3"/>
<path d="M26.9586 58.2719C26.9134 58.1941 26.9395 58.0941 27.0173 58.0488L42.2038 49.2238L39.3495 47.5758C39.2717 47.5309 39.245 47.4312 39.2896 47.3531C39.3348 47.2744 39.4355 47.2483 39.5126 47.2935L42.611 49.0823C42.7202 49.1452 42.7188 49.3022 42.6116 49.3646L27.1817 58.3311C27.1027 58.3764 27.0031 58.3494 26.9586 58.2719Z" fill="#BBCFEF"/>
</svg>
