<svg width="52" height="54" viewBox="0 0 52 54" fill="none" xmlns="http://www.w3.org/2000/svg">
<path d="M47.6 43.575H51.8562C51.7437 41.8687 51.1625 40.2938 50.225 39C49.325 39.4125 48.2938 39.7313 47.1875 39.975C47.4125 41.1 47.5625 42.3187 47.6 43.575Z" fill="#FFFFFE"/>
<path d="M47.1875 48.4312C48.2938 48.6562 49.3063 48.975 50.225 49.3875C51.1438 48.075 51.7437 46.5 51.8562 44.8125H47.6C47.5625 46.1063 47.4313 47.3062 47.1875 48.4312Z" fill="#FFFFFE"/>
<path d="M46.3246 37.1065C46.5496 37.6128 46.7371 38.1565 46.8871 38.7378C47.7871 38.5503 48.6309 38.2878 49.3809 37.9878C48.3121 36.8628 46.9621 36.0003 45.4434 35.5503C45.7809 35.9815 46.0621 36.5065 46.3246 37.1065Z" fill="#FFFFFE"/>
<path d="M46.3252 51.3002C46.0627 51.8814 45.7814 52.4064 45.4814 52.8564C47.0002 52.3877 48.3314 51.5439 49.3814 50.4189C48.6314 50.1189 47.7877 49.8564 46.8877 49.6689C46.7377 50.2502 46.5502 50.7939 46.3252 51.3002Z" fill="#FFFFFE"/>
<path d="M45.9688 40.1821C44.9563 40.3321 43.9063 40.4071 42.8188 40.4071C41.7313 40.4071 40.6813 40.3321 39.6875 40.1821C39.4812 41.2134 39.35 42.3384 39.3125 43.5759H46.3438C46.3063 42.3571 46.175 41.1946 45.9688 40.1821Z" fill="#FFFFFE"/>
<path d="M42.8375 47.9996C43.9062 47.9996 44.9563 48.0746 45.9688 48.2246C46.175 47.2121 46.3063 46.0684 46.3438 44.8496H39.3125C39.35 46.0871 39.4812 47.2121 39.6875 48.2246C40.7 48.0746 41.75 47.9996 42.8375 47.9996Z" fill="#FFFFFE"/>
<path d="M42.8378 49.2378C41.8628 49.2378 40.9065 49.294 39.9878 49.4253C40.6815 51.7878 41.7878 53.2315 42.819 53.2315C43.8503 53.2315 44.9565 51.8065 45.6503 49.4253C44.7503 49.3315 43.8128 49.2378 42.8378 49.2378Z" fill="#FFFFFE"/>
<path d="M13.2309 19.4437H26.8059C26.8434 19.425 26.8996 19.425 26.9371 19.425C26.9746 19.425 27.0309 19.425 27.0684 19.4437H40.6059C43.1184 19.4437 45.1434 17.4 45.1434 14.9062C45.1434 12.3937 43.0996 10.3687 40.6059 10.3687C40.4371 10.3687 40.2684 10.3125 40.1559 10.1812C40.0434 10.05 39.9684 9.88125 39.9684 9.7125C40.0246 8.175 39.5184 6.75 38.5246 5.71875C37.5684 4.70625 36.1996 4.125 34.7934 4.125C34.0059 4.125 33.2559 4.29375 32.5809 4.63125C32.4121 4.70625 32.2246 4.725 32.0559 4.65C31.8871 4.575 31.7559 4.425 31.7184 4.275C31.0621 2.15625 29.1121 0.75 26.9184 0.75C24.7246 0.75 22.7746 2.15625 22.1184 4.25625C22.0621 4.44375 21.9309 4.575 21.7809 4.63125C21.6121 4.70625 21.4246 4.6875 21.2559 4.6125C20.5996 4.275 19.8309 4.10625 19.0434 4.10625C17.6559 4.10625 16.2871 4.6875 15.3121 5.7C14.3184 6.73125 13.7934 8.15625 13.8684 9.69375C13.8871 9.8625 13.8121 10.0312 13.6809 10.1625C13.5684 10.2937 13.3996 10.35 13.2309 10.35C10.7184 10.35 8.69336 12.3937 8.69336 14.9062C8.69336 17.4 10.7371 19.4437 13.2309 19.4437Z" fill="#FFFFFE"/>
<path d="M45.6687 38.9625C44.975 36.6 43.8688 35.1562 42.8188 35.1562C41.7688 35.1562 40.6625 36.6 39.9688 38.9625C40.8688 39.0937 41.825 39.15 42.8188 39.15C43.8125 39.1687 44.75 39.075 45.6687 38.9625Z" fill="#FFFFFE"/>
<path d="M36.2559 37.9875C37.0059 38.3063 37.8496 38.5688 38.7496 38.7375C38.9184 38.1563 39.1059 37.6125 39.3121 37.1062C39.5746 36.4875 39.8559 35.9625 40.1746 35.5312C38.6559 36 37.3059 36.8625 36.2559 37.9875Z" fill="#FFFFFE"/>
<path d="M38.7504 49.6689C37.8504 49.8564 37.0254 50.1189 36.2754 50.4189C37.3441 51.5252 38.6754 52.3689 40.1754 52.8377C39.8754 52.4064 39.5941 51.8814 39.3316 51.2814C39.0879 50.7939 38.9191 50.2502 38.7504 49.6689Z" fill="#FFFFFE"/>
<path d="M38.45 39.975C37.3437 39.75 36.3313 39.4125 35.4125 39C34.4938 40.3125 33.8938 41.8875 33.7812 43.575H38.0375C38.0938 42.3187 38.225 41.1 38.45 39.975Z" fill="#FFFFFE"/>
<path d="M38.0565 44.8315H33.8003C33.9128 46.519 34.5128 48.094 35.4315 49.4065C36.3315 48.994 37.3628 48.6753 38.4503 48.4503C38.2253 47.3065 38.094 46.1065 38.0565 44.8315Z" fill="#FFFFFE"/>
<path d="M28.2879 25.4259C28.2316 24.7134 27.6504 24.1509 26.9379 24.1509C26.1879 24.1509 25.5879 24.7509 25.5879 25.5009C25.5879 26.2509 26.1879 26.8509 26.9379 26.8509C27.6504 26.8509 28.2504 26.3071 28.2879 25.5946C28.2691 25.5759 28.2691 25.5384 28.2691 25.5009C28.2879 25.4821 28.2879 25.4634 28.2879 25.4259Z" fill="#FFFFFE"/>
<path d="M21.669 35.175H0.387794V35.1562C0.237794 35.1562 0.144043 35.2687 0.144043 35.4V40.1062C0.144043 40.2 0.181543 40.2562 0.219043 40.2937C0.237793 40.3125 0.275293 40.35 0.331543 40.35H0.387794C0.425294 40.35 0.481543 40.35 0.519043 40.3687H21.5565C21.594 40.35 21.6503 40.35 21.6878 40.35H21.744C21.8378 40.3313 21.9315 40.2188 21.9315 40.125V35.4187C21.9128 35.2875 21.8003 35.175 21.669 35.175ZM3.51904 37.9125C3.50029 37.95 3.50029 37.9875 3.48154 38.025C3.46279 38.0625 3.44404 38.1 3.42529 38.1187C3.40654 38.1562 3.36904 38.175 3.35029 38.2125C3.33154 38.25 3.29404 38.2688 3.25654 38.2875C3.21904 38.3063 3.20029 38.325 3.16279 38.3438C3.12529 38.3625 3.08779 38.3625 3.05029 38.3813C3.03154 38.3813 2.99404 38.4 2.93779 38.4C2.76904 38.4 2.60029 38.3437 2.50654 38.2125C2.48779 38.1937 2.45029 38.1562 2.43154 38.1187C2.41279 38.0812 2.39404 38.0625 2.37529 38.025C2.35654 37.9875 2.35654 37.95 2.33779 37.9125C2.31904 37.875 2.31904 37.8375 2.31904 37.7812C2.31904 37.6125 2.37529 37.4625 2.50654 37.3313C2.52529 37.3125 2.56279 37.275 2.60029 37.2563C2.63779 37.2375 2.65654 37.2187 2.69404 37.2C2.73154 37.1812 2.76904 37.1813 2.80654 37.1625C2.88154 37.1438 2.97529 37.1438 3.05029 37.1625C3.08779 37.1813 3.12529 37.1812 3.16279 37.2C3.20029 37.2187 3.23779 37.2375 3.25654 37.2563C3.29404 37.275 3.31279 37.3125 3.35029 37.3313C3.46279 37.4438 3.53779 37.6125 3.53779 37.7812C3.53779 37.8187 3.53779 37.8563 3.51904 37.9125ZM6.98779 37.9125C6.96905 37.95 6.96904 37.9875 6.95029 38.025C6.93154 38.0625 6.9128 38.1 6.89404 38.1187C6.8753 38.1562 6.83779 38.175 6.81904 38.2125C6.80029 38.2312 6.76279 38.2688 6.72529 38.2875C6.68779 38.3063 6.66904 38.325 6.63154 38.3438C6.59404 38.3625 6.55654 38.3625 6.51904 38.3813C6.50029 38.3813 6.46279 38.4 6.40654 38.4C6.36904 38.4 6.33154 38.4 6.27529 38.3813C6.23779 38.3625 6.20029 38.3625 6.16279 38.3438C6.12529 38.325 6.08779 38.3063 6.06904 38.2875C6.03154 38.2688 6.01279 38.2312 5.97529 38.2125C5.95654 38.1937 5.91904 38.1562 5.90029 38.1187C5.88154 38.0812 5.86279 38.0625 5.84404 38.025C5.82529 37.9875 5.82529 37.95 5.80654 37.9125C5.78779 37.875 5.78779 37.8375 5.78779 37.7812C5.78779 37.6125 5.84404 37.4438 5.97529 37.3313C5.99404 37.3125 6.03154 37.275 6.06904 37.2563C6.10654 37.2375 6.12529 37.2187 6.16279 37.2C6.20029 37.1812 6.23779 37.1813 6.27529 37.1625C6.35029 37.1438 6.44405 37.1438 6.51904 37.1625C6.55654 37.1813 6.59404 37.1812 6.63154 37.2C6.66904 37.2187 6.70654 37.2375 6.72529 37.2563C6.76279 37.275 6.78154 37.3125 6.81904 37.3313C6.93154 37.4438 7.00654 37.6125 7.00654 37.7812C6.98779 37.8187 6.98779 37.8563 6.98779 37.9125ZM10.4565 37.9125C10.4378 37.95 10.4378 37.9875 10.419 38.025C10.4003 38.0625 10.3815 38.1 10.3628 38.1187C10.344 38.1562 10.3065 38.175 10.2878 38.2125C10.269 38.2312 10.2315 38.2688 10.194 38.2875C10.1565 38.3063 10.119 38.325 10.0815 38.3438C10.044 38.3625 10.0065 38.3625 9.96904 38.3813C9.91279 38.3813 9.87529 38.4 9.83779 38.4C9.66904 38.4 9.51904 38.3437 9.40654 38.2125C9.38779 38.1937 9.3503 38.1562 9.33154 38.1187C9.31279 38.0812 9.29404 38.0625 9.27529 38.025C9.25654 37.9875 9.25655 37.95 9.23779 37.9125C9.21904 37.875 9.21904 37.8375 9.21904 37.7812C9.21904 37.6125 9.27529 37.4625 9.40654 37.3313C9.42529 37.3125 9.46279 37.275 9.50029 37.2563C9.53779 37.2375 9.5753 37.2187 9.61279 37.2C9.6503 37.1812 9.68779 37.1813 9.72529 37.1625C9.80029 37.1438 9.89404 37.1438 9.96904 37.1625C10.0065 37.1813 10.044 37.1812 10.0815 37.2C10.119 37.2187 10.1565 37.2375 10.194 37.2563C10.2315 37.275 10.2503 37.3125 10.2878 37.3313C10.4003 37.4438 10.4753 37.6125 10.4753 37.7812C10.4565 37.8187 10.4565 37.8563 10.4565 37.9125ZM19.119 38.4H14.6753C14.3378 38.4 14.0565 38.1188 14.0565 37.7812C14.0565 37.4437 14.3378 37.1625 14.6753 37.1625H19.119C19.4565 37.1625 19.7378 37.4437 19.7378 37.7812C19.7565 38.1188 19.4753 38.4 19.119 38.4Z" fill="#FFFFFE"/>
<path d="M21.669 48.0759H0.387794V48.0571C0.237794 48.0571 0.144043 48.1696 0.144043 48.3009V53.0071C0.144043 53.1009 0.181543 53.1571 0.219043 53.1946C0.237793 53.2134 0.312793 53.2696 0.406543 53.2696H21.6878C21.8378 53.2696 21.9315 53.1571 21.9315 53.0259V48.3196C21.9128 48.1884 21.8003 48.0759 21.669 48.0759ZM3.55654 50.7759C3.53779 50.8134 3.53779 50.8509 3.51904 50.8884C3.50029 50.9259 3.48154 50.9634 3.46279 51.0009C3.44404 51.0384 3.40654 51.0571 3.38779 51.0946C3.27529 51.2071 3.10654 51.2821 2.93779 51.2821C2.76904 51.2821 2.61904 51.2259 2.50654 51.0946C2.48779 51.0759 2.45029 51.0384 2.43154 51.0009C2.41279 50.9634 2.39404 50.9259 2.37529 50.8884C2.35654 50.8509 2.35654 50.8134 2.33779 50.7759C2.31904 50.7384 2.31904 50.7009 2.31904 50.6446C2.31904 50.4759 2.37529 50.3071 2.50654 50.1946C2.61904 50.0821 2.78779 50.0071 2.95654 50.0071C3.12529 50.0071 3.27529 50.0634 3.38779 50.1946C3.40654 50.2134 3.44404 50.2509 3.46279 50.2884L3.51904 50.4009C3.51904 50.4009 3.53779 50.4759 3.55654 50.5134C3.57529 50.5509 3.57529 50.5884 3.57529 50.6446C3.57529 50.7009 3.55654 50.7384 3.55654 50.7759ZM6.98779 50.7759C6.96905 50.8134 6.96904 50.8509 6.95029 50.8884C6.93154 50.9259 6.9128 50.9634 6.89404 51.0009C6.8753 51.0384 6.83779 51.0571 6.81904 51.0946C6.70654 51.2071 6.53779 51.2821 6.36904 51.2821C6.20029 51.2821 6.05029 51.2259 5.91904 51.0946C5.90029 51.0759 5.86279 51.0384 5.84404 51.0009C5.82529 50.9634 5.80654 50.9259 5.78779 50.8884C5.76904 50.8509 5.76904 50.8134 5.75029 50.7759C5.73154 50.7384 5.73154 50.7009 5.73154 50.6446C5.73154 50.6071 5.73154 50.5696 5.75029 50.5134C5.76904 50.4759 5.76904 50.4384 5.78779 50.4009L5.84404 50.2884C5.84404 50.2884 5.90029 50.2321 5.91904 50.1946C6.03154 50.0821 6.20029 50.0071 6.36904 50.0071C6.53779 50.0071 6.68779 50.0634 6.81904 50.1946C6.93154 50.3071 7.00654 50.4759 7.00654 50.6446C7.00654 50.7009 7.00655 50.7384 6.98779 50.7759ZM10.4565 50.7759C10.4378 50.8134 10.4378 50.8509 10.419 50.8884C10.4003 50.9259 10.3815 50.9634 10.3628 51.0009C10.344 51.0384 10.3065 51.0571 10.2878 51.0946C10.1565 51.2259 10.0065 51.2821 9.83779 51.2821C9.66904 51.2821 9.51904 51.2259 9.40654 51.0946C9.38779 51.0759 9.3503 51.0384 9.33154 51.0009C9.31279 50.9634 9.29404 50.9259 9.27529 50.8884C9.25654 50.8509 9.25655 50.8134 9.23779 50.7759C9.21904 50.7384 9.21904 50.7009 9.21904 50.6446C9.21904 50.4759 9.27529 50.3071 9.40654 50.1946C9.42529 50.1759 9.46279 50.1384 9.50029 50.1196C9.53779 50.1009 9.5753 50.0821 9.61279 50.0634C9.6503 50.0446 9.68779 50.0446 9.72529 50.0259C9.93154 49.9884 10.1565 50.0446 10.2878 50.1946C10.3065 50.2134 10.344 50.2509 10.3628 50.2884L10.419 50.4009C10.419 50.4009 10.4378 50.4759 10.4565 50.5134C10.4753 50.5509 10.4753 50.5884 10.4753 50.6446C10.4565 50.6821 10.4565 50.7196 10.4565 50.7759ZM19.119 51.3009H14.6753C14.3378 51.3009 14.0565 51.0196 14.0565 50.6821C14.0565 50.3446 14.3378 50.0634 14.6753 50.0634H19.119C19.4565 50.0634 19.7378 50.3446 19.7378 50.6821C19.7565 51.0009 19.4753 51.3009 19.119 51.3009Z" fill="#FFFFFE"/>
<path d="M21.669 41.625H0.387794C0.237794 41.625 0.144043 41.7375 0.144043 41.8687V46.575C0.144043 46.6687 0.181543 46.725 0.219043 46.7625C0.237793 46.7812 0.275293 46.8188 0.331543 46.8188H0.387794H21.669H21.6878C21.8378 46.8188 21.9315 46.7062 21.9315 46.575V41.85C21.9128 41.7188 21.8003 41.625 21.669 41.625ZM3.51904 44.3438C3.50029 44.3812 3.50029 44.4188 3.48154 44.4563C3.46279 44.4938 3.44404 44.5313 3.42529 44.5688C3.40654 44.6063 3.36904 44.625 3.35029 44.6625C3.33154 44.7 3.29404 44.7188 3.25654 44.7375C3.21904 44.7563 3.18154 44.775 3.16279 44.7937C3.12529 44.8125 3.08779 44.8125 3.05029 44.8313C3.03154 44.8313 2.99404 44.85 2.93779 44.85C2.90029 44.85 2.86279 44.85 2.80654 44.8313C2.76904 44.8125 2.73154 44.8125 2.69404 44.7937C2.65654 44.775 2.61904 44.7563 2.60029 44.7375C2.56279 44.7188 2.54404 44.6813 2.50654 44.6625C2.48779 44.6438 2.45029 44.6063 2.43154 44.5688C2.41279 44.5313 2.39404 44.4938 2.37529 44.4563C2.35654 44.4188 2.35654 44.3812 2.33779 44.3438C2.31904 44.3063 2.31904 44.2687 2.31904 44.2125C2.31904 44.0437 2.37529 43.875 2.50654 43.7625C2.52529 43.7437 2.56279 43.7062 2.60029 43.6875C2.63779 43.6688 2.67529 43.65 2.69404 43.6313C2.73154 43.6125 2.76904 43.6125 2.80654 43.5938C2.88154 43.575 2.97529 43.575 3.05029 43.5938C3.08779 43.6125 3.12529 43.6125 3.16279 43.6313C3.20029 43.65 3.23779 43.6688 3.25654 43.6875C3.29404 43.7062 3.31279 43.7437 3.35029 43.7625C3.36904 43.7812 3.40654 43.8187 3.42529 43.8562L3.48154 43.9688C3.48154 43.9688 3.50029 44.0438 3.51904 44.0813C3.53779 44.1188 3.53779 44.1562 3.53779 44.2125C3.53779 44.25 3.53779 44.2875 3.51904 44.3438ZM6.98779 44.3438C6.96905 44.3812 6.96904 44.4188 6.95029 44.4563C6.93154 44.4938 6.9128 44.5313 6.89404 44.5688C6.8753 44.6063 6.83779 44.625 6.81904 44.6625C6.80029 44.6813 6.76279 44.7188 6.72529 44.7375C6.68779 44.7563 6.66904 44.775 6.63154 44.7937C6.59404 44.8125 6.55654 44.8125 6.51904 44.8313C6.48154 44.8313 6.44404 44.85 6.38779 44.85C6.21904 44.85 6.06904 44.7938 5.93779 44.6625C5.91904 44.6438 5.88155 44.6063 5.86279 44.5688C5.84404 44.5313 5.82529 44.4938 5.80654 44.4563C5.78779 44.4188 5.7878 44.3812 5.76904 44.3438C5.75029 44.3063 5.75029 44.2687 5.75029 44.2125C5.75029 44.0437 5.80654 43.8937 5.93779 43.7625C6.08779 43.6125 6.29404 43.5375 6.50029 43.5938C6.53779 43.6125 6.57529 43.6125 6.61279 43.6313C6.65029 43.65 6.68779 43.6688 6.72529 43.6875C6.76279 43.7062 6.78154 43.7437 6.81904 43.7625C6.93154 43.875 7.00654 44.0437 7.00654 44.2125C6.98779 44.25 6.98779 44.2875 6.98779 44.3438ZM10.4378 44.3438C10.419 44.3812 10.419 44.4188 10.4003 44.4563C10.3815 44.4938 10.3628 44.5313 10.344 44.5688C10.3253 44.6063 10.2878 44.625 10.269 44.6625C10.2503 44.6813 10.2128 44.7188 10.1753 44.7375C10.1378 44.7563 10.1003 44.775 10.0628 44.7937C10.0253 44.8125 9.98779 44.8125 9.95029 44.8313C9.91279 44.8313 9.87529 44.85 9.83779 44.85C9.80029 44.85 9.7628 44.85 9.70654 44.8313C9.66905 44.8125 9.63154 44.8125 9.59404 44.7937C9.55654 44.775 9.51904 44.7563 9.48154 44.7375C9.44404 44.7188 9.42529 44.6813 9.38779 44.6625C9.35029 44.6438 9.33154 44.6063 9.31279 44.5688C9.29404 44.5313 9.27529 44.4938 9.25654 44.4563C9.23779 44.4188 9.23779 44.3812 9.21904 44.3438C9.20029 44.3063 9.20029 44.2687 9.20029 44.2125C9.20029 44.0437 9.25654 43.875 9.38779 43.7625C9.40654 43.7437 9.44404 43.7062 9.48154 43.6875C9.51904 43.6688 9.55654 43.65 9.59404 43.6313C9.63154 43.6125 9.66905 43.6125 9.70654 43.5938C9.78155 43.575 9.87529 43.575 9.95029 43.5938C9.98779 43.6125 10.0253 43.6125 10.0628 43.6313C10.1003 43.65 10.1378 43.6688 10.1753 43.6875C10.2128 43.7062 10.2315 43.7437 10.269 43.7625C10.2878 43.7812 10.3253 43.8187 10.344 43.8562L10.4003 43.9688C10.4003 43.9688 10.419 44.0438 10.4378 44.0813C10.4565 44.1188 10.4565 44.1562 10.4565 44.2125C10.4565 44.25 10.4565 44.2875 10.4378 44.3438ZM19.119 44.8313H14.6753C14.3378 44.8313 14.0565 44.55 14.0565 44.2125C14.0565 43.875 14.3378 43.5938 14.6753 43.5938H19.119C19.4565 43.5938 19.7378 43.875 19.7378 44.2125C19.7378 44.55 19.4753 44.8313 19.119 44.8313Z" fill="#FFFFFE"/>
<path d="M40.7002 26.1371C41.5252 26.1371 42.1814 26.7934 42.1814 27.6184V30.3746L40.2877 28.5746C40.0252 28.3309 39.6502 28.3496 39.4064 28.5934C39.1627 28.8559 39.1814 29.2309 39.4252 29.4746L42.3689 32.2496C42.4627 32.3434 42.5752 32.3809 42.6689 32.3996C42.6877 32.3996 42.7064 32.4184 42.7252 32.4184C42.7439 32.4184 42.7627 32.4184 42.7814 32.4184C42.8002 32.4184 42.8189 32.4184 42.8377 32.4184C42.8564 32.4184 42.8752 32.4184 42.8939 32.3996H42.9127C42.969 32.3809 43.0252 32.3809 43.0814 32.3434C43.1189 32.3246 43.1752 32.2871 43.1939 32.2496L43.2877 32.1559L46.1564 29.4746C46.4189 29.2496 46.4189 28.8559 46.1752 28.5934C45.9502 28.3309 45.5564 28.3309 45.2939 28.5746L43.4189 30.3371V27.6184C43.4189 26.0996 42.1814 24.8809 40.6814 24.8809H29.4502C29.5064 25.0871 29.5252 25.2934 29.5252 25.4996C29.5252 25.7246 29.5064 25.9309 29.4502 26.1184L40.7002 26.1371Z" fill="#FFFFFE"/>
<path d="M26.3 22.9884C26.5063 22.9321 26.7125 22.9134 26.9187 22.9134C27.125 22.9134 27.35 22.9321 27.5375 22.9884V20.6821H26.2812V22.9884H26.3Z" fill="#FFFFFE"/>
<path d="M24.4059 24.8809H13.1372C11.6184 24.8809 10.3997 26.1184 10.3997 27.6184V30.3371L8.52468 28.5746C8.26218 28.3309 7.86844 28.3496 7.64344 28.5934C7.39969 28.8559 7.41843 29.2496 7.66218 29.4746L10.5309 32.1559L10.6247 32.2496C10.7184 32.3434 10.8497 32.3996 10.9809 32.4184H11.0372H11.0559C11.2059 32.4184 11.3559 32.3621 11.4872 32.2496L14.4309 29.4746C14.6934 29.2496 14.6934 28.8559 14.4497 28.5934C14.2247 28.3309 13.8309 28.3309 13.5684 28.5746L11.6747 30.3746V27.6371C11.6747 26.8121 12.3309 26.1559 13.1559 26.1559H24.4247C24.3684 25.9496 24.3497 25.7434 24.3497 25.5371C24.3309 25.3121 24.3497 25.0871 24.4059 24.8809Z" fill="#FFFFFE"/>
</svg>
