<svg width="96" height="96" viewBox="0 0 96 96" fill="none" xmlns="http://www.w3.org/2000/svg">
<rect width="96" height="96" rx="48" fill="#DBEAFE"/>
<g clip-path="url(#clip0_3238_3419)">
<path d="M35.9507 58.6436H25.4069C24.8381 58.6436 24.3253 58.9862 24.1077 59.5117C23.8901 60.0371 24.0104 60.642 24.4126 61.0442L34.9564 71.588C35.3586 71.9902 35.9634 72.1105 36.4889 71.8929C37.0144 71.6752 37.357 71.1624 37.357 70.5937V60.0498C37.3569 59.2732 36.7273 58.6436 35.9507 58.6436Z" fill="#CFE3FF"/>
<path d="M55.5319 72H35.9507C35.1741 72 34.5445 71.3704 34.5445 70.5938V62.8625C34.5445 62.0858 33.9148 61.4562 33.1382 61.4562H25.4069C24.6303 61.4562 24.0007 60.8266 24.0007 60.05V25.4062C24.0007 24.6296 24.6303 24 25.4069 24H55.5319C56.3085 24 56.9381 24.6296 56.9381 25.4062V70.5938C56.9381 71.3704 56.3085 72 55.5319 72Z" fill="#F3F9FF"/>
<path d="M55.5319 24H40.4694V72H55.532C56.3086 72 56.9382 71.3704 56.9382 70.5938V25.4062C56.9381 24.6296 56.3085 24 55.5319 24Z" fill="#E1EEFF"/>
<path d="M64.4573 66.1875L55.7288 57.4575C55.1797 56.9083 55.1798 56.0179 55.729 55.4688L59.9917 51.2084C60.5408 50.6593 61.4313 50.6594 61.9805 51.2085L70.7092 59.9388C72.4311 61.6617 72.4311 64.4648 70.7094 66.1876C68.9863 67.9117 66.1856 67.9169 64.4573 66.1875Z" fill="#142D3F"/>
<path d="M70.7088 59.9388L61.9801 51.2085C61.431 50.6594 60.5405 50.6593 59.9914 51.2084L57.86 53.3386L70.709 66.1876C72.4307 64.4649 72.4307 61.6618 70.7088 59.9388Z" fill="#070F15"/>
<path d="M60.0818 55.5665C65.9242 49.7242 65.9242 40.2519 60.0818 34.4095C54.2395 28.5672 44.7672 28.5672 38.9249 34.4095C33.0825 40.2519 33.0825 49.7242 38.9249 55.5665C44.7672 61.4089 54.2395 61.4089 60.0818 55.5665Z" fill="#60C7FF"/>
<path d="M49.5087 30.0251C45.3839 30.0251 41.6435 31.7029 38.9343 34.4119L60.0845 55.5622C62.7935 52.8529 64.4713 49.1126 64.4713 44.9877C64.4712 36.7373 57.7591 30.0251 49.5087 30.0251Z" fill="#2585FD"/>
<path d="M57.7774 48.414C59.6679 43.853 57.5032 38.6231 52.9423 36.7326C48.3814 34.8421 43.1515 37.0069 41.261 41.5679C39.3705 46.1288 41.5352 51.3587 46.0961 53.2492C50.657 55.1397 55.8869 52.9749 57.7774 48.414Z" fill="#E1EEFF"/>
<path d="M49.5082 36.0498C47.0445 36.0498 44.8104 37.0519 43.1921 38.6698L55.8257 51.3035C57.4437 49.6852 58.4458 47.4511 58.4458 44.9874C58.4458 40.0592 54.4364 36.0498 49.5082 36.0498Z" fill="#CFE3FF"/>
</g>
<defs>
<clipPath id="clip0_3238_3419">
<rect width="48" height="48" fill="white" transform="translate(24 24)"/>
</clipPath>
</defs>
</svg>
