<svg width="248" height="41" viewBox="0 0 248 41" fill="none" xmlns="http://www.w3.org/2000/svg">
<path d="M20.8594 39.6406C31.4305 39.6406 40 31.0711 40 20.5C40 9.92892 31.4305 1.35938 20.8594 1.35938C10.2883 1.35938 1.71875 9.92892 1.71875 20.5C1.71875 31.0711 10.2883 39.6406 20.8594 39.6406Z" fill="#69CDFF"/>
<path d="M20.6586 28.5102H14.5094V31.7313H20.6586V28.5102Z" fill="#445EA0"/>
<path d="M16.0595 28.5102H14.5094V31.7313H16.0595V28.5102Z" fill="#2E4C89"/>
<path d="M24.7544 31.6534H9.96562C9.74641 31.6534 9.56711 31.8327 9.56711 32.052V34.0497C9.56711 34.2689 9.74648 34.4483 9.96562 34.4483H24.7544V31.6534Z" fill="#293D7C"/>
<path d="M11.1173 34.0496V32.0519C11.1173 31.8327 11.2966 31.6533 11.5159 31.6533L9.96562 31.6534C9.74641 31.6534 9.56711 31.8327 9.56711 32.052V34.0497C9.56711 34.2689 9.74648 34.4483 9.96562 34.4483L11.5158 34.4482C11.2966 34.4482 11.1173 34.2688 11.1173 34.0496Z" fill="#1A2B63"/>
<path d="M34.7698 5.10656H0.398594C0.179375 5.10656 0 5.28594 0 5.50516V28.1898C0 28.4091 0.179375 28.5884 0.398594 28.5884H24.7544V16.6538C24.7544 16.3523 24.9997 16.1069 25.3012 16.1069H35.1684V5.50516C35.1684 5.28594 34.9891 5.10656 34.7698 5.10656Z" fill="#293D7C"/>
<path d="M1.74969 24.6027C1.74969 24.7342 1.85727 24.8417 1.98883 24.8417H24.7544V16.6538C24.7544 16.3523 24.9997 16.1069 25.3012 16.1069H33.4188V9.01547H1.74969V24.6027Z" fill="white"/>
<path d="M3.29992 24.6027V9.01547H1.74969V24.6027C1.74969 24.7342 1.85727 24.8417 1.98883 24.8417H3.53906C3.4075 24.8417 3.29992 24.7341 3.29992 24.6027Z" fill="#D9EAFC"/>
<path d="M17.5844 27.7839C18.1787 27.7839 18.6605 27.3021 18.6605 26.7078C18.6605 26.1135 18.1787 25.6317 17.5844 25.6317C16.9901 25.6317 16.5083 26.1135 16.5083 26.7078C16.5083 27.3021 16.9901 27.7839 17.5844 27.7839Z" fill="#445EA0"/>
<path d="M24.7544 17.9333H20.5806C20.4517 17.9333 20.3463 18.0387 20.3463 18.1677V22.827C20.3463 22.9559 20.4517 23.0613 20.5806 23.0613H24.7544V17.9333Z" fill="#C3DDF4"/>
<path d="M21.8964 22.827V18.1677C21.8964 18.0387 22.0019 17.9333 22.1308 17.9333H20.5806C20.4517 17.9333 20.3463 18.0387 20.3463 18.1677V22.827C20.3463 22.9559 20.4517 23.0613 20.5806 23.0613H22.1308C22.0019 23.0613 21.8964 22.9559 21.8964 22.827Z" fill="#AEC1ED"/>
<path d="M25.3012 16.1069H28.9433V10.9989C28.9433 10.7841 28.7675 10.6083 28.5527 10.6083H6.61578C6.40094 10.6083 6.22516 10.7841 6.22516 10.9989V16.1962C6.22516 16.411 6.40094 16.5868 6.61578 16.5868H24.759C24.7921 16.3168 25.0225 16.1069 25.3012 16.1069Z" fill="#C3DDF4"/>
<path d="M7.77531 16.1961V10.9988C7.77531 10.784 7.95109 10.6082 8.16594 10.6082L6.61578 10.6083C6.40094 10.6083 6.22516 10.7841 6.22516 10.9989V16.1962C6.22516 16.411 6.40094 16.5868 6.61578 16.5868L8.16594 16.5867C7.95109 16.5867 7.77531 16.4109 7.77531 16.1961Z" fill="#AEC1ED"/>
<path d="M33.1796 7.1393H1.98883C1.85727 7.1393 1.74969 7.24687 1.74969 7.37852V9.09359H33.4188V7.37852C33.4188 7.24687 33.3111 7.1393 33.1796 7.1393Z" fill="#FFAF10"/>
<path d="M3.53906 7.1393H1.98883C1.85727 7.1393 1.74969 7.24687 1.74969 7.37852V9.09359H3.29984V7.37852C3.29992 7.24687 3.4075 7.1393 3.53906 7.1393Z" fill="#FF9518"/>
<path d="M13.3987 19.1702H6.82297C6.49937 19.1702 6.23703 18.908 6.23703 18.5843C6.23703 18.2606 6.49937 17.9984 6.82297 17.9984H13.3987C13.7223 17.9984 13.9847 18.2606 13.9847 18.5843C13.9847 18.908 13.7223 19.1702 13.3987 19.1702Z" fill="#134A8E"/>
<path d="M13.3987 21.0833H6.82297C6.49937 21.0833 6.23703 20.821 6.23703 20.4973C6.23703 20.1737 6.49937 19.9114 6.82297 19.9114H13.3987C13.7223 19.9114 13.9847 20.1737 13.9847 20.4973C13.9847 20.8209 13.7223 21.0833 13.3987 21.0833Z" fill="#134A8E"/>
<path d="M13.3987 22.9963H6.82297C6.49937 22.9963 6.23703 22.7341 6.23703 22.4104C6.23703 22.0867 6.49937 21.8245 6.82297 21.8245H13.3987C13.7223 21.8245 13.9847 22.0867 13.9847 22.4104C13.9847 22.7341 13.7223 22.9963 13.3987 22.9963Z" fill="#134A8E"/>
<path d="M18.5594 19.1702H15.1745C14.8509 19.1702 14.5886 18.908 14.5886 18.5843C14.5886 18.2606 14.8509 17.9984 15.1745 17.9984H18.5594C18.883 17.9984 19.1453 18.2606 19.1453 18.5843C19.1453 18.908 18.883 19.1702 18.5594 19.1702Z" fill="#134A8E"/>
<path d="M18.5594 21.0833H15.1745C14.8509 21.0833 14.5886 20.821 14.5886 20.4973C14.5886 20.1737 14.8509 19.9114 15.1745 19.9114H18.5594C18.883 19.9114 19.1453 20.1737 19.1453 20.4973C19.1453 20.8209 18.883 21.0833 18.5594 21.0833Z" fill="#134A8E"/>
<path d="M18.5594 22.9963H15.1745C14.8509 22.9963 14.5886 22.7341 14.5886 22.4104C14.5886 22.0867 14.8509 21.8245 15.1745 21.8245H18.5594C18.883 21.8245 19.1453 22.0867 19.1453 22.4104C19.1453 22.7341 18.883 22.9963 18.5594 22.9963Z" fill="#134A8E"/>
<path d="M39.375 16.0288C39.7188 16.0288 40 16.31 40 16.6538V35.542C40 35.8858 39.7188 36.167 39.375 36.167H25.3012C24.9575 36.167 24.6762 35.8858 24.6762 35.542V16.6538C24.6762 16.31 24.9575 16.0288 25.3012 16.0288H39.375Z" fill="#445EA0"/>
<path d="M26.3724 33.7129C26.1576 33.7129 25.9818 33.5371 25.9818 33.3223V17.6234C25.9818 17.4086 26.1576 17.2328 26.3724 17.2328H38.3039C38.5188 17.2328 38.6945 17.4086 38.6945 17.6234V33.3223C38.6945 33.5371 38.5188 33.7129 38.3039 33.7129H26.3724Z" fill="white"/>
<path d="M27.532 33.3223V17.6234C27.532 17.4086 27.7077 17.2328 27.9226 17.2328H26.3724C26.1576 17.2328 25.9818 17.4086 25.9818 17.6234V33.3223C25.9818 33.5371 26.1576 33.7129 26.3724 33.7129H27.9226C27.7077 33.7129 27.532 33.5371 27.532 33.3223Z" fill="#D9EAFC"/>
<path d="M31.6068 35.2754C31.392 35.2754 31.2162 35.0996 31.2162 34.8848V34.7328C31.2162 34.518 31.392 34.3422 31.6068 34.3422H33.0695C33.2844 34.3422 33.4602 34.518 33.4602 34.7328V34.8848C33.4602 35.0996 33.2844 35.2754 33.0695 35.2754H31.6068Z" fill="#445EA0"/>
<path d="M38.6945 18.7401V17.6234C38.6945 17.4086 38.5188 17.2328 38.3039 17.2328H26.3724C26.1576 17.2328 25.9818 17.4086 25.9818 17.6234V18.7401H38.6945Z" fill="#FFAF10"/>
<path d="M27.9226 17.2328H26.3724C26.1576 17.2328 25.9818 17.4086 25.9818 17.6234V18.7401H27.532V17.6234C27.532 17.4086 27.7077 17.2328 27.9226 17.2328Z" fill="#FF9518"/>
<path d="M35.001 25.8854H29.6753C29.3517 25.8854 29.0894 25.6231 29.0894 25.2995C29.0894 24.9758 29.3517 24.7135 29.6753 24.7135H35.001C35.3246 24.7135 35.587 24.9758 35.587 25.2995C35.587 25.623 35.3246 25.8854 35.001 25.8854Z" fill="#134A8E"/>
<path d="M35.001 27.6922H29.6753C29.3517 27.6922 29.0894 27.4299 29.0894 27.1063C29.0894 26.7827 29.3517 26.5203 29.6753 26.5203H35.001C35.3246 26.5203 35.587 26.7827 35.587 27.1063C35.587 27.4299 35.3246 27.6922 35.001 27.6922Z" fill="#134A8E"/>
<path d="M35.001 29.4988H29.6753C29.3517 29.4988 29.0894 29.2366 29.0894 28.9129C29.0894 28.5893 29.3517 28.327 29.6753 28.327H35.001C35.3246 28.327 35.587 28.5893 35.587 28.9129C35.587 29.2366 35.3246 29.4988 35.001 29.4988Z" fill="#134A8E"/>
<path d="M37.4809 23.3326C37.4809 23.5474 37.3052 23.7232 37.0903 23.7232H27.586C27.3712 23.7232 27.1954 23.5474 27.1954 23.3326V20.1104C27.1954 19.8955 27.3712 19.7198 27.586 19.7198H37.0903C37.3052 19.7198 37.4809 19.8955 37.4809 20.1104V23.3326Z" fill="#C3DDF4"/>
<path d="M28.7455 23.3326V20.1104C28.7455 19.8955 28.9213 19.7198 29.1362 19.7198H27.586C27.3712 19.7198 27.1954 19.8955 27.1954 20.1104V23.3326C27.1954 23.5474 27.3712 23.7232 27.586 23.7232H29.1362C28.9213 23.7232 28.7455 23.5474 28.7455 23.3326Z" fill="#AEC1ED"/>
<path d="M36.0748 32.4856C36.0748 32.7005 35.899 32.8762 35.6841 32.8762H28.9922C28.7773 32.8762 28.6016 32.7005 28.6016 32.4856V31.1645C28.6016 30.9497 28.7773 30.7739 28.9922 30.7739H35.6841C35.899 30.7739 36.0748 30.9497 36.0748 31.1645V32.4856Z" fill="#C3DDF4"/>
<path d="M30.1517 32.4856V31.1645C30.1517 30.9497 30.3275 30.7739 30.5423 30.7739H28.9922C28.7773 30.7739 28.6016 30.9497 28.6016 31.1645V32.4856C28.6016 32.7005 28.7773 32.8762 28.9922 32.8762H30.5423C30.3275 32.8762 30.1517 32.7005 30.1517 32.4856Z" fill="#AEC1ED"/>
<path d="M140.208 2.50838V14.8392H141.643V2.50838H146.413V1.26753H135.439V2.50838H140.208Z" fill="#134A8E"/>
<path fill-rule="evenodd" clip-rule="evenodd" d="M148.885 14.277C149.687 14.7164 150.617 14.9362 151.677 14.9362C152.491 14.9362 153.235 14.794 153.907 14.5096C154.592 14.2253 155.161 13.8117 155.613 13.2688L154.837 12.3769C154.45 12.8293 153.984 13.1654 153.441 13.3851C152.912 13.6049 152.336 13.7147 151.716 13.7147C150.927 13.7147 150.223 13.5532 149.603 13.23C148.995 12.894 148.517 12.4351 148.168 11.8535C147.886 11.3548 147.722 10.7926 147.677 10.1667H156.233V9.95342C156.246 9.87587 156.253 9.80478 156.253 9.74015C156.253 8.71904 156.039 7.82073 155.613 7.0452C155.186 6.25675 154.598 5.64926 153.849 5.22272C153.112 4.78325 152.265 4.56352 151.309 4.56352C150.365 4.56352 149.512 4.78971 148.75 5.2421C148 5.68157 147.405 6.28906 146.966 7.06459C146.539 7.84012 146.326 8.73197 146.326 9.74015C146.326 10.7483 146.552 11.6467 147.005 12.4351C147.457 13.2106 148.084 13.8246 148.885 14.277ZM147.683 9.13912C147.733 8.56872 147.882 8.05171 148.129 7.58807C148.439 7.00643 148.872 6.55404 149.428 6.2309C149.984 5.90776 150.611 5.7462 151.309 5.7462C152.02 5.7462 152.647 5.90776 153.189 6.2309C153.732 6.55404 154.159 7.00643 154.469 7.58807C154.731 8.04973 154.887 8.56674 154.937 9.13912H147.683Z" fill="#134A8E"/>
<path d="M160.567 14.277C161.368 14.7164 162.273 14.9362 163.281 14.9362C164.147 14.9362 164.929 14.7681 165.627 14.4321C166.325 14.0831 166.875 13.579 167.275 12.9198L166.248 12.2218C165.899 12.7259 165.466 13.1008 164.949 13.3463C164.432 13.5919 163.869 13.7147 163.262 13.7147C162.538 13.7147 161.885 13.5532 161.304 13.23C160.722 12.894 160.263 12.4286 159.927 11.8341C159.591 11.2395 159.423 10.5415 159.423 9.74015C159.423 8.93878 159.591 8.2408 159.927 7.64623C160.263 7.05166 160.722 6.59281 161.304 6.26968C161.885 5.93361 162.538 5.76558 163.262 5.76558C163.869 5.76558 164.432 5.88838 164.949 6.13396C165.466 6.37954 165.899 6.76084 166.248 7.27786L167.275 6.57989C166.875 5.90776 166.325 5.40367 165.627 5.06761C164.929 4.73155 164.147 4.56352 163.281 4.56352C162.273 4.56352 161.368 4.78325 160.567 5.22272C159.778 5.66218 159.158 6.26968 158.706 7.0452C158.253 7.82073 158.027 8.71904 158.027 9.74015C158.027 10.7483 158.253 11.6467 158.706 12.4351C159.158 13.2106 159.778 13.8246 160.567 14.277Z" fill="#134A8E"/>
<path d="M177.195 5.04822C176.575 4.72509 175.851 4.56352 175.024 4.56352C174.042 4.56352 173.195 4.77679 172.484 5.20333C171.947 5.51593 171.52 5.92082 171.204 6.418V0.453232H169.828V14.8392H171.204V9.48811C171.204 8.71258 171.347 8.05339 171.631 7.51052C171.928 6.95472 172.342 6.53465 172.872 6.25029C173.415 5.953 174.048 5.80436 174.772 5.80436C175.741 5.80436 176.491 6.08226 177.021 6.63805C177.564 7.18092 177.835 7.98876 177.835 9.06157V14.8392H179.212V8.92585C179.212 7.94352 179.031 7.12922 178.669 6.48295C178.32 5.83667 177.829 5.35843 177.195 5.04822Z" fill="#134A8E"/>
<path d="M190.298 5.04822C189.677 4.72509 188.953 4.56352 188.126 4.56352C187.144 4.56352 186.297 4.77679 185.586 5.20333C185.015 5.53555 184.569 5.97202 184.248 6.51273V4.66046H182.93V14.8392H184.307V9.48811C184.307 8.71258 184.449 8.05339 184.733 7.51052C185.03 6.95472 185.444 6.53465 185.974 6.25029C186.517 5.953 187.15 5.80436 187.874 5.80436C188.843 5.80436 189.593 6.08226 190.123 6.63805C190.666 7.18092 190.937 7.98876 190.937 9.06157V14.8392H192.314V8.92585C192.314 7.94352 192.133 7.12922 191.771 6.48295C191.422 5.83667 190.931 5.35843 190.298 5.04822Z" fill="#134A8E"/>
<path fill-rule="evenodd" clip-rule="evenodd" d="M197.525 14.277C198.314 14.7164 199.199 14.9362 200.181 14.9362C201.177 14.9362 202.068 14.7164 202.857 14.277C203.645 13.8246 204.259 13.2106 204.699 12.4351C205.151 11.6467 205.377 10.7483 205.377 9.74015C205.377 8.71904 205.151 7.82073 204.699 7.0452C204.259 6.26968 203.645 5.66218 202.857 5.22272C202.081 4.78325 201.189 4.56352 200.181 4.56352C199.186 4.56352 198.301 4.78325 197.525 5.22272C196.75 5.66218 196.136 6.26968 195.683 7.0452C195.231 7.82073 195.005 8.71904 195.005 9.74015C195.005 10.7483 195.231 11.6467 195.683 12.4351C196.136 13.2106 196.75 13.8246 197.525 14.277ZM202.14 13.23C201.571 13.5532 200.918 13.7147 200.181 13.7147C199.47 13.7147 198.831 13.5532 198.262 13.23C197.693 12.894 197.241 12.4286 196.905 11.8341C196.569 11.2266 196.401 10.5286 196.401 9.74015C196.401 8.93878 196.569 8.2408 196.905 7.64623C197.241 7.05166 197.693 6.59281 198.262 6.26968C198.831 5.93361 199.477 5.76558 200.201 5.76558C200.925 5.76558 201.571 5.93361 202.14 6.26968C202.708 6.59281 203.154 7.05166 203.477 7.64623C203.813 8.2408 203.981 8.93878 203.981 9.74015C203.981 10.5286 203.813 11.2266 203.477 11.8341C203.154 12.4286 202.708 12.894 202.14 13.23Z" fill="#134A8E"/>
<path d="M209.564 0.453232H208.188V14.8392H209.564V0.453232Z" fill="#134A8E"/>
<path fill-rule="evenodd" clip-rule="evenodd" d="M214.887 14.277C215.676 14.7164 216.561 14.9362 217.544 14.9362C218.539 14.9362 219.431 14.7164 220.219 14.277C221.008 13.8246 221.622 13.2106 222.061 12.4351C222.513 11.6467 222.74 10.7483 222.74 9.74015C222.74 8.71904 222.513 7.82073 222.061 7.0452C221.622 6.26968 221.008 5.66218 220.219 5.22272C219.444 4.78325 218.552 4.56352 217.544 4.56352C216.548 4.56352 215.663 4.78325 214.887 5.22272C214.112 5.66218 213.498 6.26968 213.045 7.0452C212.593 7.82073 212.367 8.71904 212.367 9.74015C212.367 10.7483 212.593 11.6467 213.045 12.4351C213.498 13.2106 214.112 13.8246 214.887 14.277ZM219.502 13.23C218.933 13.5532 218.28 13.7147 217.544 13.7147C216.833 13.7147 216.193 13.5532 215.624 13.23C215.055 12.894 214.603 12.4286 214.267 11.8341C213.931 11.2266 213.763 10.5286 213.763 9.74015C213.763 8.93878 213.931 8.2408 214.267 7.64623C214.603 7.05166 215.055 6.59281 215.624 6.26968C216.193 5.93361 216.839 5.76558 217.563 5.76558C218.287 5.76558 218.933 5.93361 219.502 6.26968C220.07 6.59281 220.516 7.05166 220.84 7.64623C221.176 8.2408 221.344 8.93878 221.344 9.74015C221.344 10.5286 221.176 11.2266 220.84 11.8341C220.516 12.4286 220.07 12.894 219.502 13.23Z" fill="#134A8E"/>
<path fill-rule="evenodd" clip-rule="evenodd" d="M227.217 18.2903C228.07 18.5618 228.962 18.6975 229.893 18.6975C231.573 18.6975 232.84 18.2839 233.693 17.4566C234.559 16.6423 234.992 15.3563 234.992 13.5984V4.66046H233.674V6.57251C233.263 5.94447 232.733 5.46223 232.084 5.12577C231.36 4.75094 230.546 4.56352 229.641 4.56352C228.671 4.56352 227.799 4.77033 227.023 5.18394C226.248 5.59755 225.634 6.1792 225.182 6.92887C224.742 7.66562 224.522 8.5187 224.522 9.48811C224.522 10.4575 224.742 11.3171 225.182 12.0667C225.634 12.8164 226.248 13.4045 227.023 13.8311C227.799 14.2447 228.671 14.4515 229.641 14.4515C230.546 14.4515 231.36 14.2576 232.084 13.8698C232.703 13.538 233.214 13.0784 233.615 12.491V13.7729C233.615 15.0396 233.312 15.9702 232.704 16.5648C232.097 17.1723 231.147 17.476 229.854 17.476C229.066 17.476 228.316 17.3468 227.605 17.0883C226.907 16.8427 226.319 16.5066 225.841 16.0801L225.143 17.127C225.673 17.6311 226.364 18.0189 227.217 18.2903ZM231.774 12.7647C231.192 13.0749 230.526 13.23 229.777 13.23C229.04 13.23 228.374 13.0749 227.78 12.7647C227.198 12.4416 226.739 12.0021 226.403 11.4463C226.08 10.8776 225.918 10.2249 225.918 9.48811C225.918 8.75136 226.08 8.10509 226.403 7.54929C226.739 6.9935 227.198 6.5605 227.78 6.25029C228.374 5.92715 229.04 5.76558 229.777 5.76558C230.526 5.76558 231.192 5.92715 231.774 6.25029C232.355 6.5605 232.814 6.9935 233.15 7.54929C233.486 8.10509 233.654 8.75136 233.654 9.48811C233.654 10.2249 233.486 10.8776 233.15 11.4463C232.814 12.0021 232.355 12.4416 231.774 12.7647Z" fill="#134A8E"/>
<path d="M237.523 18.4648C237.963 18.6199 238.422 18.6975 238.9 18.6975C239.391 18.6975 239.837 18.6135 240.238 18.4454C240.639 18.2903 241.007 18.0189 241.343 17.6311C241.692 17.2434 242.009 16.7199 242.293 16.0607L247.392 4.66046H246.035L242.198 13.3112L238.357 4.66046H236.922L241.472 14.8131L241.033 15.8086C240.735 16.442 240.419 16.8815 240.083 17.127C239.76 17.3855 239.372 17.5148 238.919 17.5148C238.545 17.5148 238.202 17.4437 237.892 17.3015C237.595 17.1723 237.317 16.9849 237.058 16.7393L236.418 17.7668C236.729 18.0771 237.097 18.3097 237.523 18.4648Z" fill="#134A8E"/>
<path fill-rule="evenodd" clip-rule="evenodd" d="M137.694 22.4675V39.8392H140.92V34.8262H144.841C146.38 34.8262 147.695 34.5781 148.787 34.0817C149.896 33.5854 150.748 32.874 151.343 31.9475C151.939 31.021 152.237 29.9208 152.237 28.6468C152.237 27.3729 151.939 26.2727 151.343 25.3462C150.748 24.4197 149.896 23.7083 148.787 23.212C147.695 22.7156 146.38 22.4675 144.841 22.4675H137.694ZM140.92 32.0964H144.693C146.115 32.0964 147.182 31.7986 147.894 31.203C148.622 30.5908 148.986 29.7388 148.986 28.6468C148.986 27.5384 148.622 26.6863 147.894 26.0907C147.182 25.4951 146.115 25.1973 144.693 25.1973H140.92V32.0964Z" fill="#134A8E"/>
<path fill-rule="evenodd" clip-rule="evenodd" d="M163.204 38.2312V39.8392H166.133V32.0716C166.133 30.1524 165.603 28.7378 164.544 27.8279C163.502 26.9014 162.021 26.4381 160.102 26.4381C159.043 26.4381 158.018 26.5788 157.025 26.86C156.049 27.1247 155.205 27.5301 154.494 28.0761L155.71 30.3344C156.206 29.9208 156.81 29.5982 157.521 29.3665C158.249 29.1349 158.986 29.0191 159.73 29.0191C160.839 29.0191 161.666 29.2755 162.212 29.7884C162.758 30.2848 163.031 30.9879 163.031 31.8979V32.0964H159.606C158.266 32.0964 157.19 32.2701 156.38 32.6175C155.569 32.965 154.982 33.4365 154.618 34.0321C154.27 34.6277 154.097 35.2978 154.097 36.0423C154.097 36.8033 154.295 37.4899 154.692 38.1021C155.106 38.6977 155.685 39.1692 156.429 39.5166C157.174 39.8475 158.042 40.013 159.035 40.013C160.21 40.013 161.178 39.7979 161.939 39.3677C162.474 39.0713 162.896 38.6925 163.204 38.2312ZM163.031 35.6948V34.1562H159.829C158.77 34.1562 158.059 34.3299 157.695 34.6773C157.331 35.0082 157.149 35.4218 157.149 35.9182C157.149 36.4807 157.372 36.9274 157.819 37.2583C158.266 37.5892 158.886 37.7546 159.68 37.7546C160.441 37.7546 161.12 37.5809 161.715 37.2335C162.327 36.886 162.766 36.3732 163.031 35.6948Z" fill="#134A8E"/>
<path d="M170.114 26.587V39.8392H173.216V33.4117C173.216 32.055 173.563 31.0375 174.258 30.3592C174.953 29.6643 175.888 29.3169 177.063 29.3169C177.178 29.3169 177.294 29.3252 177.41 29.3417C177.526 29.3417 177.65 29.3583 177.782 29.3914V26.4381C176.508 26.4381 175.441 26.6698 174.581 27.133C173.952 27.4781 173.448 27.9425 173.067 28.5263V26.587H170.114Z" fill="#134A8E"/>
<path d="M182.512 38.8962C183.306 39.6407 184.431 40.013 185.887 40.013C186.449 40.013 186.995 39.9385 187.525 39.7896C188.054 39.6407 188.501 39.4174 188.865 39.1195L187.996 36.9109C187.533 37.2748 186.954 37.4568 186.259 37.4568C185.68 37.4568 185.225 37.2831 184.894 36.9357C184.58 36.5882 184.423 36.1002 184.423 35.4715V29.168H187.971V26.6863H184.423V23.6587H181.32V26.6863H179.137V29.168H181.32V35.5459C181.32 37.0184 181.718 38.1351 182.512 38.8962Z" fill="#134A8E"/>
<path d="M201.765 27.0586C200.938 26.645 199.995 26.4381 198.936 26.4381C197.778 26.4381 196.752 26.6698 195.859 27.133C195.269 27.4336 194.773 27.824 194.37 28.3042V26.587H191.417V39.8392H194.519V33.1387C194.519 32.2453 194.668 31.5091 194.965 30.93C195.28 30.3344 195.718 29.8877 196.281 29.5899C196.843 29.2921 197.488 29.1432 198.216 29.1432C199.209 29.1432 199.978 29.4327 200.524 30.0118C201.087 30.5908 201.368 31.4677 201.368 32.6424V39.8392H204.47V32.2453C204.47 30.9052 204.23 29.8132 203.751 28.9695C203.271 28.1091 202.609 27.4722 201.765 27.0586Z" fill="#134A8E"/>
<path fill-rule="evenodd" clip-rule="evenodd" d="M210.787 39.1444C211.896 39.7234 213.186 40.013 214.659 40.013C215.817 40.013 216.843 39.831 217.736 39.467C218.646 39.0865 219.399 38.5488 219.994 37.8539L218.332 35.943C217.868 36.4393 217.339 36.8033 216.743 37.0349C216.148 37.2666 215.478 37.3824 214.733 37.3824C213.873 37.3824 213.112 37.2169 212.45 36.886C211.788 36.5551 211.275 36.0836 210.911 35.4715C210.682 35.0857 210.525 34.6638 210.44 34.2058H220.838C220.855 34.0569 220.863 33.8997 220.863 33.7343C220.88 33.5689 220.888 33.4199 220.888 33.2876C220.888 31.8979 220.598 30.6901 220.019 29.6643C219.44 28.6386 218.646 27.8444 217.637 27.2819C216.628 26.7194 215.478 26.4381 214.187 26.4381C212.864 26.4381 211.681 26.7277 210.638 27.3067C209.613 27.8858 208.802 28.6882 208.206 29.714C207.627 30.7232 207.338 31.8896 207.338 33.2131C207.338 34.5202 207.636 35.6866 208.231 36.7123C208.843 37.7381 209.695 38.5488 210.787 39.1444ZM210.412 32.146C210.48 31.6489 210.622 31.2022 210.837 30.8059C211.168 30.2103 211.615 29.7471 212.177 29.4162C212.756 29.0853 213.426 28.9198 214.187 28.9198C214.932 28.9198 215.585 29.0853 216.148 29.4162C216.727 29.7471 217.182 30.202 217.513 30.7811C217.747 31.1906 217.894 31.6455 217.954 32.146H210.412Z" fill="#134A8E"/>
<path d="M226.821 26.587H223.868V39.8392H226.97V33.4117C226.97 32.055 227.317 31.0375 228.012 30.3592C228.707 29.6643 229.642 29.3169 230.816 29.3169C230.932 29.3169 231.048 29.3252 231.164 29.3417C231.28 29.3417 231.404 29.3583 231.536 29.3914V26.4381C230.262 26.4381 229.195 26.6698 228.335 27.133C227.706 27.4781 227.201 27.9425 226.821 28.5263V26.587Z" fill="#134A8E"/>
<path d="M235.182 39.5911C236.208 39.8723 237.275 40.013 238.383 40.013C239.624 40.013 240.691 39.8475 241.585 39.5166C242.478 39.1692 243.165 38.6894 243.645 38.0772C244.141 37.4651 244.389 36.7454 244.389 35.9182C244.389 35.1737 244.24 34.5698 243.942 34.1065C243.645 33.6433 243.248 33.2876 242.751 33.0394C242.271 32.7747 241.742 32.5679 241.163 32.419C240.584 32.2701 239.997 32.1626 239.401 32.0964C238.822 32.0137 238.292 31.9144 237.813 31.7986C237.333 31.6828 236.944 31.5256 236.646 31.3271C236.348 31.1285 236.2 30.8307 236.2 30.4337C236.2 30.0035 236.423 29.6478 236.87 29.3665C237.333 29.0853 238.036 28.9446 238.979 28.9446C239.608 28.9446 240.236 29.0191 240.865 29.168C241.51 29.3004 242.147 29.5568 242.776 29.9373L243.967 27.5797C243.372 27.2157 242.619 26.9345 241.709 26.736C240.799 26.5374 239.897 26.4381 239.004 26.4381C237.813 26.4381 236.779 26.6119 235.902 26.9593C235.041 27.2902 234.371 27.77 233.892 28.3987C233.412 29.0108 233.172 29.7388 233.172 30.5826C233.172 31.3436 233.321 31.9558 233.619 32.419C233.916 32.8823 234.305 33.2545 234.785 33.5358C235.265 33.8005 235.794 34.0073 236.373 34.1562C236.969 34.2885 237.556 34.3961 238.135 34.4788C238.731 34.5615 239.269 34.6525 239.748 34.7518C240.228 34.8511 240.617 35 240.915 35.1985C241.213 35.3805 241.361 35.6535 241.361 36.0174C241.361 36.4641 241.138 36.8199 240.691 37.0846C240.261 37.3493 239.558 37.4816 238.582 37.4816C237.755 37.4816 236.928 37.3576 236.1 37.1094C235.273 36.8612 234.562 36.5469 233.966 36.1663L232.775 38.5239C233.37 38.9376 234.173 39.2933 235.182 39.5911Z" fill="#134A8E"/>
<path fill-rule="evenodd" clip-rule="evenodd" d="M65.4214 1.46026L48 40.5468H57.2691L60.7522 32.1711H78.8707L82.3403 40.5468H91.8327L74.3555 1.46026H65.4214ZM69.8291 10.344L76.0257 25.303H63.6083L69.8291 10.344Z" fill="#134A8E"/>
<path fill-rule="evenodd" clip-rule="evenodd" d="M95.8879 1.46026V40.5468H113.644C117.888 40.5468 121.629 39.7464 124.868 38.1457C128.106 36.5078 130.638 34.2371 132.462 31.3335C134.286 28.3927 135.198 24.9494 135.198 21.0035C135.198 17.0204 134.286 13.5771 132.462 10.6735C130.638 7.76994 128.106 5.51782 124.868 3.91713C121.629 2.27922 117.888 1.46026 113.644 1.46026H95.8879ZM113.198 33.1203H104.934V8.8867H113.198C115.803 8.8867 118.056 9.38924 119.954 10.3943C121.89 11.3622 123.379 12.7581 124.421 14.5822C125.501 16.369 126.04 18.5094 126.04 21.0035C126.04 23.4604 125.501 25.6008 124.421 27.4249C123.379 29.2489 121.89 30.6635 119.954 31.6685C118.056 32.6364 115.803 33.1203 113.198 33.1203Z" fill="#134A8E"/>
</svg>
