<svg width="56" height="56" viewBox="0 0 56 56" fill="none" xmlns="http://www.w3.org/2000/svg">
<g clip-path="url(#clip0_3183_4702)">
<path d="M53.5317 31.9939C55.7442 17.8907 46.105 4.66427 32.0019 2.45173C17.8987 0.239197 4.67224 9.87844 2.45971 23.9816C0.247168 38.0847 9.88641 51.3112 23.9896 53.5237C38.0927 55.7363 51.3192 46.097 53.5317 31.9939Z" fill="white"/>
<path d="M53.8242 28.8077C53.8458 28.5384 53.8458 28.2692 53.8458 28C53.8458 27.7307 53.8458 27.4615 53.8242 27.1923H43.0658C42.9904 22.7661 42.3011 18.5985 41.138 14.9692C43.2596 13.7523 45.2304 12.2554 46.975 10.4677C46.8026 10.2739 46.6088 10.08 46.4257 9.88618C46.2319 9.69228 46.0381 9.49844 45.8442 9.31538C44.2611 10.9308 42.5057 12.2985 40.5995 13.4077C38.7042 8.29229 35.8396 4.40461 32.4796 2.54155C31.0257 2.28304 29.5288 2.15381 27.9996 2.15381C26.4703 2.15381 24.9734 2.28304 23.5196 2.55227C20.1596 4.40461 17.295 8.29229 15.3996 13.4077C13.5042 12.2985 11.738 10.9308 10.155 9.31538C9.96114 9.49845 9.76723 9.69228 9.5734 9.88618C9.39033 10.08 9.1965 10.2739 9.02416 10.4677C10.7688 12.2554 12.7503 13.7523 14.8611 14.9692C13.698 18.5985 13.0196 22.7661 12.9442 27.1923H2.17494C2.15344 27.4615 2.15344 27.7307 2.15344 28C2.15344 28.2692 2.15344 28.5384 2.17494 28.8077H12.9442C13.0196 33.2339 13.698 37.4016 14.8611 41.0308C12.7503 42.2477 10.7688 43.7446 9.02416 45.5323C9.1965 45.7261 9.39034 45.92 9.5734 46.1138C9.76723 46.3077 9.96115 46.5016 10.155 46.6846C11.738 45.0693 13.5042 43.7015 15.3996 42.5923C17.295 47.7077 20.1596 51.5954 23.5196 53.4477C24.9734 53.7169 26.4703 53.8461 27.9996 53.8461C29.5288 53.8461 31.0258 53.7169 32.4796 53.4585C35.8396 51.5954 38.7042 47.7077 40.5996 42.5923C42.5057 43.7015 44.2611 45.0693 45.8442 46.6846C46.0381 46.5016 46.2319 46.3077 46.4258 46.1138C46.6088 45.92 46.8027 45.7261 46.975 45.5323C45.2304 43.7446 43.2596 42.2477 41.138 41.0308C42.3011 37.4016 42.9904 33.2339 43.0658 28.8077H53.8242ZM27.1919 52.9846C22.8519 52.5108 19.0611 48.1923 16.7888 41.8385C19.9873 40.2231 23.5196 39.3292 27.1919 39.2108V52.9846ZM27.1919 37.5954C23.3473 37.7138 19.6427 38.6292 16.2827 40.2769C15.2488 36.8739 14.6242 32.9646 14.5596 28.8077H27.1919V37.5954ZM27.1919 27.1923H14.5596C14.6242 23.0354 15.2488 19.1261 16.2827 15.7231C19.6427 17.3708 23.3473 18.2862 27.1919 18.4046V27.1923ZM27.1919 16.7892C23.5196 16.6708 19.9873 15.7769 16.7888 14.1615C19.0611 7.80768 22.8519 3.48927 27.1919 3.01541V16.7892ZM28.8073 3.01541C33.1473 3.48926 36.938 7.80767 39.2103 14.1615C36.0119 15.7769 32.4796 16.6708 28.8073 16.7892V3.01541ZM28.8073 52.9846V39.2108C32.4796 39.3292 36.0118 40.2231 39.2103 41.8385C36.938 48.1923 33.1473 52.5108 28.8073 52.9846ZM39.7165 40.2769C36.3565 38.6292 32.6519 37.7138 28.8073 37.5954V28.8077H41.4504C41.375 32.9646 40.7611 36.8739 39.7165 40.2769ZM28.8073 27.1923V18.4046C32.6519 18.2862 36.3565 17.3708 39.7165 15.7231C40.7611 19.1261 41.375 23.0354 41.4504 27.1923H28.8073Z" fill="#27A9E1"/>
<path d="M46.673 22.6674V33.3324C46.673 34.5507 45.6854 35.5383 44.4671 35.5383H12.5503C11.332 35.5383 10.3444 34.5507 10.3444 33.3324V22.6674C10.3444 21.4491 11.332 20.4614 12.5503 20.4614H44.4671C45.6854 20.4614 46.673 21.4491 46.673 22.6674Z" fill="#93C5FD"/>
<path d="M19.7028 30.9216C19.4499 30.9216 19.2206 30.7744 19.1155 30.5451L17.8482 27.7781L16.5809 30.5451C16.3706 31.0036 15.6165 31.0036 15.4062 30.5451L13.5515 26.4961C13.4027 26.1711 13.5452 25.7883 13.8697 25.639C14.1952 25.4907 14.5785 25.6348 14.7263 25.9576L15.9935 28.7246L17.2608 25.9576C17.4712 25.4991 18.2252 25.4991 18.4356 25.9576L19.7028 28.7246L20.9701 25.9576C21.1184 25.6348 21.5028 25.4917 21.8267 25.639C22.1512 25.7883 22.2937 26.1711 22.1448 26.4961L20.2902 30.5451C20.185 30.7744 19.9558 30.9216 19.7028 30.9216Z" fill="#134A8E"/>
<path d="M30.1629 30.9216C29.9099 30.9216 29.6807 30.7744 29.5755 30.5451L28.3082 27.7781L27.041 30.5451C26.9358 30.7744 26.7065 30.9216 26.4536 30.9216C26.2007 30.9216 25.9714 30.7744 25.8662 30.5451L24.0121 26.4961C23.8633 26.1711 24.0058 25.7883 24.3302 25.639C24.6552 25.4907 25.038 25.6348 25.1868 25.9576L26.4536 28.7236L27.7209 25.9576C27.9312 25.4991 28.6853 25.4991 28.8956 25.9576L30.1629 28.7246L31.4302 25.9576C31.5784 25.6348 31.9628 25.4917 32.2867 25.639C32.6112 25.7883 32.7537 26.1711 32.6049 26.4961L30.7502 30.5451C30.6451 30.7744 30.4158 30.9216 30.1629 30.9216Z" fill="#134A8E"/>
<path d="M40.6234 30.9216C40.3705 30.9216 40.1412 30.7744 40.0361 30.5451L38.7688 27.7781L37.5015 30.5451C37.2912 31.0036 36.5371 31.0036 36.3268 30.5451L34.4721 26.4961C34.3233 26.1711 34.4658 25.7883 34.7903 25.639C35.1158 25.4907 35.4991 25.6348 35.6469 25.9576L36.9141 28.7246L38.1814 25.9576C38.3918 25.4991 39.1458 25.4991 39.3562 25.9576L40.6234 28.7236L41.8902 25.9576C42.0385 25.6348 42.4229 25.4917 42.7468 25.639C43.0712 25.7883 43.2137 26.1711 43.0649 26.4961L41.2108 30.5451C41.1056 30.7744 40.8764 30.9216 40.6234 30.9216Z" fill="#134A8E"/>
<path opacity="0.5" d="M8.13232 19.2953C8.07553 19.2953 8.01821 19.2838 7.96352 19.2585C7.76107 19.1649 7.6722 18.9251 7.76528 18.7232C10.1863 13.4543 14.678 9.25176 20.0878 7.19151C20.2961 7.11474 20.529 7.21675 20.609 7.42499C20.6884 7.63428 20.5837 7.8667 20.375 7.94663C15.1612 9.93115 10.8325 13.9822 8.49935 19.0598C8.43099 19.208 8.28481 19.2953 8.13232 19.2953Z" fill="#134A8E"/>
</g>
<defs>
<clipPath id="clip0_3183_4702">
<rect width="56" height="56" fill="white"/>
</clipPath>
</defs>
</svg>
